<svg width="40" height="40" viewBox="0 0 40 40" fill="none" xmlns="http://www.w3.org/2000/svg">
<rect width="40" height="40" rx="4" fill="#4F565D"/>
<g filter="url(#filter0_b_726_1385)">
<path d="M20 10C14.3497 10 9.38309 12.8477 6.50477 17.1546C5.35532 18.8745 5.35532 21.1255 6.50477 22.8454C9.38309 27.1523 14.3497 30 20 30C25.6503 30 30.6169 27.1523 33.4952 22.8454C34.6447 21.1255 34.6447 18.8745 33.4952 17.1546C30.6169 12.8477 25.6503 10 20 10ZM20 26.6667C16.2364 26.6667 13.1818 23.68 13.1818 20C13.1818 16.32 16.2364 13.3333 20 13.3333C23.7636 13.3333 26.8182 16.32 26.8182 20C26.8182 23.68 23.7636 26.6667 20 26.6667ZM20 16C17.7364 16 15.9091 17.7867 15.9091 20C15.9091 22.2133 17.7364 24 20 24C22.2636 24 24.0909 22.2133 24.0909 20C24.0909 17.7867 22.2636 16 20 16Z" fill="#9A9EA2"/>
</g>
<defs>
<filter id="filter0_b_726_1385" x="1.64258" y="6" width="36.7148" height="28" filterUnits="userSpaceOnUse" color-interpolation-filters="sRGB">
<feFlood flood-opacity="0" result="BackgroundImageFix"/>
<feGaussianBlur in="BackgroundImageFix" stdDeviation="2"/>
<feComposite in2="SourceAlpha" operator="in" result="effect1_backgroundBlur_726_1385"/>
<feBlend mode="normal" in="SourceGraphic" in2="effect1_backgroundBlur_726_1385" result="shape"/>
</filter>
</defs>
</svg>
