<svg width="140" height="40" viewBox="0 0 140 40" fill="none" xmlns="http://www.w3.org/2000/svg">
<path fill-rule="evenodd" clip-rule="evenodd" d="M119.161 0.00134251H133.347C137.43 3.70666 139.994 9.05521 139.994 15.0012C139.994 20.9471 137.43 26.2957 133.347 30.001L119.161 30.0023C123.715 26.5816 126.662 21.1351 126.662 15.0012C126.662 8.86726 123.715 3.42071 119.161 0.00134251ZM34.2084 0.00134251C38.1755 2.37355 40.831 6.59439 40.831 11.6677C40.831 16.7411 37.9205 21.3673 33.6432 23.6536L42.4984 40H28.3323L20.0087 23.3543C23.9946 20.9874 26.6649 16.6323 26.6649 11.6677C26.6649 6.70314 24.0094 2.37355 20.0436 0.00134251H34.2084ZM0 0.00134251H13.3324V40H0V0.00134251ZM113.328 0.00134251V40H99.9953V0.00134251H113.328ZM85.8292 0C89.9614 3.10388 93.1002 7.45763 94.6843 12.5014H81.2942C79.5825 7.32203 76.1443 2.92801 71.663 0.00134251L85.8292 0ZM81.7788 25.8339H95.1448C93.7701 31.5825 90.4098 36.5605 85.8319 40H71.6657C76.6196 36.7619 80.2967 31.7342 81.7788 25.8339ZM57.4969 20.0007C57.4969 28.3725 61.8063 35.7375 68.3269 40H54.1608C48.0913 35.4382 44.1645 28.1779 44.1645 20.0007C44.1645 11.8235 48.0913 4.56184 54.1621 0.00134251H68.3282C61.8063 4.2638 57.4969 11.6288 57.4969 20.0007Z" fill="white"/>
</svg>
