<svg width="299" height="100" viewBox="0 0 299 100" fill="none" xmlns="http://www.w3.org/2000/svg">
<path fill-rule="evenodd" clip-rule="evenodd" d="M38.3915 16.912L46.5174 14.9924C46.6009 14.9696 46.6919 14.9696 46.7678 14.9772L49.2413 15.0835C49.3399 15.091 49.4385 15.1138 49.522 15.1517L50.7359 15.698L53.2397 15.2731L57.6631 14.2792C57.7921 14.2489 57.9211 14.2564 58.0425 14.2944L61.176 15.1138C61.5326 15.2049 61.7602 15.5311 61.745 15.8877L61.6388 24.3778V24.5144L74.3171 28.8164C74.6585 28.9302 74.8634 29.264 74.8255 29.6055L73.8922 46.8968H75.569C78.179 46.8968 80.5538 45.8346 82.2686 44.1123C83.9833 42.3976 85.0531 40.0227 85.0531 37.4127V16.5023C84.8856 16.3246 84.7147 16.1503 84.5426 15.9749C84.4575 15.8881 84.3721 15.8011 84.2868 15.7132C75.5083 6.94992 63.3839 1.51745 50 1.51745C36.6161 1.51745 24.4916 6.94233 15.7208 15.7132C7.99696 23.437 2.86798 33.7557 1.75265 45.2428L2.76176 45.6753C3.73293 46.0925 4.66616 46.396 5.62215 46.5933C6.57056 46.7906 7.54931 46.8816 8.61153 46.8816H24.2868L23.4522 33.3839C23.4446 33.2701 23.4674 33.1563 23.5053 33.0577L24.2792 30.9408C24.393 30.6221 24.6965 30.4325 25.0152 30.4401L27.2155 30.4021C27.3141 30.4021 27.4051 30.4173 27.4962 30.4476L28.3991 30.7511L37.9742 27.519L37.8073 17.6479C37.7997 17.2989 38.0501 16.9879 38.3915 16.912ZM73.8467 47.6403H75.5614C78.3839 47.6403 80.9408 46.4871 82.7997 44.6358C84.6585 42.7769 85.8042 40.22 85.8042 37.3976V17.3217C93.6722 25.9408 98.4749 37.4127 98.4749 50C98.4749 63.3839 93.05 75.5083 84.2792 84.2792C75.5083 93.05 63.3839 98.4749 50 98.4749C36.6161 98.4749 24.4916 93.05 15.7208 84.2792C6.94234 75.5083 1.51745 63.3839 1.51745 50C1.51745 48.6646 1.57056 47.3444 1.67678 46.0394L2.45827 46.3733C3.47496 46.8133 4.45372 47.1244 5.46282 47.3369C6.47192 47.5417 7.50379 47.6403 8.60394 47.6403H24.3247L24.3627 48.2549L14.4461 52.9362C14.302 53.0045 14.173 53.1183 14.0971 53.2777L13.437 54.5675C13.3611 54.6889 13.3156 54.8255 13.3156 54.9772V58.1032C13.3156 58.3611 13.4446 58.6115 13.6798 58.7557L25.5842 65.8877L27.8756 67.6631V68.7784L27.5341 68.9226C27.2382 69.0212 27.0182 69.3095 27.0182 69.6434V71.2063C27.0182 71.6236 27.3596 71.9651 27.7769 71.9651H31.396C31.8133 71.9651 32.1548 71.6236 32.1548 71.2063V69.6054C32.1548 69.3095 31.9803 69.0288 31.6844 68.9074L31.2974 68.7481V68.0728H32.3369L41.8816 74.0288V77.0713C41.8816 77.39 42.0789 77.6859 42.3976 77.7921L43.9985 78.3308L43.9909 79.2261L43.4142 79.6054C43.2094 79.742 43.0728 79.9772 43.0728 80.2428L43.088 81.6692V81.7299C43.088 82.1472 43.4294 82.4886 43.8467 82.4886H47.6403C48.0576 82.4886 48.3991 82.1472 48.3991 81.7299V80.0607C48.3991 79.7648 48.2246 79.484 47.9287 79.3626L47.4886 79.1805V78.2549L49.4689 77.4127C49.7724 77.3141 49.9924 77.0258 49.9924 76.6919V75.7132L51.912 74.9393C52.2079 74.8331 52.4203 74.5523 52.4203 74.2185V71.912L60.918 66.8285V67.1623L60.9256 67.2458C60.9711 67.6631 61.3429 67.959 61.7602 67.9135L64.4461 67.6176C64.8482 67.5948 65.1669 67.2686 65.1669 66.8589V64.0743L66.4947 63.437L67.3217 63.7481V65.0076L67.1016 65.1441C66.8589 65.2731 66.6995 65.5235 66.6995 65.8118V67.2306C66.6995 67.6479 67.0409 67.9893 67.4582 67.9893H70.6525C71.0698 67.9893 71.4112 67.6479 71.4112 67.2306V65.8346C71.4112 65.5994 71.2974 65.3642 71.0925 65.2124L70.8042 65.0152L70.8118 63.6798L72.6935 62.6176C72.9135 62.4962 73.0652 62.2686 73.0804 61.9954L73.8467 47.6403ZM50 0C63.8088 0 76.305 5.59939 85.3566 14.6434C94.4006 23.6874 100 36.1912 100 50C100 63.8088 94.4006 76.305 85.3566 85.3566C76.3126 94.4006 63.8088 100 50 100C36.1912 100 23.695 94.4006 14.6434 85.3566C5.59939 76.305 0 63.8088 0 50C0 36.1912 5.59939 23.695 14.6434 14.6434C23.695 5.59939 36.1912 0 50 0ZM52.6935 44.4385L45.7435 38.8771C45.607 38.7405 45.4173 38.657 45.2124 38.657C44.7951 38.657 44.4537 38.9985 44.4537 39.4158V42.3141C44.4537 42.5417 44.5599 42.7769 44.7572 42.9211L52.2306 48.4825C52.4658 48.6874 52.8149 48.7253 53.0956 48.566L56.0394 46.8892L57.6935 47.2306C57.868 47.2686 58.0576 47.2382 58.217 47.1472L61.5554 45.22C61.7678 45.1062 61.9271 44.8862 61.9499 44.6206L62.0258 43.7557L64.4158 42.3596C64.4765 42.3293 64.5296 42.2837 64.5827 42.2306C64.871 41.9347 64.871 41.4492 64.5675 41.1608L58.1411 34.8862L64.9469 32.1396L64.3854 30.736L47.8983 37.4051L35.3111 32.1396C35.2124 32.0865 35.0986 32.0637 34.9772 32.0637C34.5599 32.0637 34.2185 32.4051 34.2185 32.8224V41.047L30.3869 39.302C30.0076 39.1275 29.5599 39.2944 29.3854 39.6737C29.3323 39.7875 29.3095 39.9014 29.3171 40.0227L29.6055 46.4112C29.613 46.6161 29.7041 46.7906 29.8331 46.9271L30.7511 47.8073L17.3976 54.2185C17.2838 54.2716 17.1927 54.3551 17.1168 54.4461L16.0926 55.8118C15.9939 55.9484 15.9408 56.1077 15.9408 56.2671V58.3384L14.8331 57.6783V55.1593L15.3262 54.2033L25.478 49.4158C25.7663 49.2792 25.9256 48.9833 25.9105 48.6874C25.6539 45.342 25.464 41.9633 25.2746 38.591C25.1783 36.8772 25.082 35.165 24.9772 33.4598L25.5235 31.9575L27.1168 31.9347L28.1715 32.2838C28.3308 32.3369 28.4977 32.3293 28.6495 32.2838L38.9833 28.7936C39.0667 28.7633 39.1502 28.7253 39.2109 28.6722L42.6935 29.5827L43.6343 33.5888C43.6874 33.8164 43.8391 33.9985 44.0364 34.0971L47.6403 36.0394C47.8604 36.1608 48.1108 36.1532 48.3232 36.0546L58.0501 32.2003C58.3384 32.0865 58.5205 31.8133 58.528 31.525L58.5584 30.6753L61.1836 29.6813C61.5023 29.5599 61.6919 29.2489 61.6692 28.9226L61.6464 26.1153L73.2853 30.0607L71.5933 61.5174L69.6965 62.5872C69.4309 62.7314 69.2944 63.0197 69.3095 63.3004L69.2944 65.4173C69.2944 65.6752 69.4233 65.9029 69.613 66.0394L69.8938 66.2367V66.4795H68.217V66.2367L68.5129 66.0546C68.7405 65.9104 68.8695 65.6677 68.8695 65.4173V63.217C68.8695 62.868 68.6343 62.5721 68.3156 62.4886L66.7526 61.9044C66.5554 61.8285 66.3429 61.8437 66.1608 61.9347L64.1123 62.9211C63.8391 63.0501 63.6874 63.3232 63.6798 63.6039V66.1912L62.4658 66.3277V65.5083C62.4658 65.091 62.1244 64.7496 61.7071 64.7496C61.5402 64.7496 61.3884 64.8027 61.267 64.8938L51.305 70.8573C51.0698 71.0015 50.9408 71.2519 50.9332 71.5098V73.7329L48.9757 74.522C48.6798 74.6434 48.5053 74.9241 48.4977 75.2276V76.2215L46.4567 77.0865C46.1684 77.2079 45.9939 77.4886 45.9939 77.7845V79.7117C45.9939 80.0455 46.2064 80.3262 46.5098 80.4324L46.9044 80.5994V81.0091H44.613L44.6054 80.6828L45.1745 80.311C45.4021 80.1593 45.5235 79.9013 45.5159 79.6434L45.5311 77.8376C45.5311 77.5038 45.3186 77.2154 45.0152 77.1168L43.4067 76.5781V73.657C43.4067 73.3687 43.2473 73.1183 43.0121 72.9893L32.959 66.7147C32.8376 66.6388 32.6935 66.6009 32.5569 66.6009H30.5463C30.129 66.6009 29.7875 66.9423 29.7875 67.3596V69.3019C29.7875 69.6358 30 69.9165 30.3035 70.0227L30.6449 70.1669V70.5007H28.5432V70.1972L28.9302 70.0379C29.2185 69.9165 29.4006 69.6358 29.4006 69.3399V67.3444C29.4006 67.0789 29.264 66.8437 29.0592 66.7147L26.4871 64.7192C26.4567 64.6965 26.4264 64.6737 26.396 64.6585L25.6297 64.2033V62.1548L26.3885 61.1457L40.5614 54.3399C40.8346 54.2109 40.9939 53.9302 40.9939 53.6419L40.9408 44.6661C40.9408 44.3627 40.7587 44.0971 40.5007 43.9833L35.7359 41.8133V33.9529L47.6024 38.9226C47.7997 39.0061 48.0197 38.9985 48.2018 38.915L56.6237 35.5159L61.1381 39.9317L52.6935 44.4385ZM62.2762 41.0394L62.8148 41.563L60.9408 42.6555C60.7056 42.7921 60.569 43.0349 60.5614 43.2853L60.4856 44.1047L57.7162 45.698L56.0622 45.3566C55.8725 45.3186 55.6904 45.3566 55.5311 45.44L53.4142 46.654L53.3839 45.7891L62.2762 41.0394ZM45.9787 41.9423V40.9939L51.874 45.7132L51.8968 46.3581L45.9787 41.9423ZM24.1123 63.2321L17.4583 59.2488V56.5174L18.217 55.5083L32.352 48.7177C32.4431 48.6798 32.5341 48.6191 32.61 48.5432C32.8983 48.2397 32.8907 47.7617 32.5872 47.4734L31.1001 46.047L30.8877 41.1988L39.4309 45.091L39.4841 53.1183L25.5842 59.7875C25.4704 59.8406 25.3718 59.9165 25.2959 60.0227L24.3095 61.3353C24.1882 61.4719 24.1123 61.6464 24.1123 61.8437V63.2321ZM33.0501 64.742L33.7177 66.1077L69.1047 48.8619L68.437 47.4962L33.0501 64.742ZM46.7071 20.5918L46.912 19.0895L39.9241 18.1032L46.7602 16.4947L49.0288 16.5933L50.3186 17.1775C50.4704 17.2458 50.6221 17.261 50.7739 17.2306L53.4901 16.7754L57.8073 15.8042L60.2124 16.434L60.0986 25.0455C60.0986 25.0986 60.1062 25.1593 60.1138 25.2124L60.1441 28.4522L57.5417 29.4385C57.261 29.5448 57.0637 29.8103 57.0561 30.1214L57.0258 30.9787L48.0576 34.5296L45.0379 32.8983L44.0667 28.7784C44.0061 28.5129 43.8012 28.2929 43.5205 28.217L39.4841 27.1624L39.3551 19.5448L46.7071 20.5918ZM59.4613 17.9211V27.2762C59.4613 27.6252 59.2261 27.9211 58.9074 28.0045L48.8012 31.7678C48.4067 31.912 47.9742 31.7147 47.83 31.3202C47.7997 31.2367 47.7845 31.1457 47.7845 31.0546V20.4628C47.7845 20.091 48.0501 19.7875 48.3991 19.7193L58.528 17.1851C58.9302 17.0865 59.3475 17.3293 59.4461 17.739C59.4537 17.7997 59.4613 17.8604 59.4613 17.9211ZM57.9438 26.7526L49.2944 29.9772V21.0546L57.9438 18.8923V26.7526ZM105.068 33.453H122.572V36.9431H115.584V57.6183H112.094V36.9431H105.068V33.453ZM144.818 43.0964C145.607 41.7989 145.607 40.1677 144.818 38.8703C144.029 37.5728 142.595 36.9431 141.062 36.9431H134.985V45.0311H141.062C142.595 45.0235 144.021 44.3938 144.818 43.0964ZM206.616 45.5319C206.616 50.4863 210.63 54.5 215.584 54.5C220.539 54.5 224.552 50.4863 224.552 45.5319C224.552 40.5774 220.539 36.5637 215.584 36.5637C210.637 36.5637 206.616 40.5774 206.616 45.5319ZM171.601 33.453V36.9431H162.17V43.7261H171.593V47.2162H162.17V54.1282H171.593V57.6183H158.68V33.453H171.601ZM195.068 33.453V36.9431H185.645V43.7261H195.068V47.2162H185.645V57.6183H182.155V33.453H195.068ZM240.455 33.453L245.781 40.934L251.108 33.453H255.114L247.837 43.8171L257.671 57.6335H253.429L245.781 46.7458L238.133 57.6335H233.892L243.725 43.8171L236.449 33.453H240.455ZM228.05 45.5319C228.05 52.4135 222.473 57.9901 215.592 57.9901C208.71 57.9901 203.133 52.4135 203.133 45.5319C203.133 38.6502 208.71 33.0736 215.592 33.0736C222.466 33.0736 228.05 38.6502 228.05 45.5319ZM141.768 33.453C145.827 33.453 149.021 36.8824 149.021 40.8202C149.021 44.2041 146.654 47.2086 143.422 47.9901L150.319 57.6108H146.009L139.355 48.1874H134.985V57.6108H131.495V33.453H141.768ZM113.574 66.4035V65.1592H105.061V66.4035H108.589V76.0469H110.061V66.4035H113.574ZM274.332 76.0621H275.796V71.5249H276.912C277.117 71.5249 277.268 71.5553 277.367 71.6084C277.466 71.6615 277.564 71.7449 277.648 71.8663L280.47 75.7586C280.599 75.9634 280.796 76.0697 281.062 76.0697H282.367L279.196 71.7449C279.051 71.5401 278.892 71.3883 278.71 71.2821C279.135 71.1835 279.507 71.0469 279.84 70.8572C280.174 70.6675 280.455 70.4399 280.683 70.1744C280.91 69.9088 281.085 69.6053 281.206 69.2715C281.328 68.9376 281.388 68.581 281.388 68.1941C281.388 67.7313 281.312 67.314 281.153 66.9422C281.001 66.5704 280.759 66.2518 280.432 65.9862C280.106 65.7282 279.689 65.5234 279.188 65.3868C278.687 65.2427 278.095 65.1744 277.405 65.1744H274.332V76.0621ZM277.337 70.4399H275.796V66.3428H277.405C278.255 66.3428 278.892 66.5097 279.317 66.836C279.742 67.1622 279.954 67.6554 279.954 68.3003C279.954 68.619 279.901 68.9073 279.787 69.1729C279.681 69.4308 279.514 69.6584 279.294 69.8481C279.074 70.0378 278.801 70.182 278.475 70.2882C278.149 70.3868 277.769 70.4399 277.337 70.4399ZM288.968 76.0545H289.567V71.1379C289.567 70.7055 289.507 70.3109 289.393 69.9543C289.279 69.5977 289.104 69.2867 288.877 69.0363C288.649 68.7859 288.369 68.5886 288.035 68.4445C287.701 68.3003 287.322 68.232 286.889 68.232C286.29 68.232 285.751 68.3307 285.258 68.5355C284.765 68.7404 284.309 69.0515 283.884 69.4612L284.127 69.8861C284.173 69.9543 284.226 70.015 284.294 70.0606C284.362 70.1061 284.438 70.1288 284.529 70.1288C284.651 70.1288 284.765 70.0833 284.886 69.9999C285.007 69.9164 285.144 69.8254 285.311 69.7191C285.478 69.6129 285.667 69.5219 285.895 69.4384C286.115 69.3549 286.396 69.317 286.722 69.317C287.223 69.317 287.602 69.4688 287.86 69.7798C288.111 70.0833 288.24 70.5386 288.24 71.1379V71.7449C287.367 71.7449 286.631 71.8208 286.032 71.9574C285.432 72.1015 284.947 72.276 284.575 72.4961C284.203 72.7161 283.93 72.9665 283.763 73.2472C283.596 73.5279 283.513 73.8238 283.513 74.1273C283.513 74.4763 283.573 74.7798 283.687 75.0378C283.801 75.2958 283.953 75.5082 284.142 75.6751C284.34 75.842 284.567 75.971 284.825 76.0545C285.083 76.1379 285.364 76.1835 285.66 76.1835C285.956 76.1835 286.221 76.1607 286.464 76.1076C286.699 76.0545 286.927 75.9786 287.139 75.88C287.352 75.7813 287.557 75.66 287.746 75.5158C287.936 75.3716 288.133 75.2047 288.338 75.0226L288.49 75.7358C288.513 75.8648 288.566 75.9559 288.649 75.9938C288.733 76.0317 288.839 76.0545 288.968 76.0545ZM286.715 75.1516C286.517 75.1971 286.297 75.2199 286.062 75.2199C285.88 75.2199 285.721 75.1971 285.569 75.1592C285.417 75.1137 285.288 75.0454 285.174 74.9543C285.061 74.8557 284.977 74.7343 284.909 74.5901C284.84 74.446 284.81 74.2715 284.81 74.0666C284.81 73.8542 284.878 73.6645 285 73.49C285.121 73.3155 285.318 73.1713 285.592 73.0424C285.865 72.9134 286.221 72.8071 286.654 72.7313C287.086 72.6478 287.617 72.6099 288.24 72.6099V74.2032C288.088 74.3625 287.936 74.5067 287.777 74.6281C287.617 74.7571 287.451 74.8633 287.276 74.9467C287.101 75.0378 286.912 75.1061 286.715 75.1516ZM293.634 78.5735C293.702 78.5128 293.755 78.4293 293.801 78.3307L298.088 68.3686H297.01C296.927 68.3686 296.851 68.3989 296.775 68.4521C296.699 68.5052 296.646 68.5735 296.616 68.6569L294.62 73.5507C294.575 73.6645 294.537 73.7783 294.499 73.8921C294.48 73.949 294.463 74.0078 294.446 74.0666C294.429 74.1254 294.412 74.1842 294.393 74.2411C294.37 74.1197 294.34 74.0059 294.309 73.8921C294.3 73.8646 294.29 73.8366 294.28 73.8081C294.251 73.7269 294.222 73.6426 294.188 73.5583L292.132 68.6569C292.101 68.581 292.056 68.5203 291.988 68.4596C291.919 68.399 291.828 68.3686 291.715 68.3686H290.546L293.718 75.66L292.314 78.6645H293.315C293.46 78.6645 293.566 78.6342 293.634 78.5735ZM113.869 68.361V76.0545H115.22V71.229C115.432 70.6827 115.698 70.273 116.017 69.9847C116.328 69.704 116.722 69.5598 117.193 69.5598C117.458 69.5598 117.663 69.5826 117.807 69.6281C117.951 69.6812 118.065 69.704 118.133 69.704C118.255 69.704 118.331 69.6433 118.369 69.5143L118.543 68.5052C118.399 68.4217 118.24 68.3534 118.065 68.3003C117.891 68.2472 117.701 68.2244 117.489 68.2244C116.973 68.2244 116.517 68.3838 116.13 68.7024C115.743 69.0211 115.417 69.4612 115.152 70.0302L115.061 68.7556C115.038 68.6114 115 68.5128 114.947 68.4521C114.894 68.3914 114.787 68.361 114.643 68.361H113.869ZM124.916 76.0545H125.516V71.1379C125.516 70.7055 125.455 70.3109 125.341 69.9543C125.228 69.5977 125.053 69.2867 124.825 69.0363C124.598 68.7859 124.317 68.5886 123.983 68.4445C123.649 68.3003 123.27 68.232 122.838 68.232C122.238 68.232 121.699 68.3307 121.206 68.5355C120.713 68.7404 120.258 69.0515 119.833 69.4612L120.076 69.8861C120.121 69.9543 120.174 70.015 120.243 70.0606C120.311 70.1061 120.387 70.1288 120.478 70.1288C120.599 70.1288 120.713 70.0833 120.835 69.9999C120.956 69.9164 121.092 69.8254 121.259 69.7191C121.426 69.6129 121.616 69.5219 121.844 69.4384C122.064 69.3549 122.344 69.317 122.671 69.317C123.171 69.317 123.551 69.4688 123.809 69.7798C124.059 70.0833 124.188 70.5386 124.188 71.1379V71.7449C123.316 71.7449 122.58 71.8208 121.98 71.9574C121.381 72.1015 120.895 72.276 120.523 72.4961C120.152 72.7161 119.879 72.9665 119.712 73.2472C119.545 73.5279 119.461 73.8238 119.461 74.1273C119.461 74.4763 119.522 74.7798 119.636 75.0378C119.75 75.2958 119.901 75.5082 120.091 75.6751C120.288 75.842 120.516 75.971 120.774 76.0545C121.032 76.1379 121.312 76.1835 121.608 76.1835C121.904 76.1835 122.17 76.1607 122.413 76.1076C122.648 76.0545 122.875 75.9786 123.088 75.88C123.3 75.7813 123.505 75.66 123.695 75.5158C123.885 75.3716 124.082 75.2047 124.287 75.0226L124.438 75.7358C124.461 75.8648 124.514 75.9559 124.598 75.9938C124.681 76.0317 124.787 76.0545 124.916 76.0545ZM122.663 75.1516C122.466 75.1971 122.246 75.2199 122.011 75.2199C121.836 75.2199 121.669 75.1971 121.517 75.1592C121.366 75.1137 121.237 75.0454 121.123 74.9543C121.009 74.8557 120.926 74.7343 120.857 74.5901C120.789 74.446 120.759 74.2715 120.759 74.0666C120.759 73.8542 120.827 73.6645 120.948 73.49C121.07 73.3155 121.267 73.1713 121.54 73.0424C121.813 72.9134 122.17 72.8071 122.602 72.7313C123.035 72.6478 123.566 72.6099 124.188 72.6099V74.2032C124.036 74.3625 123.885 74.5067 123.725 74.6281C123.566 74.7571 123.399 74.8633 123.224 74.9467C123.05 75.0378 122.86 75.1061 122.663 75.1516ZM129.241 76.0545V68.361H127.891V76.0545H129.241ZM129.469 66.3125C129.522 66.1986 129.545 66.0772 129.545 65.9483C129.545 65.8117 129.522 65.6903 129.469 65.5689C129.416 65.4475 129.347 65.3489 129.256 65.2578C129.165 65.1744 129.059 65.1061 128.945 65.053C128.831 64.9999 128.702 64.9771 128.574 64.9771C128.445 64.9771 128.323 64.9999 128.209 65.053C128.095 65.0985 127.997 65.1668 127.906 65.2578C127.815 65.3489 127.746 65.4475 127.693 65.5689C127.64 65.6903 127.618 65.8193 127.618 65.9483C127.618 66.0772 127.64 66.1986 127.693 66.3125C127.746 66.4263 127.815 66.5249 127.906 66.616C127.997 66.707 128.095 66.7753 128.209 66.8284C128.323 66.8815 128.445 66.9043 128.574 66.9043C128.702 66.9043 128.831 66.8815 128.945 66.8284C129.067 66.7753 129.165 66.707 129.256 66.616C129.347 66.5249 129.416 66.4263 129.469 66.3125ZM131.798 68.361V76.0545H133.149V70.3868C133.445 70.0606 133.763 69.795 134.112 69.6053C134.454 69.4156 134.825 69.317 135.228 69.317C135.774 69.317 136.184 69.4839 136.449 69.8026C136.715 70.1288 136.844 70.5765 136.844 71.1607V76.0621H138.194V71.1607C138.194 70.7282 138.141 70.3261 138.027 69.9695C137.921 69.6053 137.754 69.3018 137.542 69.0439C137.329 68.7859 137.056 68.5886 136.737 68.4521C136.411 68.3079 136.039 68.2396 135.622 68.2396C135.083 68.2396 134.605 68.3534 134.196 68.581C133.778 68.8087 133.407 69.1046 133.073 69.4763L132.967 68.6417C132.913 68.4521 132.792 68.361 132.602 68.361H131.798ZM141.919 76.0545V68.361H140.569V76.0545H141.919ZM142.147 66.3125C142.2 66.1986 142.223 66.0772 142.223 65.9483C142.223 65.8117 142.193 65.6903 142.147 65.5689C142.094 65.4475 142.026 65.3489 141.935 65.2578C141.844 65.1744 141.737 65.1061 141.624 65.053C141.51 64.9999 141.381 64.9771 141.252 64.9771C141.123 64.9771 141.001 64.9999 140.888 65.053C140.774 65.0985 140.675 65.1668 140.584 65.2578C140.493 65.3489 140.425 65.4475 140.372 65.5689C140.319 65.6903 140.296 65.8193 140.296 65.9483C140.296 66.0772 140.319 66.1986 140.372 66.3125C140.425 66.4263 140.493 66.5249 140.584 66.616C140.675 66.707 140.774 66.7753 140.888 66.8284C141.001 66.8815 141.123 66.9043 141.252 66.9043C141.381 66.9043 141.51 66.8815 141.624 66.8284C141.745 66.7753 141.844 66.707 141.935 66.616C142.026 66.5249 142.094 66.4263 142.147 66.3125ZM144.476 68.361V76.0545H145.827V70.3868C146.123 70.0606 146.441 69.795 146.79 69.6053C147.132 69.4156 147.504 69.317 147.906 69.317C148.452 69.317 148.862 69.4839 149.127 69.8026C149.393 70.1288 149.522 70.5765 149.522 71.1607V76.0621H150.872V71.1607C150.872 70.7282 150.819 70.3261 150.706 69.9695C150.599 69.6053 150.432 69.3018 150.22 69.0439C150.007 68.7859 149.734 68.5886 149.416 68.4521C149.089 68.3079 148.718 68.2396 148.3 68.2396C147.762 68.2396 147.284 68.3534 146.874 68.581C146.457 68.8087 146.085 69.1046 145.751 69.4763L145.645 68.6417C145.592 68.4521 145.47 68.361 145.281 68.361H144.476ZM156.616 68.3458C156.32 68.2776 156.009 68.2396 155.675 68.2396C155.25 68.2396 154.856 68.2927 154.507 68.4065C154.15 68.5279 153.839 68.6949 153.581 68.9073C153.323 69.1197 153.126 69.3853 152.982 69.6888C152.838 69.9999 152.762 70.3337 152.762 70.7131C152.762 71.1835 152.875 71.5932 153.088 71.9498C153.3 72.3064 153.596 72.5871 153.976 72.7996C153.816 72.883 153.672 72.9741 153.551 73.0803C153.429 73.1865 153.331 73.3003 153.247 73.4141C153.164 73.5279 153.095 73.6493 153.058 73.7631C153.02 73.8769 152.997 73.9983 152.997 74.1046C152.997 74.3853 153.065 74.6129 153.194 74.7798C153.323 74.9468 153.49 75.0833 153.71 75.182C153.293 75.3413 152.967 75.5537 152.724 75.8193C152.481 76.0848 152.36 76.4035 152.36 76.7829C152.36 77.056 152.435 77.314 152.572 77.5568C152.709 77.8071 152.913 78.0196 153.194 78.2093C153.475 78.3989 153.824 78.5431 154.249 78.6569C154.666 78.7707 155.159 78.8238 155.721 78.8238C156.282 78.8238 156.783 78.748 157.231 78.6038C157.678 78.4596 158.05 78.2624 158.361 78.0196C158.672 77.7768 158.907 77.4961 159.074 77.185C159.234 76.8739 159.317 76.5552 159.317 76.2214C159.317 75.8572 159.241 75.5689 159.097 75.3413C158.953 75.1137 158.756 74.9392 158.513 74.8102C158.27 74.6812 157.997 74.5901 157.686 74.5294C157.382 74.4763 157.064 74.446 156.745 74.446H155.797C155.485 74.446 155.212 74.4308 154.97 74.3853C154.727 74.3474 154.529 74.2791 154.385 74.1804C154.241 74.0894 154.165 73.9452 154.165 73.7555C154.165 73.6417 154.211 73.5279 154.294 73.4065C154.378 73.2851 154.499 73.1789 154.658 73.0727C154.977 73.1562 155.319 73.2017 155.675 73.2017C156.1 73.2017 156.487 73.141 156.836 73.0272C157.185 72.9134 157.488 72.7464 157.746 72.5264C158.004 72.3064 158.202 72.0408 158.346 71.7373C158.49 71.4263 158.558 71.0848 158.558 70.7131C158.558 70.3109 158.475 69.9392 158.3 69.6129L159.173 69.4915C159.385 69.446 159.492 69.3398 159.492 69.1729V68.6721H157.405C157.17 68.5279 156.904 68.4217 156.616 68.3458ZM157.913 75.9786C158.02 76.0924 158.073 76.2518 158.073 76.449C158.073 76.6539 158.02 76.8436 157.913 77.0257C157.807 77.1926 157.655 77.3443 157.458 77.4657C157.253 77.5947 157.01 77.6857 156.722 77.754C156.434 77.8223 156.108 77.8527 155.743 77.8527C155.372 77.8527 155.045 77.8147 154.772 77.754C154.492 77.6933 154.264 77.6023 154.082 77.4961C153.9 77.3898 153.771 77.2609 153.68 77.1091C153.589 76.9574 153.543 76.798 153.543 76.6235C153.543 76.3504 153.634 76.1152 153.816 75.9179C153.991 75.7206 154.226 75.5537 154.514 75.4172C154.765 75.4854 155.023 75.5158 155.296 75.5158H156.1C156.366 75.5158 156.616 75.531 156.851 75.5613C157.086 75.5917 157.299 75.6448 157.481 75.7055C157.663 75.7662 157.807 75.8572 157.913 75.9786ZM156.404 72.1926C156.191 72.2684 155.948 72.3064 155.675 72.3064C155.402 72.3064 155.167 72.2684 154.962 72.1926C154.757 72.1167 154.583 72.0105 154.438 71.8739C154.302 71.7298 154.196 71.5704 154.12 71.3807C154.044 71.1911 154.006 70.9786 154.006 70.751C154.006 70.2806 154.15 69.9088 154.438 69.6281C154.719 69.3474 155.136 69.2108 155.675 69.2108C156.221 69.2108 156.639 69.3474 156.927 69.6281C157.208 69.9088 157.352 70.2806 157.352 70.751C157.352 70.9786 157.314 71.1911 157.246 71.3807C157.177 71.5704 157.071 71.7373 156.927 71.8739C156.79 72.0105 156.616 72.1167 156.404 72.1926ZM171.267 66.3732V65.1744H164.567V76.0545H171.267V74.8557H166.047V71.1379H170.273V69.9847H166.047V66.3732H171.267ZM177.466 69.8026C177.595 69.8026 177.686 69.7495 177.746 69.6357L178.05 69.1425C177.762 68.8618 177.413 68.6417 177.01 68.4824C176.608 68.3231 176.153 68.2396 175.645 68.2396C175.212 68.2396 174.825 68.3003 174.484 68.4217C174.143 68.5431 173.862 68.71 173.627 68.9149C173.391 69.1197 173.217 69.3549 173.095 69.6281C172.974 69.9012 172.913 70.182 172.913 70.4779C172.913 70.8117 172.974 71.0924 173.088 71.32C173.202 71.5552 173.346 71.7449 173.536 71.9043C173.725 72.056 173.938 72.185 174.18 72.2912C174.423 72.3974 174.666 72.4885 174.916 72.5719C175.167 72.6478 175.41 72.7237 175.652 72.7996C175.888 72.8678 176.1 72.9589 176.29 73.0575C176.479 73.1562 176.631 73.2776 176.745 73.4141C176.859 73.5507 176.912 73.7252 176.912 73.9376C176.912 74.1046 176.882 74.2715 176.821 74.4232C176.753 74.575 176.654 74.7115 176.525 74.8254C176.396 74.9392 176.229 75.0302 176.032 75.0985C175.834 75.1668 175.607 75.2047 175.341 75.2047C175.038 75.2047 174.78 75.1668 174.575 75.0985C174.37 75.0302 174.196 74.9467 174.051 74.8633C173.907 74.7798 173.778 74.6964 173.68 74.6281C173.581 74.5598 173.482 74.5219 173.391 74.5219C173.3 74.5219 173.224 74.537 173.171 74.575C173.118 74.6129 173.065 74.6584 173.027 74.7267L172.709 75.2578C173.012 75.5234 173.384 75.7434 173.816 75.9179C174.249 76.0924 174.734 76.1759 175.273 76.1759C175.743 76.1759 176.161 76.1152 176.517 75.9862C176.874 75.8572 177.177 75.6827 177.428 75.4627C177.678 75.2427 177.86 74.9847 177.989 74.6812C178.118 74.3853 178.179 74.059 178.179 73.7024C178.179 73.3914 178.126 73.1258 178.012 72.9058C177.898 72.6858 177.746 72.5037 177.557 72.3519C177.367 72.2002 177.155 72.0712 176.919 71.9725C176.684 71.8663 176.441 71.7753 176.191 71.6918C176.037 71.6406 175.884 71.5923 175.734 71.545C175.639 71.5153 175.546 71.4859 175.455 71.4566C175.22 71.3883 175.007 71.3049 174.818 71.2062C174.636 71.1076 174.484 70.9938 174.37 70.8648C174.256 70.7358 174.196 70.5689 174.196 70.3716C174.196 70.2123 174.234 70.0681 174.302 69.9316C174.37 69.8026 174.469 69.6812 174.598 69.5826C174.727 69.4763 174.878 69.4005 175.061 69.3398C175.243 69.2867 175.448 69.2563 175.675 69.2563C175.941 69.2563 176.168 69.2791 176.358 69.3398C176.555 69.4005 176.722 69.4612 176.859 69.5294C176.949 69.5743 177.029 69.6193 177.101 69.6598C177.138 69.681 177.174 69.7009 177.208 69.7191C177.306 69.7722 177.39 69.8026 177.466 69.8026ZM184.226 69.8026C184.355 69.8026 184.446 69.7495 184.507 69.6357L184.81 69.1425C184.522 68.8618 184.173 68.6417 183.771 68.4824C183.369 68.3231 182.913 68.2396 182.405 68.2396C181.973 68.2396 181.586 68.3003 181.244 68.4217C180.903 68.5431 180.622 68.71 180.387 68.9149C180.152 69.1197 179.977 69.3549 179.856 69.6281C179.734 69.9012 179.674 70.182 179.674 70.4779C179.674 70.8117 179.734 71.0924 179.848 71.32C179.962 71.5552 180.106 71.7449 180.296 71.9043C180.485 72.056 180.698 72.185 180.941 72.2912C181.183 72.3974 181.426 72.4885 181.677 72.5719C181.927 72.6478 182.17 72.7237 182.413 72.7996C182.648 72.8678 182.86 72.9589 183.05 73.0575C183.24 73.1562 183.391 73.2776 183.505 73.4141C183.619 73.5507 183.672 73.7252 183.672 73.9376C183.672 74.1046 183.642 74.2715 183.581 74.4232C183.513 74.575 183.414 74.7115 183.285 74.8254C183.156 74.9392 182.989 75.0302 182.792 75.0985C182.595 75.1668 182.367 75.2047 182.102 75.2047C181.798 75.2047 181.54 75.1668 181.335 75.0985C181.13 75.0302 180.956 74.9467 180.812 74.8633C180.668 74.7798 180.539 74.6964 180.44 74.6281C180.341 74.5598 180.243 74.5219 180.152 74.5219C180.061 74.5219 179.985 74.537 179.932 74.575C179.878 74.6129 179.825 74.6584 179.787 74.7267L179.469 75.2578C179.772 75.5234 180.144 75.7434 180.576 75.9179C181.009 76.0924 181.495 76.1759 182.033 76.1759C182.504 76.1759 182.921 76.1152 183.278 75.9862C183.634 75.8572 183.938 75.6827 184.188 75.4627C184.438 75.2427 184.62 74.9847 184.749 74.6812C184.878 74.3853 184.939 74.059 184.939 73.7024C184.939 73.3914 184.886 73.1258 184.772 72.9058C184.658 72.6858 184.507 72.5037 184.317 72.3519C184.127 72.2002 183.915 72.0712 183.68 71.9725C183.444 71.8663 183.202 71.7753 182.951 71.6918C182.798 71.6406 182.644 71.5923 182.494 71.545C182.399 71.5153 182.306 71.4859 182.215 71.4566C181.98 71.3883 181.768 71.3049 181.578 71.2062C181.396 71.1076 181.244 70.9938 181.13 70.8648C181.017 70.7358 180.956 70.5689 180.956 70.3716C180.956 70.2123 180.994 70.0681 181.062 69.9316C181.13 69.8026 181.229 69.6812 181.358 69.5826C181.487 69.4763 181.639 69.4005 181.821 69.3398C182.003 69.2867 182.208 69.2563 182.435 69.2563C182.701 69.2563 182.929 69.2791 183.118 69.3398C183.316 69.4005 183.482 69.4612 183.619 69.5294C183.709 69.5744 183.789 69.6193 183.861 69.6599C183.899 69.681 183.934 69.701 183.968 69.7191C184.067 69.7722 184.15 69.8026 184.226 69.8026ZM191.183 68.4748C190.797 68.3155 190.372 68.2396 189.909 68.2396C189.355 68.2396 188.854 68.3383 188.407 68.5128C187.959 68.71 187.587 68.9756 187.276 69.317C186.973 69.6584 186.737 70.0681 186.57 70.531C186.404 70.9938 186.32 71.4946 186.32 72.0332C186.32 72.6933 186.411 73.2851 186.593 73.7935C186.775 74.3094 187.033 74.7343 187.359 75.0833C187.686 75.4323 188.073 75.6903 188.52 75.8724C188.968 76.0545 189.454 76.1455 189.985 76.1455C190.265 76.1455 190.546 76.1228 190.827 76.0772C191.115 76.0317 191.388 75.9558 191.654 75.8648C191.919 75.7738 192.162 75.6524 192.397 75.5006C192.633 75.3489 192.83 75.1744 192.997 74.9771L192.617 74.4839C192.557 74.4005 192.473 74.3549 192.359 74.3549C192.276 74.3549 192.177 74.3929 192.056 74.4763C191.935 74.5522 191.783 74.6357 191.608 74.7267C191.434 74.8178 191.221 74.9088 190.979 74.9847C190.728 75.0681 190.44 75.1061 190.098 75.1061C189.734 75.1061 189.408 75.0454 189.112 74.924C188.816 74.8026 188.566 74.6281 188.353 74.3853C188.141 74.1425 187.974 73.8466 187.853 73.4824C187.731 73.1258 187.663 72.7009 187.655 72.2153H192.769C192.898 72.2153 192.982 72.1774 193.027 72.1091C193.073 72.0408 193.095 71.8967 193.095 71.6842C193.095 71.1379 193.02 70.6448 192.86 70.2199C192.701 69.795 192.473 69.4308 192.193 69.1425C191.912 68.8542 191.57 68.6266 191.183 68.4748ZM188.399 69.8026C188.771 69.4308 189.287 69.2411 189.939 69.2411C190.25 69.2411 190.523 69.2867 190.766 69.3929C191.001 69.4991 191.206 69.6433 191.373 69.8329C191.54 70.0226 191.669 70.2502 191.753 70.5082C191.836 70.7662 191.882 71.0545 191.882 71.3656H187.701C187.792 70.6979 188.027 70.1744 188.399 69.8026ZM195 68.361V76.0545H196.35V70.3868C196.646 70.0606 196.965 69.795 197.314 69.6053C197.655 69.4156 198.027 69.317 198.429 69.317C198.976 69.317 199.385 69.4839 199.651 69.8026C199.916 70.1288 200.045 70.5765 200.045 71.1607V76.0621H201.396V71.1607C201.396 70.7282 201.343 70.3261 201.229 69.9695C201.123 69.6053 200.956 69.3018 200.743 69.0439C200.531 68.7859 200.258 68.5886 199.939 68.4521C199.613 68.3079 199.241 68.2396 198.824 68.2396C198.285 68.2396 197.807 68.3534 197.397 68.581C196.98 68.8087 196.608 69.1046 196.275 69.4763L196.168 68.6417C196.115 68.4521 195.994 68.361 195.804 68.361H195ZM204.545 75.6675C204.871 76.009 205.334 76.1759 205.941 76.1759C206.29 76.1759 206.624 76.1152 206.957 76.0014C207.284 75.8724 207.564 75.7055 207.8 75.493L207.405 74.8405C207.352 74.7571 207.284 74.7115 207.215 74.7115C207.177 74.7115 207.132 74.7267 207.079 74.7647C207.026 74.8026 206.957 74.8481 206.882 74.8936C206.806 74.9392 206.722 74.9771 206.616 75.015C206.51 75.053 206.388 75.0757 206.244 75.0757C205.994 75.0757 205.797 74.9999 205.637 74.8405C205.478 74.6812 205.402 74.446 205.402 74.1197V69.4991H207.602V68.5203H205.402V65.8724H204.719C204.636 65.8724 204.56 65.8952 204.507 65.9407C204.454 65.9938 204.416 66.0545 204.408 66.1304L204.097 68.5052L202.837 68.6645V69.2032C202.837 69.3018 202.868 69.3777 202.921 69.4232C202.974 69.4763 203.042 69.4991 203.126 69.4991H204.051V74.2032C204.051 74.8405 204.218 75.3261 204.545 75.6675ZM210.948 76.0545V68.361H209.598V76.0545H210.948ZM211.176 66.3125C211.229 66.1986 211.252 66.0772 211.252 65.9483C211.252 65.8117 211.229 65.6903 211.176 65.5689C211.123 65.4475 211.054 65.3489 210.963 65.2578C210.872 65.1744 210.766 65.1061 210.652 65.053C210.539 64.9999 210.41 64.9771 210.281 64.9771C210.152 64.9771 210.03 64.9999 209.916 65.053C209.803 65.0985 209.704 65.1668 209.613 65.2578C209.522 65.3489 209.454 65.4475 209.4 65.5689C209.347 65.6903 209.325 65.8193 209.325 65.9483C209.325 66.0772 209.347 66.1986 209.4 66.3125C209.454 66.4263 209.522 66.5249 209.613 66.616C209.704 66.707 209.803 66.7753 209.916 66.8284C210.03 66.8815 210.152 66.9043 210.281 66.9043C210.41 66.9043 210.539 66.8815 210.652 66.8284C210.774 66.7753 210.872 66.707 210.963 66.616C211.054 66.5249 211.123 66.4263 211.176 66.3125ZM218.551 76.0545H219.15V71.1379C219.15 70.7055 219.089 70.3109 218.976 69.9543C218.862 69.5977 218.687 69.2867 218.46 69.0363C218.232 68.7859 217.951 68.5886 217.617 68.4445C217.284 68.3003 216.904 68.232 216.472 68.232C215.872 68.232 215.334 68.3307 214.841 68.5355C214.347 68.7404 213.892 69.0515 213.467 69.4612L213.71 69.8861C213.756 69.9543 213.809 70.015 213.877 70.0606C213.945 70.1061 214.021 70.1288 214.112 70.1288C214.234 70.1288 214.347 70.0833 214.469 69.9999C214.59 69.9164 214.727 69.8254 214.894 69.7191C215.061 69.6129 215.25 69.5219 215.478 69.4384C215.698 69.3549 215.979 69.317 216.305 69.317C216.806 69.317 217.185 69.4688 217.443 69.7798C217.693 70.0833 217.822 70.5386 217.822 71.1379V71.7449C216.95 71.7449 216.214 71.8132 215.614 71.9574C215.015 72.1015 214.529 72.276 214.158 72.4961C213.786 72.7161 213.513 72.9665 213.346 73.2472C213.179 73.5279 213.095 73.8238 213.095 74.1273C213.095 74.4763 213.156 74.7798 213.27 75.0378C213.384 75.2958 213.536 75.5082 213.725 75.6751C213.922 75.842 214.15 75.971 214.408 76.0545C214.666 76.1379 214.947 76.1835 215.243 76.1835C215.539 76.1835 215.804 76.1607 216.047 76.1076C216.282 76.0545 216.51 75.9786 216.722 75.88C216.935 75.7813 217.139 75.66 217.329 75.5158C217.519 75.3716 217.716 75.2047 217.921 75.0226L218.073 75.7358C218.095 75.8648 218.149 75.9559 218.232 75.9938C218.315 76.0317 218.422 76.0545 218.551 76.0545ZM216.297 75.1516C216.1 75.1971 215.88 75.2199 215.645 75.2199C215.47 75.2199 215.303 75.1971 215.152 75.1592C215 75.1137 214.871 75.0454 214.757 74.9543C214.643 74.8557 214.56 74.7343 214.492 74.5901C214.423 74.446 214.393 74.2715 214.393 74.0666C214.393 73.8542 214.461 73.6645 214.583 73.49C214.704 73.3155 214.901 73.1713 215.174 73.0424C215.447 72.9134 215.804 72.8071 216.237 72.7313C216.669 72.6478 217.2 72.6099 217.822 72.6099V74.2032C217.671 74.3625 217.519 74.5067 217.359 74.6281C217.2 74.7571 217.033 74.8633 216.859 74.9467C216.684 75.0378 216.495 75.1061 216.297 75.1516ZM222.875 76.0545V64.8709H221.525V76.0545H222.875ZM229.552 69.8026C229.681 69.8026 229.772 69.7495 229.833 69.6357L230.136 69.1425C229.848 68.8618 229.499 68.6417 229.097 68.4824C228.695 68.3231 228.24 68.2396 227.731 68.2396C227.299 68.2396 226.912 68.3003 226.57 68.4217C226.229 68.5431 225.948 68.71 225.713 68.9149C225.478 69.1197 225.303 69.3549 225.182 69.6281C225.061 69.9012 225 70.182 225 70.4779C225 70.8117 225.061 71.0924 225.174 71.32C225.288 71.5552 225.432 71.7449 225.622 71.9043C225.812 72.056 226.024 72.185 226.267 72.2912C226.51 72.3974 226.753 72.4885 227.003 72.5719C227.253 72.6478 227.496 72.7237 227.739 72.7996C227.974 72.8678 228.186 72.9589 228.376 73.0575C228.566 73.1562 228.718 73.2776 228.831 73.4141C228.945 73.5507 228.998 73.7252 228.998 73.9376C228.998 74.1046 228.968 74.2715 228.907 74.4232C228.839 74.575 228.74 74.7115 228.611 74.8254C228.482 74.9392 228.315 75.0302 228.118 75.0985C227.921 75.1668 227.693 75.2047 227.428 75.2047C227.124 75.2047 226.866 75.1668 226.661 75.0985C226.457 75.0302 226.282 74.9467 226.138 74.8633C225.994 74.7798 225.865 74.6964 225.766 74.6281C225.668 74.5598 225.569 74.5219 225.478 74.5219C225.387 74.5219 225.311 74.537 225.258 74.575C225.205 74.6129 225.152 74.6584 225.114 74.7267L224.795 75.2578C225.098 75.5234 225.47 75.7434 225.903 75.9179C226.335 76.0924 226.821 76.1759 227.359 76.1759C227.83 76.1759 228.247 76.1152 228.604 75.9862C228.96 75.8572 229.264 75.6827 229.514 75.4627C229.765 75.2427 229.947 74.9847 230.076 74.6812C230.205 74.3853 230.265 74.059 230.265 73.7024C230.265 73.3914 230.212 73.1258 230.098 72.9058C229.985 72.6858 229.833 72.5037 229.643 72.3519C229.454 72.2002 229.241 72.0712 229.006 71.9725C228.771 71.8663 228.528 71.7753 228.278 71.6918C228.124 71.6406 227.97 71.5922 227.82 71.5449C227.725 71.5152 227.632 71.4859 227.542 71.4566C227.306 71.3883 227.094 71.3049 226.904 71.2062C226.722 71.1076 226.57 70.9938 226.457 70.8648C226.343 70.7358 226.282 70.5689 226.282 70.3716C226.282 70.2123 226.32 70.0681 226.388 69.9316C226.457 69.8026 226.555 69.6812 226.684 69.5826C226.813 69.4763 226.965 69.4005 227.147 69.3398C227.329 69.2867 227.534 69.2563 227.762 69.2563C228.027 69.2563 228.255 69.2791 228.444 69.3398C228.642 69.4005 228.809 69.4612 228.945 69.5294C229.035 69.5744 229.115 69.6193 229.187 69.6599C229.225 69.681 229.26 69.701 229.294 69.7191C229.393 69.7722 229.476 69.8026 229.552 69.8026ZM235.842 69.5219V76.0621H237.2V69.4991H239.378V68.5128H237.155V67.8147C237.155 67.4885 237.193 67.2153 237.268 66.9953C237.337 66.7677 237.443 66.5932 237.58 66.4566C237.716 66.32 237.883 66.2214 238.073 66.1607C238.262 66.1 238.467 66.0697 238.702 66.0697H238.938C239.082 66.0697 239.196 66.0621 239.279 66.0393C239.363 66.0166 239.4 65.9559 239.408 65.8572L239.438 65.182C239.142 65.0757 238.824 65.0226 238.482 65.0226C238.08 65.0226 237.716 65.0833 237.39 65.2047C237.071 65.3261 236.79 65.5006 236.563 65.7358C236.335 65.971 236.153 66.2593 236.032 66.6008C235.903 66.9422 235.842 67.3291 235.842 67.7692V68.5128H234.628V69.0666C234.628 69.1729 234.666 69.2487 234.734 69.3018C234.803 69.3549 234.886 69.4005 234.992 69.4232L235.842 69.5219ZM245.463 68.5279C245.007 68.3382 244.499 68.2472 243.938 68.2472C243.376 68.2472 242.868 68.3382 242.42 68.5279C241.965 68.7176 241.578 68.9832 241.259 69.3246C240.941 69.666 240.698 70.0833 240.523 70.5689C240.349 71.0621 240.265 71.6084 240.265 72.2077C240.265 72.8147 240.349 73.361 240.523 73.8466C240.698 74.3322 240.941 74.7495 241.259 75.0909C241.578 75.4323 241.965 75.6979 242.42 75.88C242.868 76.0697 243.376 76.1607 243.938 76.1607C244.499 76.1607 245.007 76.0621 245.463 75.88C245.918 75.6979 246.297 75.4323 246.616 75.0909C246.935 74.7495 247.177 74.3322 247.344 73.8466C247.511 73.361 247.595 72.8147 247.595 72.2077C247.595 71.6008 247.511 71.0545 247.344 70.5689C247.177 70.0833 246.935 69.666 246.616 69.3246C246.297 68.9832 245.918 68.7176 245.463 68.5279ZM245.637 74.3398C245.265 74.8481 244.696 75.1061 243.938 75.1061C243.551 75.1061 243.217 75.0378 242.936 74.9164C242.655 74.7798 242.42 74.5901 242.23 74.3474C242.041 74.097 241.897 73.7935 241.806 73.4369C241.707 73.0803 241.661 72.6706 241.661 72.2153C241.661 71.7601 241.715 71.3504 241.806 70.9862C241.897 70.622 242.041 70.3185 242.23 70.0681C242.42 69.8178 242.655 69.6281 242.936 69.4991C243.217 69.3701 243.551 69.3018 243.938 69.3018C244.696 69.3018 245.265 69.5598 245.637 70.0681C246.009 70.5765 246.199 71.2897 246.199 72.2077C246.199 73.1182 246.009 73.8314 245.637 74.3398ZM250.212 68.361H249.438V76.0545H250.789V71.229C251.001 70.6827 251.267 70.273 251.586 69.9847C251.897 69.704 252.291 69.5598 252.762 69.5598C253.027 69.5598 253.232 69.5826 253.376 69.6281C253.52 69.6812 253.634 69.704 253.702 69.704C253.824 69.704 253.9 69.6433 253.938 69.5143L254.112 68.5052C253.968 68.4217 253.809 68.3534 253.634 68.3003C253.46 68.2472 253.27 68.2244 253.057 68.2244C252.542 68.2244 252.086 68.3838 251.699 68.7024C251.312 69.0211 250.986 69.4612 250.721 70.0302L250.63 68.7556C250.607 68.6114 250.569 68.5128 250.516 68.4521C250.463 68.3914 250.356 68.361 250.212 68.361ZM258.217 65.1744L261.806 70.5461L258.065 76.0545H259.431C259.537 76.0545 259.62 76.0241 259.681 75.9634C259.734 75.9103 259.787 75.842 259.833 75.7738L262.671 71.5173C262.724 71.4187 262.769 71.32 262.807 71.2138L265.721 75.7738C265.766 75.842 265.819 75.9027 265.88 75.9634C265.941 76.0241 266.024 76.0545 266.138 76.0545H267.595L263.869 70.4854L267.473 65.1744H266.07C265.994 65.1744 265.933 65.1895 265.88 65.2351C265.827 65.2806 265.774 65.3413 265.728 65.4096L263.05 69.3853C262.982 69.5143 262.928 69.6281 262.891 69.7343L260.053 65.3792C260.015 65.3109 259.969 65.2654 259.916 65.2275C259.863 65.1895 259.787 65.1744 259.681 65.1744H258.217ZM271.927 70.9255H268.179V72.0788H271.927V70.9255Z" fill="#197FE5"/>
</svg>
