<svg width="320" height="40" viewBox="0 0 320 40" fill="none" xmlns="http://www.w3.org/2000/svg">
<path d="M140.969 11V3H143.672C144.299 3 144.813 3.11328 145.211 3.33984C145.612 3.5638 145.909 3.86719 146.102 4.25C146.294 4.63281 146.391 5.0599 146.391 5.53125C146.391 6.0026 146.294 6.43099 146.102 6.81641C145.911 7.20182 145.617 7.50911 145.219 7.73828C144.82 7.96484 144.31 8.07812 143.688 8.07812H141.75V7.21875H143.656C144.086 7.21875 144.431 7.14453 144.691 6.99609C144.952 6.84766 145.141 6.64714 145.258 6.39453C145.378 6.13932 145.438 5.85156 145.438 5.53125C145.438 5.21094 145.378 4.92448 145.258 4.67187C145.141 4.41927 144.951 4.22135 144.688 4.07812C144.424 3.93229 144.076 3.85937 143.641 3.85937H141.938V11H140.969ZM149.947 11.125C149.369 11.125 148.871 10.9974 148.451 10.7422C148.035 10.4844 147.713 10.125 147.486 9.66406C147.262 9.20052 147.15 8.66146 147.15 8.04688C147.15 7.43229 147.262 6.89062 147.486 6.42187C147.713 5.95052 148.028 5.58333 148.432 5.32031C148.838 5.05469 149.312 4.92188 149.854 4.92188C150.166 4.92188 150.475 4.97396 150.779 5.07812C151.084 5.18229 151.361 5.35156 151.611 5.58594C151.861 5.81771 152.061 6.125 152.209 6.50781C152.358 6.89062 152.432 7.36198 152.432 7.92187V8.3125H147.807V7.51562H151.494C151.494 7.17708 151.427 6.875 151.291 6.60937C151.158 6.34375 150.968 6.13411 150.721 5.98047C150.476 5.82682 150.187 5.75 149.854 5.75C149.486 5.75 149.169 5.84115 148.9 6.02344C148.635 6.20312 148.43 6.4375 148.287 6.72656C148.144 7.01562 148.072 7.32552 148.072 7.65625V8.1875C148.072 8.64063 148.15 9.02474 148.307 9.33984C148.466 9.65234 148.686 9.89062 148.967 10.0547C149.248 10.2161 149.575 10.2969 149.947 10.2969C150.19 10.2969 150.408 10.263 150.604 10.1953C150.802 10.125 150.972 10.0208 151.115 9.88281C151.259 9.74219 151.369 9.56771 151.447 9.35937L152.338 9.60938C152.244 9.91146 152.087 10.1771 151.865 10.4062C151.644 10.6328 151.371 10.8099 151.045 10.9375C150.719 11.0625 150.354 11.125 149.947 11.125ZM155.942 11.125C155.379 11.125 154.895 10.9922 154.488 10.7266C154.082 10.4609 153.77 10.0951 153.551 9.62891C153.332 9.16276 153.223 8.63021 153.223 8.03125C153.223 7.42187 153.335 6.88411 153.559 6.41797C153.785 5.94922 154.1 5.58333 154.504 5.32031C154.91 5.05469 155.384 4.92188 155.926 4.92188C156.348 4.92188 156.728 5 157.067 5.15625C157.405 5.3125 157.682 5.53125 157.899 5.8125C158.115 6.09375 158.249 6.42187 158.301 6.79687H157.379C157.309 6.52344 157.153 6.28125 156.91 6.07031C156.671 5.85677 156.348 5.75 155.942 5.75C155.582 5.75 155.267 5.84375 154.996 6.03125C154.728 6.21615 154.518 6.47786 154.367 6.81641C154.219 7.15234 154.145 7.54687 154.145 8C154.145 8.46354 154.218 8.86719 154.363 9.21094C154.512 9.55469 154.72 9.82161 154.988 10.0117C155.259 10.2018 155.577 10.2969 155.942 10.2969C156.181 10.2969 156.399 10.2552 156.594 10.1719C156.789 10.0885 156.955 9.96875 157.09 9.8125C157.225 9.65625 157.322 9.46875 157.379 9.25H158.301C158.249 9.60417 158.12 9.92318 157.914 10.207C157.711 10.4883 157.442 10.7122 157.106 10.8789C156.772 11.043 156.384 11.125 155.942 11.125ZM159.319 11V5H164.037V11H163.115V5.85937H160.24V11H159.319ZM165.77 13.25C165.614 13.25 165.474 13.237 165.352 13.2109C165.229 13.1875 165.145 13.1641 165.098 13.1406L165.332 12.3281C165.556 12.3854 165.754 12.4063 165.926 12.3906C166.098 12.375 166.25 12.2982 166.383 12.1602C166.519 12.0247 166.642 11.8047 166.754 11.5L166.926 11.0313L164.707 5H165.707L167.364 9.78125H167.426L169.082 5H170.082L167.535 11.875C167.421 12.1849 167.279 12.4414 167.11 12.6445C166.94 12.8503 166.744 13.0026 166.52 13.1016C166.298 13.2005 166.048 13.25 165.77 13.25ZM175.422 2.75L175.891 3.3125C175.709 3.48958 175.498 3.61328 175.258 3.68359C175.019 3.75391 174.748 3.79687 174.446 3.8125C174.144 3.82812 173.808 3.84375 173.438 3.85937C173.021 3.875 172.676 3.97656 172.403 4.16406C172.129 4.35156 171.918 4.6224 171.77 4.97656C171.621 5.33073 171.526 5.76562 171.485 6.28125H171.563C171.766 5.90625 172.047 5.63021 172.407 5.45312C172.766 5.27604 173.151 5.1875 173.563 5.1875C174.032 5.1875 174.454 5.29687 174.829 5.51562C175.204 5.73437 175.5 6.05859 175.719 6.48828C175.938 6.91797 176.047 7.44792 176.047 8.07812C176.047 8.70573 175.935 9.2474 175.711 9.70312C175.49 10.1589 175.179 10.5104 174.778 10.7578C174.379 11.0026 173.912 11.125 173.375 11.125C172.839 11.125 172.369 10.9987 171.965 10.7461C171.562 10.4909 171.248 10.1133 171.024 9.61328C170.8 9.11068 170.688 8.48958 170.688 7.75V7.10937C170.688 5.77344 170.914 4.76042 171.368 4.07031C171.823 3.38021 172.508 3.02344 173.422 3C173.745 2.98958 174.033 2.98698 174.286 2.99219C174.538 2.9974 174.758 2.98568 174.946 2.95703C175.133 2.92839 175.292 2.85937 175.422 2.75ZM173.375 10.2969C173.737 10.2969 174.049 10.2057 174.309 10.0234C174.572 9.84115 174.774 9.58464 174.914 9.25391C175.055 8.92057 175.125 8.52865 175.125 8.07812C175.125 7.64062 175.054 7.26823 174.911 6.96094C174.77 6.65365 174.568 6.41927 174.305 6.25781C174.042 6.09635 173.727 6.01562 173.36 6.01562C173.092 6.01562 172.851 6.0612 172.637 6.15234C172.424 6.24349 172.241 6.3776 172.09 6.55469C171.939 6.73177 171.822 6.94792 171.739 7.20312C171.658 7.45833 171.615 7.75 171.61 8.07812C171.61 8.75 171.767 9.28776 172.082 9.69141C172.398 10.0951 172.829 10.2969 173.375 10.2969ZM176.596 11V10.1406H176.815C176.995 10.1406 177.144 10.1055 177.264 10.0352C177.384 9.96224 177.48 9.83594 177.553 9.65625C177.629 9.47396 177.686 9.22135 177.725 8.89844C177.767 8.57292 177.797 8.15885 177.815 7.65625L177.924 5H181.924V11H181.002V5.85937H178.799L178.706 8C178.685 8.49219 178.64 8.92578 178.573 9.30078C178.508 9.67318 178.407 9.98568 178.272 10.2383C178.139 10.4909 177.962 10.681 177.741 10.8086C177.519 10.9362 177.242 11 176.909 11H176.596ZM184.208 9.64062L187.098 5H188.161V11H187.239V6.35938L184.364 11H183.286V5H184.208V9.64062ZM189.519 11V5H190.441V7.60937H191.05L193.207 5H194.394L191.972 7.89062L194.425 11H193.238L191.269 8.46875H190.441V11H189.519ZM196.863 11.1406C196.483 11.1406 196.138 11.069 195.828 10.9258C195.518 10.7799 195.272 10.5703 195.09 10.2969C194.907 10.0208 194.816 9.6875 194.816 9.29687C194.816 8.95312 194.884 8.67448 195.019 8.46094C195.155 8.24479 195.336 8.07552 195.562 7.95312C195.789 7.83073 196.039 7.73958 196.312 7.67969C196.588 7.61719 196.866 7.56771 197.144 7.53125C197.509 7.48437 197.804 7.44922 198.031 7.42578C198.26 7.39974 198.427 7.35677 198.531 7.29687C198.638 7.23698 198.691 7.13281 198.691 6.98437V6.95312C198.691 6.56771 198.586 6.26823 198.375 6.05469C198.166 5.84115 197.85 5.73437 197.426 5.73437C196.985 5.73437 196.64 5.83073 196.39 6.02344C196.14 6.21615 195.965 6.42187 195.863 6.64062L194.988 6.32812C195.144 5.96354 195.353 5.67969 195.613 5.47656C195.876 5.27083 196.162 5.1276 196.472 5.04687C196.785 4.96354 197.092 4.92188 197.394 4.92188C197.587 4.92188 197.808 4.94531 198.058 4.99219C198.311 5.03646 198.554 5.12891 198.789 5.26953C199.026 5.41016 199.222 5.6224 199.379 5.90625C199.535 6.1901 199.613 6.57031 199.613 7.04688V11H198.691V10.1875H198.644C198.582 10.3177 198.478 10.457 198.332 10.6055C198.186 10.7539 197.992 10.8802 197.75 10.9844C197.508 11.0885 197.212 11.1406 196.863 11.1406ZM197.004 10.3125C197.368 10.3125 197.676 10.2409 197.926 10.0977C198.178 9.95443 198.368 9.76953 198.496 9.54297C198.626 9.31641 198.691 9.07812 198.691 8.82812V7.98437C198.652 8.03125 198.566 8.07422 198.433 8.11328C198.303 8.14974 198.152 8.18229 197.98 8.21094C197.811 8.23698 197.646 8.26042 197.484 8.28125C197.325 8.29948 197.196 8.3151 197.097 8.32812C196.858 8.35937 196.634 8.41016 196.426 8.48047C196.22 8.54818 196.053 8.65104 195.926 8.78906C195.801 8.92448 195.738 9.10937 195.738 9.34375C195.738 9.66406 195.856 9.90625 196.093 10.0703C196.333 10.2318 196.636 10.3125 197.004 10.3125ZM204.981 7.57812V8.4375H201.669V7.57812H204.981ZM201.888 5V11H200.966V5H201.888ZM205.684 5V11H204.763V5H205.684ZM209.475 11.125C208.913 11.125 208.429 10.9922 208.022 10.7266C207.616 10.4609 207.304 10.0951 207.085 9.62891C206.866 9.16276 206.757 8.63021 206.757 8.03125C206.757 7.42187 206.869 6.88411 207.093 6.41797C207.319 5.94922 207.634 5.58333 208.038 5.32031C208.444 5.05469 208.918 4.92188 209.46 4.92188C209.882 4.92188 210.262 5 210.6 5.15625C210.939 5.3125 211.216 5.53125 211.433 5.8125C211.649 6.09375 211.783 6.42187 211.835 6.79687H210.913C210.843 6.52344 210.686 6.28125 210.444 6.07031C210.205 5.85677 209.882 5.75 209.475 5.75C209.116 5.75 208.801 5.84375 208.53 6.03125C208.262 6.21615 208.052 6.47786 207.901 6.81641C207.753 7.15234 207.679 7.54687 207.679 8C207.679 8.46354 207.752 8.86719 207.897 9.21094C208.046 9.55469 208.254 9.82161 208.522 10.0117C208.793 10.2018 209.111 10.2969 209.475 10.2969C209.715 10.2969 209.933 10.2552 210.128 10.1719C210.323 10.0885 210.488 9.96875 210.624 9.8125C210.759 9.65625 210.856 9.46875 210.913 9.25H211.835C211.783 9.60417 211.654 9.92318 211.448 10.207C211.245 10.4883 210.975 10.7122 210.64 10.8789C210.306 11.043 209.918 11.125 209.475 11.125ZM212.853 11V5H213.774V7.60937H214.384L216.54 5H217.728L215.306 7.89062L217.759 11H216.571L214.603 8.46875H213.774V11H212.853ZM219.353 9.64062L222.243 5H223.306V11H222.384V6.35938L219.509 11H218.431V5H219.353V9.64062ZM225.586 9.64062L228.477 5H229.539V11H228.617V6.35938L225.742 11H224.664V5H225.586V9.64062ZM227.867 3H228.727C228.727 3.42187 228.581 3.76693 228.289 4.03516C227.998 4.30339 227.602 4.4375 227.102 4.4375C226.609 4.4375 226.218 4.30339 225.926 4.03516C225.637 3.76693 225.492 3.42187 225.492 3H226.352C226.352 3.20312 226.408 3.38151 226.52 3.53516C226.634 3.6888 226.828 3.76562 227.102 3.76562C227.375 3.76562 227.57 3.6888 227.688 3.53516C227.807 3.38151 227.867 3.20312 227.867 3ZM238.38 5V10.1406H239.224V12.9375H238.302V11H233.661V5H234.583V10.1406H237.458V5H238.38ZM242.765 11.125C242.187 11.125 241.688 10.9974 241.269 10.7422C240.852 10.4844 240.531 10.125 240.304 9.66406C240.08 9.20052 239.968 8.66146 239.968 8.04688C239.968 7.43229 240.08 6.89062 240.304 6.42187C240.531 5.95052 240.846 5.58333 241.249 5.32031C241.656 5.05469 242.13 4.92188 242.671 4.92188C242.984 4.92188 243.292 4.97396 243.597 5.07812C243.902 5.18229 244.179 5.35156 244.429 5.58594C244.679 5.81771 244.878 6.125 245.027 6.50781C245.175 6.89062 245.249 7.36198 245.249 7.92187V8.3125H240.624V7.51562H244.312C244.312 7.17708 244.244 6.875 244.109 6.60937C243.976 6.34375 243.786 6.13411 243.538 5.98047C243.294 5.82682 243.005 5.75 242.671 5.75C242.304 5.75 241.986 5.84115 241.718 6.02344C241.452 6.20312 241.248 6.4375 241.105 6.72656C240.962 7.01562 240.89 7.32552 240.89 7.65625V8.1875C240.89 8.64063 240.968 9.02474 241.124 9.33984C241.283 9.65234 241.503 9.89062 241.785 10.0547C242.066 10.2161 242.393 10.2969 242.765 10.2969C243.007 10.2969 243.226 10.263 243.421 10.1953C243.619 10.125 243.79 10.0208 243.933 9.88281C244.076 9.74219 244.187 9.56771 244.265 9.35937L245.156 9.60938C245.062 9.91146 244.904 10.1771 244.683 10.4062C244.462 10.6328 244.188 10.8099 243.863 10.9375C243.537 11.0625 243.171 11.125 242.765 11.125ZM250.337 7.57812V8.4375H247.025V7.57812H250.337ZM247.244 5V11H246.322V5H247.244ZM251.04 5V11H250.119V5H251.04ZM251.578 5.85937V5H256.453V5.85937H254.484V11H253.562V5.85937H251.578ZM257.467 13.25V5H258.358V5.95312H258.467C258.535 5.84896 258.629 5.71615 258.749 5.55469C258.871 5.39062 259.046 5.24479 259.272 5.11719C259.501 4.98698 259.811 4.92188 260.202 4.92188C260.707 4.92188 261.152 5.04818 261.538 5.30078C261.923 5.55339 262.224 5.91146 262.44 6.375C262.656 6.83854 262.764 7.38542 262.764 8.01563C262.764 8.65104 262.656 9.20182 262.44 9.66797C262.224 10.1315 261.924 10.4909 261.542 10.7461C261.159 10.9987 260.717 11.125 260.217 11.125C259.832 11.125 259.523 11.0612 259.292 10.9336C259.06 10.8034 258.881 10.6562 258.756 10.4922C258.631 10.3255 258.535 10.1875 258.467 10.0781H258.389V13.25H257.467ZM258.374 8C258.374 8.45312 258.44 8.85286 258.573 9.19922C258.706 9.54297 258.9 9.8125 259.155 10.0078C259.41 10.2005 259.723 10.2969 260.092 10.2969C260.478 10.2969 260.799 10.1953 261.057 9.99219C261.318 9.78646 261.513 9.51042 261.643 9.16406C261.776 8.8151 261.842 8.42708 261.842 8C261.842 7.57812 261.777 7.19792 261.647 6.85937C261.519 6.51823 261.325 6.2487 261.065 6.05078C260.807 5.85026 260.483 5.75 260.092 5.75C259.717 5.75 259.402 5.84505 259.147 6.03516C258.892 6.22266 258.699 6.48568 258.569 6.82422C258.439 7.16016 258.374 7.55208 258.374 8ZM140.844 24V18H145.562V24H144.641V18.8594H141.766V24H140.844ZM149.354 24.125C148.812 24.125 148.337 23.9961 147.928 23.7383C147.522 23.4805 147.204 23.1198 146.975 22.6562C146.748 22.1927 146.635 21.651 146.635 21.0312C146.635 20.4062 146.748 19.8607 146.975 19.3945C147.204 18.9284 147.522 18.5664 147.928 18.3086C148.337 18.0508 148.812 17.9219 149.354 17.9219C149.895 17.9219 150.369 18.0508 150.775 18.3086C151.184 18.5664 151.502 18.9284 151.729 19.3945C151.958 19.8607 152.072 20.4062 152.072 21.0312C152.072 21.651 151.958 22.1927 151.729 22.6562C151.502 23.1198 151.184 23.4805 150.775 23.7383C150.369 23.9961 149.895 24.125 149.354 24.125ZM149.354 23.2969C149.765 23.2969 150.104 23.1914 150.369 22.9805C150.635 22.7695 150.831 22.4922 150.959 22.1484C151.087 21.8047 151.15 21.4323 151.15 21.0312C151.15 20.6302 151.087 20.2565 150.959 19.9102C150.831 19.5638 150.635 19.2839 150.369 19.0703C150.104 18.8568 149.765 18.75 149.354 18.75C148.942 18.75 148.604 18.8568 148.338 19.0703C148.072 19.2839 147.876 19.5638 147.748 19.9102C147.621 20.2565 147.557 20.6302 147.557 21.0312C147.557 21.4323 147.621 21.8047 147.748 22.1484C147.876 22.4922 148.072 22.7695 148.338 22.9805C148.604 23.1914 148.942 23.2969 149.354 23.2969ZM152.509 25.7188V23.1406H153.009C153.131 23.013 153.237 22.875 153.325 22.7266C153.414 22.5781 153.491 22.4023 153.556 22.1992C153.624 21.9935 153.681 21.7435 153.728 21.4492C153.775 21.1523 153.816 20.7943 153.853 20.375L154.056 18H157.868V23.1406H158.79V25.7188H157.868V24H153.431V25.7188H152.509ZM154.056 23.1406H156.946V18.8594H154.915L154.759 20.375C154.694 21.0026 154.613 21.5508 154.517 22.0195C154.42 22.4883 154.267 22.862 154.056 23.1406ZM163.387 18V18.8594H160.606V24H159.684V18H163.387ZM166.529 24.125C165.987 24.125 165.512 23.9961 165.103 23.7383C164.697 23.4805 164.379 23.1198 164.15 22.6562C163.923 22.1927 163.81 21.651 163.81 21.0312C163.81 20.4062 163.923 19.8607 164.15 19.3945C164.379 18.9284 164.697 18.5664 165.103 18.3086C165.512 18.0508 165.987 17.9219 166.529 17.9219C167.07 17.9219 167.544 18.0508 167.951 18.3086C168.359 18.5664 168.677 18.9284 168.904 19.3945C169.133 19.8607 169.247 20.4062 169.247 21.0312C169.247 21.651 169.133 22.1927 168.904 22.6562C168.677 23.1198 168.359 23.4805 167.951 23.7383C167.544 23.9961 167.07 24.125 166.529 24.125ZM166.529 23.2969C166.94 23.2969 167.279 23.1914 167.544 22.9805C167.81 22.7695 168.006 22.4922 168.134 22.1484C168.262 21.8047 168.326 21.4323 168.326 21.0312C168.326 20.6302 168.262 20.2565 168.134 19.9102C168.006 19.5638 167.81 19.2839 167.544 19.0703C167.279 18.8568 166.94 18.75 166.529 18.75C166.117 18.75 165.779 18.8568 165.513 19.0703C165.247 19.2839 165.051 19.5638 164.923 19.9102C164.796 20.2565 164.732 20.6302 164.732 21.0312C164.732 21.4323 164.796 21.8047 164.923 22.1484C165.051 22.4922 165.247 22.7695 165.513 22.9805C165.779 23.1914 166.117 23.2969 166.529 23.2969ZM169.54 18.8594V18H174.415V18.8594H172.447V24H171.525V18.8594H169.54ZM177.556 24.125C177.014 24.125 176.539 23.9961 176.13 23.7383C175.724 23.4805 175.406 23.1198 175.177 22.6562C174.951 22.1927 174.837 21.651 174.837 21.0312C174.837 20.4062 174.951 19.8607 175.177 19.3945C175.406 18.9284 175.724 18.5664 176.13 18.3086C176.539 18.0508 177.014 17.9219 177.556 17.9219C178.098 17.9219 178.572 18.0508 178.978 18.3086C179.387 18.5664 179.705 18.9284 179.931 19.3945C180.16 19.8607 180.275 20.4062 180.275 21.0312C180.275 21.651 180.16 22.1927 179.931 22.6562C179.705 23.1198 179.387 23.4805 178.978 23.7383C178.572 23.9961 178.098 24.125 177.556 24.125ZM177.556 23.2969C177.968 23.2969 178.306 23.1914 178.572 22.9805C178.837 22.7695 179.034 22.4922 179.162 22.1484C179.289 21.8047 179.353 21.4323 179.353 21.0312C179.353 20.6302 179.289 20.2565 179.162 19.9102C179.034 19.5638 178.837 19.2839 178.572 19.0703C178.306 18.8568 177.968 18.75 177.556 18.75C177.145 18.75 176.806 18.8568 176.541 19.0703C176.275 19.2839 176.078 19.5638 175.951 19.9102C175.823 20.2565 175.759 20.6302 175.759 21.0312C175.759 21.4323 175.823 21.8047 175.951 22.1484C176.078 22.4922 176.275 22.7695 176.541 22.9805C176.806 23.1914 177.145 23.2969 177.556 23.2969ZM181.352 24V18H183.805C184.451 18 184.964 18.1458 185.344 18.4375C185.725 18.7292 185.915 19.1146 185.915 19.5937C185.915 19.9583 185.807 20.2409 185.59 20.4414C185.374 20.6393 185.097 20.7734 184.758 20.8438C184.98 20.875 185.195 20.9531 185.403 21.0781C185.614 21.2031 185.788 21.375 185.926 21.5938C186.064 21.8099 186.133 22.0755 186.133 22.3906C186.133 22.6979 186.055 22.9727 185.899 23.2148C185.743 23.457 185.519 23.6484 185.227 23.7891C184.935 23.9297 184.586 24 184.18 24H181.352ZM182.227 23.1562H184.18C184.498 23.1562 184.747 23.0807 184.926 22.9297C185.106 22.7786 185.196 22.5729 185.196 22.3125C185.196 22.0026 185.106 21.7591 184.926 21.582C184.747 21.4023 184.498 21.3125 184.18 21.3125H182.227V23.1562ZM182.227 20.5156H183.805C184.053 20.5156 184.265 20.4818 184.442 20.4141C184.619 20.3437 184.754 20.2448 184.848 20.1172C184.945 19.987 184.993 19.8333 184.993 19.6562C184.993 19.4036 184.887 19.2057 184.676 19.0625C184.465 18.9167 184.175 18.8438 183.805 18.8438H182.227V20.5156ZM187.199 24V18H188.121V20.6094H188.73L190.886 18H192.074L189.652 20.8906L192.105 24H190.918L188.949 21.4687H188.121V24H187.199ZM193.699 22.6406L196.59 18H197.652V24H196.73V19.3594L193.855 24H192.777V18H193.699V22.6406ZM202.696 22.6406L205.587 18H206.649V24H205.727V19.3594L202.852 24H201.774V18H202.696V22.6406ZM210.772 24V18H211.693V20.6094H212.303L214.459 18H215.647L213.225 20.8906L215.678 24H214.49L212.522 21.4687H211.693V24H210.772ZM216.35 24V18H218.803C219.449 18 219.962 18.1458 220.342 18.4375C220.722 18.7292 220.912 19.1146 220.912 19.5937C220.912 19.9583 220.804 20.2409 220.588 20.4414C220.372 20.6393 220.095 20.7734 219.756 20.8438C219.977 20.875 220.192 20.9531 220.401 21.0781C220.611 21.2031 220.786 21.375 220.924 21.5938C221.062 21.8099 221.131 22.0755 221.131 22.3906C221.131 22.6979 221.053 22.9727 220.897 23.2148C220.74 23.457 220.516 23.6484 220.225 23.7891C219.933 23.9297 219.584 24 219.178 24H216.35ZM217.225 23.1562H219.178C219.496 23.1562 219.744 23.0807 219.924 22.9297C220.104 22.7786 220.193 22.5729 220.193 22.3125C220.193 22.0026 220.104 21.7591 219.924 21.582C219.744 21.4023 219.496 21.3125 219.178 21.3125H217.225V23.1562ZM217.225 20.5156H218.803C219.05 20.5156 219.262 20.4818 219.44 20.4141C219.617 20.3437 219.752 20.2448 219.846 20.1172C219.942 19.987 219.99 19.8333 219.99 19.6562C219.99 19.4036 219.885 19.2057 219.674 19.0625C219.463 18.9167 219.173 18.8438 218.803 18.8438H217.225V20.5156ZM223.962 24.1406C223.582 24.1406 223.237 24.069 222.927 23.9258C222.617 23.7799 222.371 23.5703 222.189 23.2969C222.006 23.0208 221.915 22.6875 221.915 22.2969C221.915 21.9531 221.983 21.6745 222.118 21.4609C222.254 21.2448 222.435 21.0755 222.661 20.9531C222.888 20.8307 223.138 20.7396 223.411 20.6797C223.687 20.6172 223.965 20.5677 224.243 20.5313C224.608 20.4844 224.904 20.4492 225.13 20.4258C225.359 20.3997 225.526 20.3568 225.63 20.2969C225.737 20.237 225.79 20.1328 225.79 19.9844V19.9531C225.79 19.5677 225.685 19.2682 225.474 19.0547C225.265 18.8411 224.949 18.7344 224.525 18.7344C224.085 18.7344 223.739 18.8307 223.489 19.0234C223.239 19.2161 223.064 19.4219 222.962 19.6406L222.087 19.3281C222.243 18.9635 222.452 18.6797 222.712 18.4766C222.975 18.2708 223.262 18.1276 223.571 18.0469C223.884 17.9635 224.191 17.9219 224.493 17.9219C224.686 17.9219 224.907 17.9453 225.157 17.9922C225.41 18.0365 225.654 18.1289 225.888 18.2695C226.125 18.4102 226.321 18.6224 226.478 18.9062C226.634 19.1901 226.712 19.5703 226.712 20.0469V24H225.79V23.1875H225.743C225.681 23.3177 225.577 23.457 225.431 23.6055C225.285 23.7539 225.091 23.8802 224.849 23.9844C224.607 24.0885 224.311 24.1406 223.962 24.1406ZM224.103 23.3125C224.467 23.3125 224.775 23.2409 225.025 23.0977C225.277 22.9544 225.467 22.7695 225.595 22.543C225.725 22.3164 225.79 22.0781 225.79 21.8281V20.9844C225.751 21.0312 225.665 21.0742 225.532 21.1133C225.402 21.1497 225.251 21.1823 225.079 21.2109C224.91 21.237 224.745 21.2604 224.583 21.2812C224.424 21.2995 224.295 21.3151 224.196 21.3281C223.957 21.3594 223.733 21.4102 223.525 21.4805C223.319 21.5482 223.152 21.651 223.025 21.7891C222.9 21.9245 222.837 22.1094 222.837 22.3437C222.837 22.6641 222.956 22.9062 223.193 23.0703C223.432 23.2318 223.736 23.3125 224.103 23.3125ZM227.533 24V23.1406H227.752C227.932 23.1406 228.082 23.1055 228.201 23.0352C228.321 22.9622 228.418 22.8359 228.491 22.6562C228.566 22.474 228.623 22.2214 228.662 21.8984C228.704 21.5729 228.734 21.1589 228.752 20.6562L228.862 18H232.862V24H231.94V18.8594H229.737L229.643 21C229.622 21.4922 229.578 21.9258 229.51 22.3008C229.445 22.6732 229.345 22.9857 229.209 23.2383C229.076 23.4909 228.899 23.681 228.678 23.8086C228.457 23.9362 228.179 24 227.846 24H227.533ZM235.145 22.6406L238.036 18H239.098V24H238.176V19.3594L235.301 24H234.223V18H235.145V22.6406ZM242.894 26.0469V16H243.816V26.0469H242.894ZM242.894 24.125C242.488 24.125 242.118 24.0521 241.785 23.9062C241.451 23.7578 241.165 23.5482 240.925 23.2773C240.686 23.0039 240.501 22.6771 240.371 22.2969C240.24 21.9167 240.175 21.4948 240.175 21.0312C240.175 20.5625 240.24 20.138 240.371 19.7578C240.501 19.375 240.686 19.0469 240.925 18.7734C241.165 18.5 241.451 18.2904 241.785 18.1445C242.118 17.9961 242.488 17.9219 242.894 17.9219H243.175V24.125H242.894ZM242.894 23.2969H243.05V18.75H242.894C242.587 18.75 242.32 18.8125 242.093 18.9375C241.867 19.0599 241.679 19.2279 241.531 19.4414C241.385 19.6523 241.275 19.8945 241.203 20.168C241.132 20.4414 241.097 20.7292 241.097 21.0312C241.097 21.4323 241.161 21.8047 241.289 22.1484C241.416 22.4922 241.613 22.7695 241.878 22.9805C242.144 23.1914 242.483 23.2969 242.894 23.2969ZM243.816 24.125H243.535V17.9219H243.816C244.222 17.9219 244.592 17.9961 244.925 18.1445C245.259 18.2904 245.545 18.5 245.785 18.7734C246.024 19.0469 246.209 19.375 246.339 19.7578C246.47 20.138 246.535 20.5625 246.535 21.0312C246.535 21.4948 246.47 21.9167 246.339 22.2969C246.209 22.6771 246.024 23.0039 245.785 23.2773C245.545 23.5482 245.259 23.7578 244.925 23.9062C244.592 24.0521 244.222 24.125 243.816 24.125ZM243.816 23.2969C244.126 23.2969 244.393 23.237 244.617 23.1172C244.843 22.9948 245.029 22.8281 245.175 22.6172C245.324 22.4036 245.433 22.1615 245.503 21.8906C245.576 21.6172 245.613 21.3307 245.613 21.0312C245.613 20.6302 245.549 20.2565 245.421 19.9102C245.294 19.5638 245.097 19.2839 244.831 19.0703C244.566 18.8568 244.227 18.75 243.816 18.75H243.66V23.2969H243.816ZM248.536 22.6406L251.426 18H252.489V24H251.567V19.3594L248.692 24H247.614V18H248.536V22.6406ZM253.847 24V18H254.769V20.6094H255.379L257.535 18H258.722L256.3 20.8906L258.754 24H257.566L255.597 21.4687H254.769V24H253.847ZM261.191 24.1406C260.811 24.1406 260.466 24.069 260.156 23.9258C259.846 23.7799 259.6 23.5703 259.418 23.2969C259.235 23.0208 259.144 22.6875 259.144 22.2969C259.144 21.9531 259.212 21.6745 259.347 21.4609C259.483 21.2448 259.664 21.0755 259.89 20.9531C260.117 20.8307 260.367 20.7396 260.64 20.6797C260.916 20.6172 261.194 20.5677 261.472 20.5313C261.837 20.4844 262.132 20.4492 262.359 20.4258C262.588 20.3997 262.755 20.3568 262.859 20.2969C262.966 20.237 263.019 20.1328 263.019 19.9844V19.9531C263.019 19.5677 262.914 19.2682 262.703 19.0547C262.494 18.8411 262.178 18.7344 261.754 18.7344C261.313 18.7344 260.968 18.8307 260.718 19.0234C260.468 19.2161 260.293 19.4219 260.191 19.6406L259.316 19.3281C259.472 18.9635 259.681 18.6797 259.941 18.4766C260.204 18.2708 260.491 18.1276 260.8 18.0469C261.113 17.9635 261.42 17.9219 261.722 17.9219C261.915 17.9219 262.136 17.9453 262.386 17.9922C262.639 18.0365 262.882 18.1289 263.117 18.2695C263.354 18.4102 263.55 18.6224 263.707 18.9062C263.863 19.1901 263.941 19.5703 263.941 20.0469V24H263.019V23.1875H262.972C262.91 23.3177 262.806 23.457 262.66 23.6055C262.514 23.7539 262.32 23.8802 262.078 23.9844C261.836 24.0885 261.54 24.1406 261.191 24.1406ZM261.332 23.3125C261.696 23.3125 262.004 23.2409 262.254 23.0977C262.506 22.9544 262.696 22.7695 262.824 22.543C262.954 22.3164 263.019 22.0781 263.019 21.8281V20.9844C262.98 21.0312 262.894 21.0742 262.761 21.1133C262.631 21.1497 262.48 21.1823 262.308 21.2109C262.139 21.237 261.974 21.2604 261.812 21.2812C261.653 21.2995 261.524 21.3151 261.425 21.3281C261.186 21.3594 260.962 21.4102 260.754 21.4805C260.548 21.5482 260.381 21.651 260.254 21.7891C260.129 21.9245 260.066 22.1094 260.066 22.3437C260.066 22.6641 260.185 22.9062 260.422 23.0703C260.661 23.2318 260.965 23.3125 261.332 23.3125ZM270.012 18V23.1406H270.856V25.9375H269.934V24H265.294V18H266.216V23.1406H269.091V18H270.012ZM272.868 22.6406L275.759 18H276.821V24H275.899V19.3594L273.024 24H271.946V18H272.868V22.6406ZM279.101 22.6406L281.992 18H283.055V24H282.133V19.3594L279.258 24H278.18V18H279.101V22.6406ZM143.281 37.125C142.719 37.125 142.234 36.9922 141.828 36.7266C141.422 36.4609 141.109 36.0951 140.891 35.6289C140.672 35.1628 140.563 34.6302 140.563 34.0312C140.563 33.4219 140.674 32.8841 140.898 32.418C141.125 31.9492 141.44 31.5833 141.844 31.3203C142.25 31.0547 142.724 30.9219 143.266 30.9219C143.687 30.9219 144.068 31 144.406 31.1562C144.745 31.3125 145.022 31.5312 145.238 31.8125C145.454 32.0937 145.589 32.4219 145.641 32.7969H144.719C144.648 32.5234 144.492 32.2812 144.25 32.0703C144.01 31.8568 143.688 31.75 143.281 31.75C142.922 31.75 142.607 31.8437 142.336 32.0312C142.068 32.2161 141.858 32.4779 141.707 32.8164C141.559 33.1523 141.484 33.5469 141.484 34C141.484 34.4635 141.557 34.8672 141.703 35.2109C141.852 35.5547 142.06 35.8216 142.328 36.0117C142.599 36.2018 142.917 36.2969 143.281 36.2969C143.521 36.2969 143.738 36.2552 143.934 36.1719C144.129 36.0885 144.294 35.9688 144.43 35.8125C144.565 35.6562 144.661 35.4687 144.719 35.25H145.641C145.589 35.6042 145.46 35.9232 145.254 36.207C145.051 36.4883 144.781 36.7122 144.445 36.8789C144.112 37.043 143.724 37.125 143.281 37.125ZM146.127 37V36.1406H146.346C146.525 36.1406 146.675 36.1055 146.795 36.0352C146.915 35.9622 147.011 35.8359 147.084 35.6562C147.16 35.474 147.217 35.2214 147.256 34.8984C147.298 34.5729 147.328 34.1589 147.346 33.6562L147.455 31H151.455V37H150.533V31.8594H148.33L148.236 34C148.216 34.4922 148.171 34.9258 148.104 35.3008C148.038 35.6732 147.938 35.9857 147.803 36.2383C147.67 36.4909 147.493 36.681 147.272 36.8086C147.05 36.9362 146.773 37 146.44 37H146.127ZM153.195 39.25C153.039 39.25 152.9 39.237 152.778 39.2109C152.655 39.1875 152.57 39.1641 152.524 39.1406L152.758 38.3281C152.982 38.3854 153.18 38.4063 153.352 38.3906C153.524 38.375 153.676 38.2982 153.809 38.1602C153.944 38.0247 154.068 37.8047 154.18 37.5L154.352 37.0313L152.133 31H153.133L154.789 35.7812H154.852L156.508 31H157.508L154.961 37.875C154.847 38.1849 154.705 38.4414 154.535 38.6445C154.366 38.8503 154.169 39.0026 153.945 39.1016C153.724 39.2005 153.474 39.25 153.195 39.25ZM158.02 37L160.457 33.9531L158.051 31H159.145L161.145 33.5625H161.645V31H162.567V33.5625H163.051L165.051 31H166.145L163.754 33.9531L166.176 37H165.067L163.035 34.4219H162.567V37H161.645V34.4219H161.176L159.129 37H158.02ZM171.617 28.75L172.085 29.3125C171.903 29.4896 171.692 29.6133 171.452 29.6836C171.213 29.7539 170.942 29.7969 170.64 29.8125C170.338 29.8281 170.002 29.8437 169.632 29.8594C169.215 29.875 168.87 29.9766 168.597 30.1641C168.324 30.3516 168.113 30.6224 167.964 30.9766C167.816 31.3307 167.721 31.7656 167.679 32.2812H167.757C167.96 31.9062 168.242 31.6302 168.601 31.4531C168.96 31.276 169.346 31.1875 169.757 31.1875C170.226 31.1875 170.648 31.2969 171.023 31.5156C171.398 31.7344 171.695 32.0586 171.913 32.4883C172.132 32.918 172.242 33.4479 172.242 34.0781C172.242 34.7057 172.13 35.2474 171.906 35.7031C171.684 36.1589 171.373 36.5104 170.972 36.7578C170.574 37.0026 170.106 37.125 169.57 37.125C169.033 37.125 168.563 36.9987 168.159 36.7461C167.756 36.4909 167.442 36.1133 167.218 35.6133C166.994 35.1107 166.882 34.4896 166.882 33.75V33.1094C166.882 31.7734 167.109 30.7604 167.562 30.0703C168.018 29.3802 168.702 29.0234 169.617 29C169.939 28.9896 170.227 28.987 170.48 28.9922C170.732 28.9974 170.952 28.9857 171.14 28.957C171.327 28.9284 171.486 28.8594 171.617 28.75ZM169.57 36.2969C169.932 36.2969 170.243 36.2057 170.503 36.0234C170.766 35.8411 170.968 35.5846 171.109 35.2539C171.249 34.9206 171.32 34.5286 171.32 34.0781C171.32 33.6406 171.248 33.2682 171.105 32.9609C170.964 32.6536 170.762 32.4193 170.499 32.2578C170.236 32.0964 169.921 32.0156 169.554 32.0156C169.286 32.0156 169.045 32.0612 168.831 32.1523C168.618 32.2435 168.436 32.3776 168.284 32.5547C168.133 32.7318 168.016 32.9479 167.933 33.2031C167.852 33.4583 167.809 33.75 167.804 34.0781C167.804 34.75 167.962 35.2878 168.277 35.6914C168.592 36.0951 169.023 36.2969 169.57 36.2969ZM180.539 28.75L181.007 29.3125C180.825 29.4896 180.614 29.6133 180.374 29.6836C180.135 29.7539 179.864 29.7969 179.562 29.8125C179.26 29.8281 178.924 29.8437 178.554 29.8594C178.138 29.875 177.792 29.9766 177.519 30.1641C177.246 30.3516 177.035 30.6224 176.886 30.9766C176.738 31.3307 176.643 31.7656 176.601 32.2812H176.679C176.882 31.9062 177.164 31.6302 177.523 31.4531C177.882 31.276 178.268 31.1875 178.679 31.1875C179.148 31.1875 179.57 31.2969 179.945 31.5156C180.32 31.7344 180.617 32.0586 180.835 32.4883C181.054 32.918 181.164 33.4479 181.164 34.0781C181.164 34.7057 181.052 35.2474 180.828 35.7031C180.606 36.1589 180.295 36.5104 179.894 36.7578C179.496 37.0026 179.028 37.125 178.492 37.125C177.955 37.125 177.485 36.9987 177.082 36.7461C176.678 36.4909 176.364 36.1133 176.14 35.6133C175.916 35.1107 175.804 34.4896 175.804 33.75V33.1094C175.804 31.7734 176.031 30.7604 176.484 30.0703C176.94 29.3802 177.624 29.0234 178.539 29C178.861 28.9896 179.149 28.987 179.402 28.9922C179.654 28.9974 179.874 28.9857 180.062 28.957C180.249 28.9284 180.408 28.8594 180.539 28.75ZM178.492 36.2969C178.854 36.2969 179.165 36.2057 179.425 36.0234C179.688 35.8411 179.89 35.5846 180.031 35.2539C180.171 34.9206 180.242 34.5286 180.242 34.0781C180.242 33.6406 180.17 33.2682 180.027 32.9609C179.886 32.6536 179.684 32.4193 179.421 32.2578C179.158 32.0964 178.843 32.0156 178.476 32.0156C178.208 32.0156 177.967 32.0612 177.753 32.1523C177.54 32.2435 177.358 32.3776 177.207 32.5547C177.055 32.7318 176.938 32.9479 176.855 33.2031C176.774 33.4583 176.731 33.75 176.726 34.0781C176.726 34.75 176.884 35.2878 177.199 35.6914C177.514 36.0951 177.945 36.2969 178.492 36.2969ZM184.759 37.125C184.181 37.125 183.683 36.9974 183.263 36.7422C182.847 36.4844 182.525 36.125 182.298 35.6641C182.074 35.2005 181.962 34.6615 181.962 34.0469C181.962 33.4323 182.074 32.8906 182.298 32.4219C182.525 31.9505 182.84 31.5833 183.244 31.3203C183.65 31.0547 184.124 30.9219 184.666 30.9219C184.978 30.9219 185.287 30.974 185.591 31.0781C185.896 31.1823 186.173 31.3516 186.423 31.5859C186.673 31.8177 186.873 32.125 187.021 32.5078C187.169 32.8906 187.244 33.362 187.244 33.9219V34.3125H182.619V33.5156H186.306C186.306 33.1771 186.239 32.875 186.103 32.6094C185.97 32.3437 185.78 32.1341 185.533 31.9805C185.288 31.8268 184.999 31.75 184.666 31.75C184.298 31.75 183.981 31.8411 183.712 32.0234C183.447 32.2031 183.242 32.4375 183.099 32.7266C182.956 33.0156 182.884 33.3255 182.884 33.6562V34.1875C182.884 34.6406 182.962 35.0247 183.119 35.3398C183.278 35.6523 183.498 35.8906 183.779 36.0547C184.06 36.2161 184.387 36.2969 184.759 36.2969C185.002 36.2969 185.22 36.263 185.416 36.1953C185.614 36.125 185.784 36.0208 185.927 35.8828C186.071 35.7422 186.181 35.5677 186.259 35.3594L187.15 35.6094C187.056 35.9115 186.899 36.1771 186.677 36.4062C186.456 36.6328 186.183 36.8099 185.857 36.9375C185.531 37.0625 185.166 37.125 184.759 37.125ZM187.941 35.4687H188.925C188.946 35.7396 189.069 35.9453 189.293 36.0859C189.519 36.2266 189.813 36.2969 190.175 36.2969C190.545 36.2969 190.862 36.2214 191.125 36.0703C191.388 35.9167 191.519 35.6693 191.519 35.3281C191.519 35.1276 191.47 34.9531 191.371 34.8047C191.272 34.6536 191.132 34.5365 190.953 34.4531C190.773 34.3698 190.561 34.3281 190.316 34.3281H189.285V33.5H190.316C190.683 33.5 190.954 33.4167 191.129 33.25C191.306 33.0833 191.394 32.875 191.394 32.625C191.394 32.3568 191.299 32.1419 191.109 31.9805C190.919 31.8164 190.649 31.7344 190.3 31.7344C189.949 31.7344 189.656 31.8138 189.422 31.9727C189.187 32.1289 189.063 32.3307 189.05 32.5781H188.082C188.092 32.2552 188.191 31.9701 188.379 31.7227C188.566 31.4727 188.821 31.2773 189.144 31.1367C189.467 30.9935 189.837 30.9219 190.254 30.9219C190.675 30.9219 191.041 30.9961 191.351 31.1445C191.664 31.2904 191.905 31.4896 192.074 31.7422C192.246 31.9922 192.332 32.276 192.332 32.5937C192.332 32.9323 192.237 33.2057 192.047 33.4141C191.856 33.6224 191.618 33.7708 191.332 33.8594V33.9219C191.558 33.9375 191.755 34.0104 191.922 34.1406C192.091 34.2682 192.222 34.4362 192.316 34.6445C192.41 34.8503 192.457 35.0781 192.457 35.3281C192.457 35.6927 192.359 36.0104 192.164 36.2812C191.968 36.5495 191.7 36.7578 191.359 36.9062C191.018 37.0521 190.629 37.125 190.191 37.125C189.767 37.125 189.386 37.056 189.05 36.918C188.714 36.7773 188.448 36.5833 188.25 36.3359C188.054 36.0859 187.951 35.7969 187.941 35.4687ZM195.859 37.125C195.317 37.125 194.842 36.9961 194.433 36.7383C194.027 36.4805 193.709 36.1198 193.48 35.6562C193.254 35.1927 193.14 34.651 193.14 34.0312C193.14 33.4062 193.254 32.8607 193.48 32.3945C193.709 31.9284 194.027 31.5664 194.433 31.3086C194.842 31.0508 195.317 30.9219 195.859 30.9219C196.401 30.9219 196.875 31.0508 197.281 31.3086C197.69 31.5664 198.008 31.9284 198.234 32.3945C198.463 32.8607 198.578 33.4062 198.578 34.0312C198.578 34.651 198.463 35.1927 198.234 35.6562C198.008 36.1198 197.69 36.4805 197.281 36.7383C196.875 36.9961 196.401 37.125 195.859 37.125ZM195.859 36.2969C196.271 36.2969 196.609 36.1914 196.875 35.9805C197.14 35.7695 197.337 35.4922 197.465 35.1484C197.592 34.8047 197.656 34.4323 197.656 34.0312C197.656 33.6302 197.592 33.2565 197.465 32.9102C197.337 32.5638 197.14 32.2839 196.875 32.0703C196.609 31.8568 196.271 31.75 195.859 31.75C195.448 31.75 195.109 31.8568 194.843 32.0703C194.578 32.2839 194.381 32.5638 194.254 32.9102C194.126 33.2565 194.062 33.6302 194.062 34.0312C194.062 34.4323 194.126 34.8047 194.254 35.1484C194.381 35.4922 194.578 35.7695 194.843 35.9805C195.109 36.1914 195.448 36.2969 195.859 36.2969ZM199.655 37V31H204.374V37H203.452V31.8594H200.577V37H199.655ZM207.493 37.1406C207.113 37.1406 206.768 37.069 206.458 36.9258C206.148 36.7799 205.902 36.5703 205.72 36.2969C205.537 36.0208 205.446 35.6875 205.446 35.2969C205.446 34.9531 205.514 34.6745 205.649 34.4609C205.785 34.2448 205.966 34.0755 206.192 33.9531C206.419 33.8307 206.669 33.7396 206.942 33.6797C207.218 33.6172 207.496 33.5677 207.774 33.5313C208.139 33.4844 208.434 33.4492 208.661 33.4258C208.89 33.3997 209.057 33.3568 209.161 33.2969C209.268 33.237 209.321 33.1328 209.321 32.9844V32.9531C209.321 32.5677 209.216 32.2682 209.005 32.0547C208.796 31.8411 208.48 31.7344 208.056 31.7344C207.615 31.7344 207.27 31.8307 207.02 32.0234C206.77 32.2161 206.595 32.4219 206.493 32.6406L205.618 32.3281C205.774 31.9635 205.983 31.6797 206.243 31.4766C206.506 31.2708 206.793 31.1276 207.102 31.0469C207.415 30.9635 207.722 30.9219 208.024 30.9219C208.217 30.9219 208.438 30.9453 208.688 30.9922C208.941 31.0365 209.184 31.1289 209.419 31.2695C209.656 31.4102 209.852 31.6224 210.009 31.9062C210.165 32.1901 210.243 32.5703 210.243 33.0469V37H209.321V36.1875H209.274C209.212 36.3177 209.108 36.457 208.962 36.6055C208.816 36.7539 208.622 36.8802 208.38 36.9844C208.138 37.0885 207.842 37.1406 207.493 37.1406ZM207.634 36.3125C207.998 36.3125 208.306 36.2409 208.556 36.0977C208.808 35.9544 208.998 35.7695 209.126 35.543C209.256 35.3164 209.321 35.0781 209.321 34.8281V33.9844C209.282 34.0312 209.196 34.0742 209.063 34.1133C208.933 34.1497 208.782 34.1823 208.61 34.2109C208.441 34.237 208.276 34.2604 208.114 34.2812C207.955 34.2995 207.826 34.3151 207.727 34.3281C207.488 34.3594 207.264 34.4102 207.056 34.4805C206.85 34.5482 206.683 34.651 206.556 34.7891C206.431 34.9245 206.368 35.1094 206.368 35.3437C206.368 35.6641 206.487 35.9062 206.724 36.0703C206.963 36.2318 207.266 36.3125 207.634 36.3125ZM214.033 37.125C213.471 37.125 212.986 36.9922 212.58 36.7266C212.174 36.4609 211.861 36.0951 211.643 35.6289C211.424 35.1628 211.314 34.6302 211.314 34.0312C211.314 33.4219 211.426 32.8841 211.65 32.418C211.877 31.9492 212.192 31.5833 212.596 31.3203C213.002 31.0547 213.476 30.9219 214.018 30.9219C214.439 30.9219 214.82 31 215.158 31.1562C215.497 31.3125 215.774 31.5312 215.99 31.8125C216.206 32.0937 216.34 32.4219 216.393 32.7969H215.471C215.4 32.5234 215.244 32.2812 215.002 32.0703C214.762 31.8568 214.439 31.75 214.033 31.75C213.674 31.75 213.359 31.8437 213.088 32.0312C212.82 32.2161 212.61 32.4779 212.459 32.8164C212.311 33.1523 212.236 33.5469 212.236 34C212.236 34.4635 212.309 34.8672 212.455 35.2109C212.603 35.5547 212.812 35.8216 213.08 36.0117C213.351 36.2018 213.669 36.2969 214.033 36.2969C214.273 36.2969 214.49 36.2552 214.686 36.1719C214.881 36.0885 215.046 35.9688 215.182 35.8125C215.317 35.6562 215.413 35.4687 215.471 35.25H216.393C216.34 35.6042 216.212 35.9232 216.006 36.207C215.803 36.4883 215.533 36.7122 215.197 36.8789C214.864 37.043 214.476 37.125 214.033 37.125ZM221.426 33.5781V34.4375H218.113V33.5781H221.426ZM218.332 31V37H217.41V31H218.332ZM222.129 31V37H221.207V31H222.129ZM225.92 37.125C225.378 37.125 224.903 36.9961 224.494 36.7383C224.088 36.4805 223.77 36.1198 223.541 35.6562C223.315 35.1927 223.201 34.651 223.201 34.0312C223.201 33.4062 223.315 32.8607 223.541 32.3945C223.77 31.9284 224.088 31.5664 224.494 31.3086C224.903 31.0508 225.378 30.9219 225.92 30.9219C226.462 30.9219 226.936 31.0508 227.342 31.3086C227.751 31.5664 228.068 31.9284 228.295 32.3945C228.524 32.8607 228.639 33.4062 228.639 34.0312C228.639 34.651 228.524 35.1927 228.295 35.6562C228.068 36.1198 227.751 36.4805 227.342 36.7383C226.936 36.9961 226.462 37.125 225.92 37.125ZM225.92 36.2969C226.331 36.2969 226.67 36.1914 226.936 35.9805C227.201 35.7695 227.398 35.4922 227.526 35.1484C227.653 34.8047 227.717 34.4323 227.717 34.0312C227.717 33.6302 227.653 33.2565 227.526 32.9102C227.398 32.5638 227.201 32.2839 226.936 32.0703C226.67 31.8568 226.331 31.75 225.92 31.75C225.509 31.75 225.17 31.8568 224.904 32.0703C224.639 32.2839 224.442 32.5638 224.315 32.9102C224.187 33.2565 224.123 33.6302 224.123 34.0312C224.123 34.4323 224.187 34.8047 224.315 35.1484C224.442 35.4922 224.639 35.7695 224.904 35.9805C225.17 36.1914 225.509 36.2969 225.92 36.2969ZM232.154 37.125C231.591 37.125 231.107 36.9922 230.7 36.7266C230.294 36.4609 229.982 36.0951 229.763 35.6289C229.544 35.1628 229.435 34.6302 229.435 34.0312C229.435 33.4219 229.547 32.8841 229.771 32.418C229.997 31.9492 230.312 31.5833 230.716 31.3203C231.122 31.0547 231.596 30.9219 232.138 30.9219C232.56 30.9219 232.94 31 233.279 31.1562C233.617 31.3125 233.894 31.5312 234.111 31.8125C234.327 32.0937 234.461 32.4219 234.513 32.7969H233.591C233.521 32.5234 233.364 32.2812 233.122 32.0703C232.883 31.8568 232.56 31.75 232.154 31.75C231.794 31.75 231.479 31.8437 231.208 32.0312C230.94 32.2161 230.73 32.4779 230.579 32.8164C230.431 33.1523 230.357 33.5469 230.357 34C230.357 34.4635 230.43 34.8672 230.575 35.2109C230.724 35.5547 230.932 35.8216 231.2 36.0117C231.471 36.2018 231.789 36.2969 232.154 36.2969C232.393 36.2969 232.611 36.2552 232.806 36.1719C233.001 36.0885 233.167 35.9688 233.302 35.8125C233.437 35.6562 233.534 35.4687 233.591 35.25H234.513C234.461 35.6042 234.332 35.9232 234.126 36.207C233.923 36.4883 233.654 36.7122 233.318 36.8789C232.984 37.043 232.596 37.125 232.154 37.125ZM235.058 31.8594V31H239.933V31.8594H237.964V37H237.042V31.8594H235.058ZM241.869 35.6406L244.76 31H245.823V37H244.901V32.3594L242.026 37H240.948V31H241.869V35.6406ZM250.867 35.6406L253.757 31H254.82V37H253.898V32.3594L251.023 37H249.945V31H250.867V35.6406ZM258.301 38.7188V36.1406H258.801C258.924 36.013 259.029 35.875 259.118 35.7266C259.206 35.5781 259.283 35.4023 259.348 35.1992C259.416 34.9935 259.473 34.7435 259.52 34.4492C259.567 34.1523 259.609 33.7943 259.645 33.375L259.848 31H263.661V36.1406H264.583V38.7188H263.661V37H259.223V38.7188H258.301ZM259.848 36.1406H262.739V31.8594H260.708L260.551 33.375C260.486 34.0026 260.406 34.5508 260.309 35.0195C260.213 35.4883 260.059 35.862 259.848 36.1406ZM267.914 37.125C267.372 37.125 266.897 36.9961 266.488 36.7383C266.082 36.4805 265.764 36.1198 265.535 35.6562C265.308 35.1927 265.195 34.651 265.195 34.0312C265.195 33.4062 265.308 32.8607 265.535 32.3945C265.764 31.9284 266.082 31.5664 266.488 31.3086C266.897 31.0508 267.372 30.9219 267.914 30.9219C268.455 30.9219 268.929 31.0508 269.336 31.3086C269.745 31.5664 270.062 31.9284 270.289 32.3945C270.518 32.8607 270.633 33.4062 270.633 34.0312C270.633 34.651 270.518 35.1927 270.289 35.6562C270.062 36.1198 269.745 36.4805 269.336 36.7383C268.929 36.9961 268.455 37.125 267.914 37.125ZM267.914 36.2969C268.325 36.2969 268.664 36.1914 268.929 35.9805C269.195 35.7695 269.392 35.4922 269.519 35.1484C269.647 34.8047 269.711 34.4323 269.711 34.0312C269.711 33.6302 269.647 33.2565 269.519 32.9102C269.392 32.5638 269.195 32.2839 268.929 32.0703C268.664 31.8568 268.325 31.75 267.914 31.75C267.502 31.75 267.164 31.8568 266.898 32.0703C266.633 32.2839 266.436 32.5638 266.308 32.9102C266.181 33.2565 266.117 33.6302 266.117 34.0312C266.117 34.4323 266.181 34.8047 266.308 35.1484C266.436 35.4922 266.633 35.7695 266.898 35.9805C267.164 36.1914 267.502 36.2969 267.914 36.2969ZM274.147 37.125C273.585 37.125 273.1 36.9922 272.694 36.7266C272.288 36.4609 271.975 36.0951 271.757 35.6289C271.538 35.1628 271.429 34.6302 271.429 34.0312C271.429 33.4219 271.541 32.8841 271.764 32.418C271.991 31.9492 272.306 31.5833 272.71 31.3203C273.116 31.0547 273.59 30.9219 274.132 30.9219C274.554 30.9219 274.934 31 275.272 31.1562C275.611 31.3125 275.888 31.5312 276.104 31.8125C276.32 32.0937 276.455 32.4219 276.507 32.7969H275.585C275.514 32.5234 275.358 32.2812 275.116 32.0703C274.876 31.8568 274.554 31.75 274.147 31.75C273.788 31.75 273.473 31.8437 273.202 32.0312C272.934 32.2161 272.724 32.4779 272.573 32.8164C272.425 33.1523 272.35 33.5469 272.35 34C272.35 34.4635 272.423 34.8672 272.569 35.2109C272.718 35.5547 272.926 35.8216 273.194 36.0117C273.465 36.2018 273.783 36.2969 274.147 36.2969C274.387 36.2969 274.604 36.2552 274.8 36.1719C274.995 36.0885 275.16 35.9688 275.296 35.8125C275.431 35.6562 275.528 35.4687 275.585 35.25H276.507C276.455 35.6042 276.326 35.9232 276.12 36.207C275.917 36.4883 275.647 36.7122 275.311 36.8789C274.978 37.043 274.59 37.125 274.147 37.125ZM280.806 35.75L282.899 31H283.774L281.181 37H280.431L277.884 31H278.743L280.806 35.75ZM278.446 31V37H277.524V31H278.446ZM283.165 37V31H284.087V37H283.165ZM287.882 37.125C287.34 37.125 286.865 36.9961 286.456 36.7383C286.05 36.4805 285.732 36.1198 285.503 35.6562C285.276 35.1927 285.163 34.651 285.163 34.0312C285.163 33.4062 285.276 32.8607 285.503 32.3945C285.732 31.9284 286.05 31.5664 286.456 31.3086C286.865 31.0508 287.34 30.9219 287.882 30.9219C288.424 30.9219 288.897 31.0508 289.304 31.3086C289.713 31.5664 290.03 31.9284 290.257 32.3945C290.486 32.8607 290.601 33.4062 290.601 34.0312C290.601 34.651 290.486 35.1927 290.257 35.6562C290.03 36.1198 289.713 36.4805 289.304 36.7383C288.897 36.9961 288.424 37.125 287.882 37.125ZM287.882 36.2969C288.293 36.2969 288.632 36.1914 288.897 35.9805C289.163 35.7695 289.36 35.4922 289.487 35.1484C289.615 34.8047 289.679 34.4323 289.679 34.0312C289.679 33.6302 289.615 33.2565 289.487 32.9102C289.36 32.5638 289.163 32.2839 288.897 32.0703C288.632 31.8568 288.293 31.75 287.882 31.75C287.47 31.75 287.132 31.8568 286.866 32.0703C286.601 32.2839 286.404 32.5638 286.276 32.9102C286.149 33.2565 286.085 33.6302 286.085 34.0312C286.085 34.4323 286.149 34.8047 286.276 35.1484C286.404 35.4922 286.601 35.7695 286.866 35.9805C287.132 36.1914 287.47 36.2969 287.882 36.2969ZM290.894 31.8594V31H295.769V31.8594H293.8V37H292.878V31.8594H290.894ZM296.783 39.25V31H297.674V31.9531H297.783C297.851 31.849 297.945 31.7161 298.065 31.5547C298.187 31.3906 298.361 31.2448 298.588 31.1172C298.817 30.987 299.127 30.9219 299.518 30.9219C300.023 30.9219 300.468 31.0482 300.854 31.3008C301.239 31.5534 301.54 31.9115 301.756 32.375C301.972 32.8385 302.08 33.3854 302.08 34.0156C302.08 34.651 301.972 35.2018 301.756 35.668C301.54 36.1315 301.24 36.4909 300.858 36.7461C300.475 36.9987 300.033 37.125 299.533 37.125C299.148 37.125 298.839 37.0612 298.608 36.9336C298.376 36.8034 298.197 36.6562 298.072 36.4922C297.947 36.3255 297.851 36.1875 297.783 36.0781H297.705V39.25H296.783ZM297.69 34C297.69 34.4531 297.756 34.8529 297.889 35.1992C298.022 35.543 298.216 35.8125 298.471 36.0078C298.726 36.2005 299.039 36.2969 299.408 36.2969C299.794 36.2969 300.115 36.1953 300.373 35.9922C300.634 35.7865 300.829 35.5104 300.959 35.1641C301.092 34.8151 301.158 34.4271 301.158 34C301.158 33.5781 301.093 33.1979 300.963 32.8594C300.835 32.5182 300.641 32.2487 300.381 32.0508C300.123 31.8503 299.799 31.75 299.408 31.75C299.033 31.75 298.718 31.8451 298.463 32.0352C298.208 32.2227 298.015 32.4857 297.885 32.8242C297.755 33.1602 297.69 33.5521 297.69 34ZM304.922 37.1406C304.542 37.1406 304.197 37.069 303.887 36.9258C303.577 36.7799 303.331 36.5703 303.149 36.2969C302.966 36.0208 302.875 35.6875 302.875 35.2969C302.875 34.9531 302.943 34.6745 303.078 34.4609C303.214 34.2448 303.395 34.0755 303.621 33.9531C303.848 33.8307 304.098 33.7396 304.371 33.6797C304.647 33.6172 304.925 33.5677 305.203 33.5313C305.568 33.4844 305.864 33.4492 306.09 33.4258C306.319 33.3997 306.486 33.3568 306.59 33.2969C306.697 33.237 306.75 33.1328 306.75 32.9844V32.9531C306.75 32.5677 306.645 32.2682 306.434 32.0547C306.225 31.8411 305.909 31.7344 305.485 31.7344C305.044 31.7344 304.699 31.8307 304.449 32.0234C304.199 32.2161 304.024 32.4219 303.922 32.6406L303.047 32.3281C303.203 31.9635 303.412 31.6797 303.672 31.4766C303.935 31.2708 304.222 31.1276 304.531 31.0469C304.844 30.9635 305.151 30.9219 305.453 30.9219C305.646 30.9219 305.867 30.9453 306.117 30.9922C306.37 31.0365 306.614 31.1289 306.848 31.2695C307.085 31.4102 307.281 31.6224 307.438 31.9062C307.594 32.1901 307.672 32.5703 307.672 33.0469V37H306.75V36.1875H306.703C306.641 36.3177 306.537 36.457 306.391 36.6055C306.245 36.7539 306.051 36.8802 305.809 36.9844C305.567 37.0885 305.271 37.1406 304.922 37.1406ZM305.063 36.3125C305.427 36.3125 305.735 36.2409 305.985 36.0977C306.237 35.9544 306.427 35.7695 306.555 35.543C306.685 35.3164 306.75 35.0781 306.75 34.8281V33.9844C306.711 34.0312 306.625 34.0742 306.492 34.1133C306.362 34.1497 306.211 34.1823 306.039 34.2109C305.87 34.237 305.705 34.2604 305.543 34.2812C305.384 34.2995 305.255 34.3151 305.156 34.3281C304.917 34.3594 304.693 34.4102 304.485 34.4805C304.279 34.5482 304.112 34.651 303.985 34.7891C303.86 34.9245 303.797 35.1094 303.797 35.3437C303.797 35.6641 303.916 35.9062 304.153 36.0703C304.392 36.2318 304.696 36.3125 305.063 36.3125Z" fill="#F2F3F3"/>
<g clip-path="url(#clip0_554_1384)">
<path fill-rule="evenodd" clip-rule="evenodd" d="M71.9938 33.001V26.0021H79.9896V33.001H71.9938ZM47.9959 6.99896C47.9959 15.6698 47.9959 24.3302 47.9959 33.001C55.9917 33.001 63.9979 33.001 71.9938 33.001V40H49.9896C49.3043 40 48.6397 39.9273 47.9855 39.8027C44.4029 39.0758 41.5265 36.4382 40.4465 33.001C40.1454 32.0561 39.9896 31.0488 39.9896 30V6.99896H47.9855H47.9959ZM71.9938 0.1973C75.5763 0.924195 78.4528 3.56179 79.5327 6.99896C79.8339 7.94393 79.9896 8.95119 79.9896 10V13.9979H71.9938V6.99896C63.9979 6.99896 55.9917 6.99896 47.9959 6.99896V0H70C70.6854 0 71.35 0.0726895 72.0042 0.1973H71.9938ZM91.9938 0H109.99C110.675 0 111.34 0.0726895 111.994 0.1973C115.576 0.924195 118.453 3.56179 119.533 6.99896C119.834 7.94393 119.99 8.95119 119.99 10V19.5016C119.99 20.5504 119.834 21.5576 119.533 22.5026C119.128 23.8006 118.453 24.9948 117.591 26.0021C116.168 27.6636 114.216 28.8474 111.994 29.3043C111.35 29.4393 110.675 29.5016 109.99 29.5016H91.9938V40H83.9979C83.9979 29.0031 83.9979 17.9958 83.9979 6.99896H91.9938V22.5026C98.6604 22.5026 105.327 22.5026 111.994 22.5026C111.994 17.3313 111.994 12.1703 111.994 6.99896H91.9938V0Z" fill="#F2F3F3"/>
<path d="M116.999 33.9979C117.819 33.9979 118.577 34.3302 119.117 34.8806C119.657 35.4206 120 36.1786 120 36.999C120 37.8193 119.668 38.5774 119.117 39.1173C118.577 39.6573 117.819 40 116.999 40C116.179 40 115.421 39.6677 114.881 39.1173C114.341 38.5774 113.998 37.8193 113.998 36.999C113.998 36.1786 114.33 35.4206 114.881 34.8806C115.421 34.3406 116.179 33.9979 116.999 33.9979ZM115.846 38.4839V35.514H117.165C117.435 35.514 117.632 35.5452 117.767 35.5971C117.902 35.649 118.017 35.7425 118.1 35.8775C118.183 36.0125 118.224 36.1578 118.224 36.324C118.224 36.5317 118.152 36.7082 118.017 36.8536C117.882 36.999 117.674 37.0924 117.383 37.134C117.487 37.1859 117.57 37.2378 117.622 37.2793C117.736 37.3832 117.85 37.5182 117.944 37.6739L118.463 38.4839H117.892L117.497 37.8609C117.383 37.6843 117.29 37.5493 117.217 37.4455C117.144 37.352 117.072 37.2897 117.02 37.2482C116.957 37.2066 116.906 37.1859 116.843 37.1651C116.802 37.1547 116.729 37.1547 116.625 37.1547H116.334V38.4735H115.857L115.846 38.4839ZM116.324 36.8224H117.03C117.207 36.8224 117.352 36.8017 117.456 36.7705C117.56 36.729 117.632 36.6771 117.684 36.594C117.736 36.5109 117.767 36.4278 117.767 36.324C117.767 36.1786 117.715 36.0644 117.612 35.9813C117.508 35.8879 117.352 35.8463 117.134 35.8463H116.334V36.8328L116.324 36.8224ZM118.733 35.2648C118.287 34.8183 117.674 34.5483 116.999 34.5483C116.324 34.5483 115.711 34.8287 115.265 35.2648C114.818 35.7113 114.548 36.324 114.548 36.999C114.548 37.6739 114.829 38.2866 115.265 38.7331C115.711 39.1796 116.324 39.4496 116.999 39.4496C117.674 39.4496 118.287 39.1693 118.733 38.7331C119.18 38.2866 119.45 37.6739 119.45 36.999C119.45 36.324 119.169 35.7113 118.733 35.2648Z" fill="#F2F3F3"/>
<path fill-rule="evenodd" clip-rule="evenodd" d="M7.99585 6.99896C7.99585 11.6615 7.99585 16.3344 7.99585 20.9969C14.6625 20.9969 21.3292 20.9969 27.9958 20.9969V6.99896C21.3292 6.99896 14.6625 6.99896 7.99585 6.99896V0H25.9917C26.6771 0 27.3416 0.0726895 27.9958 0.1973C31.5784 0.924195 34.4548 3.56179 35.5348 6.99896C35.8359 7.94392 35.9917 8.95119 35.9917 10V16.0021C35.9917 17.7882 35.5971 19.4808 34.9014 20.9969C33.6656 23.6968 31.4434 25.8567 28.7124 27.0301C28.4735 27.134 28.2347 27.2274 27.9958 27.3105C27.4039 27.5182 26.7913 27.6843 26.1578 27.7985V28.3178C28.6604 28.972 30.7788 30.5607 32.108 32.6999C32.1703 32.8037 32.243 32.918 32.3053 33.0218L36.4901 39.9896H27.1547L19.9585 27.9855H7.99585V39.9896H0C0 28.9927 0 17.9855 0 6.98858H7.99585V6.99896Z" fill="#F2F3F3"/>
</g>
<defs>
<clipPath id="clip0_554_1384">
<rect width="120" height="40" fill="white"/>
</clipPath>
</defs>
</svg>
