<svg width="294" height="40" viewBox="0 0 294 40" fill="none" xmlns="http://www.w3.org/2000/svg">
<g clip-path="url(#clip0_809_1481)">
<path d="M146.04 9.53048H148.386C149.251 9.53048 149.888 9.71563 150.299 10.0872C150.711 10.4575 150.916 10.9555 150.916 11.5811C150.916 12.2068 150.711 12.7048 150.299 13.0763C149.888 13.4466 149.251 13.633 148.386 13.633H147.144V15.9684H146.04V9.53048ZM147.879 38.1449C147.549 38.1449 147.243 38.0951 146.965 37.9943C146.685 37.8921 146.443 37.7376 146.238 37.5295C146.033 37.3214 145.872 37.0596 145.754 36.7468C145.638 36.4352 145.581 36.07 145.581 35.6525V35.4686C145.581 35.0766 145.642 34.7306 145.764 34.4293C145.887 34.1292 146.054 33.8777 146.265 33.6759C146.477 33.4729 146.722 33.321 147.001 33.2201C147.28 33.1192 147.573 33.0681 147.879 33.0681C148.199 33.0681 148.482 33.1115 148.731 33.1971C148.979 33.2826 149.191 33.4014 149.366 33.5508C149.541 33.7015 149.68 33.8777 149.785 34.0794C149.888 34.2824 149.958 34.4995 149.995 34.7332H148.965C148.903 34.5059 148.794 34.3195 148.634 34.1713C148.474 34.0245 148.223 33.9517 147.879 33.9517C147.708 33.9517 147.546 33.9798 147.393 34.0386C147.239 34.0973 147.104 34.1879 146.988 34.3105C146.87 34.4331 146.778 34.5902 146.712 34.7842C146.644 34.977 146.61 35.2056 146.61 35.4686V35.6525C146.61 35.9411 146.644 36.1875 146.712 36.3931C146.778 36.5987 146.87 36.7659 146.988 36.8949C147.104 37.0239 147.239 37.1171 147.393 37.1745C147.546 37.2333 147.708 37.2626 147.879 37.2626C148.45 37.2626 148.812 37.0021 148.965 36.4812H149.995C149.947 36.7378 149.863 36.9702 149.743 37.1745C149.622 37.3801 149.472 37.555 149.288 37.6993C149.104 37.8436 148.892 37.9534 148.652 38.03C148.413 38.1079 148.156 38.1449 147.879 38.1449ZM150.87 38.1449C150.82 38.1449 150.767 38.1437 150.709 38.1411C150.65 38.1373 150.597 38.1309 150.548 38.1181V37.1618C150.579 37.1669 150.625 37.1707 150.686 37.1707C150.815 37.1707 150.925 37.1324 151.017 37.0558C151.109 36.9792 151.184 36.8438 151.242 36.651C151.301 36.4582 151.345 36.199 151.376 35.8734C151.406 35.5491 151.422 35.1379 151.422 34.6412V33.169H155.101V38.0441H154.09V34.0334H152.396V34.8251C152.396 35.4814 152.364 36.0228 152.3 36.448C152.235 36.8745 152.14 37.2128 152.011 37.4644C151.882 37.7159 151.722 37.8921 151.532 37.9943C151.341 38.0951 151.122 38.1449 150.87 38.1449ZM157.171 39.9849C157.079 39.9849 156.987 39.976 156.895 39.9581V39.0745C156.987 39.0924 157.079 39.1026 157.171 39.1026C157.276 39.1026 157.363 39.0847 157.434 39.0515C157.504 39.0183 157.568 38.9596 157.627 38.8766C157.685 38.7936 157.743 38.685 157.802 38.5497C157.859 38.4156 157.926 38.2471 158 38.0441L155.93 33.169H157.033L158.524 36.9409L159.867 33.169H160.898L159.011 38.0441C158.876 38.3875 158.751 38.6825 158.635 38.9277C158.517 39.1728 158.391 39.3733 158.253 39.5303C158.115 39.6861 157.959 39.801 157.788 39.8751C157.616 39.9479 157.411 39.9849 157.171 39.9849ZM163.106 35.5338L161.449 33.169H162.608L163.933 35.129H164.393V33.169H165.404V35.129H165.865L167.299 33.169H168.349L166.601 35.4878L168.441 38.0441H167.299L165.865 35.9934H165.404V38.0441H164.393V35.9934H163.933L162.553 38.0441H161.357L163.106 35.5338ZM171.293 38.1449C170.962 38.1449 170.652 38.0836 170.363 37.9611C170.076 37.8385 169.827 37.6597 169.619 37.4235C169.409 37.1873 169.246 36.8962 169.126 36.5501C169.007 36.2028 168.947 35.8057 168.947 35.3588V35.175C168.947 34.6234 168.986 34.1318 169.067 33.7027C169.146 33.2737 169.283 32.9073 169.476 32.6034C169.668 32.3007 169.926 32.0645 170.248 31.896C170.57 31.7262 170.971 31.6304 171.449 31.6061C171.836 31.587 172.185 31.5704 172.498 31.5551C172.811 31.5397 173.068 31.4797 173.271 31.3763V32.3046C173.173 32.3595 172.991 32.4042 172.728 32.4386C172.464 32.4718 172.083 32.4948 171.587 32.5076C171.299 32.5127 171.049 32.5472 170.837 32.6085C170.626 32.6698 170.447 32.7681 170.303 32.9021C170.16 33.0375 170.046 33.2137 169.963 33.432C169.88 33.6491 169.827 33.9147 169.802 34.2275C169.943 33.939 170.165 33.704 170.469 33.524C170.773 33.3427 171.14 33.252 171.569 33.252C171.869 33.252 172.147 33.3031 172.401 33.404C172.655 33.5048 172.875 33.6529 173.059 33.8457C173.243 34.0386 173.386 34.2748 173.487 34.5531C173.588 34.8328 173.639 35.1469 173.639 35.4967V35.7087C173.639 36.0879 173.579 36.4301 173.459 36.734C173.34 37.0366 173.175 37.2933 172.967 37.5014C172.759 37.7108 172.511 37.8691 172.226 37.9802C171.942 38.09 171.63 38.1449 171.293 38.1449ZM171.293 37.2626C171.691 37.2626 172.011 37.1311 172.249 36.8668C172.488 36.6038 172.608 36.2169 172.608 35.7087V35.4967C172.608 35.0677 172.487 34.7332 172.244 34.4944C172.003 34.2543 171.685 34.1356 171.293 34.1356C170.901 34.1356 170.583 34.2531 170.34 34.4893C170.099 34.7255 169.977 35.0613 169.977 35.4967V35.7087C169.977 35.9538 170.011 36.1722 170.078 36.3663C170.146 36.5591 170.239 36.7212 170.359 36.8528C170.478 36.9855 170.619 37.0864 170.778 37.1566C170.937 37.2269 171.109 37.2626 171.293 37.2626ZM179.066 38.1449C178.736 38.1449 178.425 38.0836 178.138 37.9611C177.849 37.8385 177.6 37.6597 177.392 37.4235C177.184 37.1873 177.019 36.8962 176.9 36.5501C176.78 36.2028 176.72 35.8057 176.72 35.3588V35.175C176.72 34.6234 176.76 34.1318 176.84 33.7027C176.92 33.2737 177.056 32.9073 177.249 32.6034C177.443 32.3007 177.7 32.0645 178.022 31.896C178.345 31.7262 178.744 31.6304 179.222 31.6061C179.609 31.587 179.959 31.5704 180.272 31.5551C180.585 31.5397 180.841 31.4797 181.044 31.3763V32.3046C180.946 32.3595 180.765 32.4042 180.502 32.4386C180.237 32.4718 179.858 32.4948 179.361 32.5076C179.073 32.5127 178.822 32.5472 178.61 32.6085C178.4 32.6698 178.221 32.7681 178.078 32.9021C177.933 33.0375 177.82 33.2137 177.737 33.432C177.654 33.6491 177.6 33.9147 177.576 34.2275C177.718 33.939 177.94 33.704 178.243 33.524C178.546 33.3427 178.913 33.252 179.342 33.252C179.642 33.252 179.921 33.3031 180.175 33.404C180.429 33.5048 180.649 33.6529 180.832 33.8457C181.016 34.0386 181.159 34.2748 181.26 34.5531C181.361 34.8328 181.412 35.1469 181.412 35.4967V35.7087C181.412 36.0879 181.352 36.4301 181.232 36.734C181.113 37.0366 180.949 37.2933 180.74 37.5014C180.532 37.7108 180.285 37.8691 180 37.9802C179.715 38.09 179.403 38.1449 179.066 38.1449ZM179.066 37.2626C179.465 37.2626 179.784 37.1311 180.023 36.8668C180.262 36.6038 180.382 36.2169 180.382 35.7087V35.4967C180.382 35.0677 180.26 34.7332 180.019 34.4944C179.776 34.2543 179.458 34.1356 179.066 34.1356C178.674 34.1356 178.356 34.2531 178.115 34.4893C177.872 34.7255 177.751 35.0613 177.751 35.4967V35.7087C177.751 35.9538 177.784 36.1722 177.852 36.3663C177.919 36.5591 178.013 36.7212 178.133 36.8528C178.253 36.9855 178.392 37.0864 178.552 37.1566C178.711 37.2269 178.882 37.2626 179.066 37.2626ZM184.54 38.1449C184.215 38.1449 183.909 38.0951 183.62 37.9943C183.332 37.8921 183.079 37.7389 182.862 37.5333C182.643 37.3277 182.47 37.0698 182.342 36.757C182.213 36.4442 182.148 36.0764 182.148 35.6525V35.4686C182.148 35.0639 182.209 34.7115 182.332 34.4114C182.454 34.1101 182.622 33.8611 182.834 33.6619C183.046 33.4627 183.289 33.3133 183.565 33.215C183.841 33.1167 184.135 33.0681 184.448 33.0681C185.19 33.0681 185.759 33.2673 186.154 33.6657C186.55 34.0641 186.748 34.6348 186.748 35.3767V35.8926H183.178C183.185 36.1441 183.226 36.3561 183.302 36.531C183.379 36.7059 183.481 36.8476 183.606 36.9549C183.733 37.0622 183.876 37.14 184.039 37.1886C184.201 37.2384 184.369 37.2626 184.54 37.2626C184.89 37.2626 185.146 37.2077 185.309 37.0966C185.471 36.9868 185.583 36.8425 185.644 36.6651H186.656C186.557 37.149 186.317 37.5167 185.934 37.7683C185.55 38.0198 185.086 38.1449 184.54 38.1449ZM184.494 33.9517C184.323 33.9517 184.158 33.9722 184.002 34.0156C183.845 34.059 183.707 34.1279 183.588 34.2224C183.468 34.3182 183.371 34.4408 183.298 34.5902C183.224 34.7408 183.185 34.9234 183.178 35.1379H185.736C185.73 34.9106 185.694 34.7204 185.63 34.5672C185.565 34.4139 185.478 34.2914 185.369 34.1994C185.257 34.1075 185.127 34.0437 184.976 34.0066C184.827 33.9696 184.666 33.9517 184.494 33.9517ZM189.553 38.1449C188.891 38.1449 188.381 38.0096 188.022 37.7363C187.663 37.4631 187.468 37.0749 187.437 36.5731H188.468C188.499 36.794 188.597 36.9638 188.763 37.0826C188.928 37.2026 189.186 37.2626 189.536 37.2626C189.952 37.2626 190.24 37.195 190.4 37.0596C190.56 36.9255 190.639 36.757 190.639 36.554C190.639 36.3701 190.57 36.2245 190.432 36.1173C190.294 36.01 190.054 35.9564 189.711 35.9564H188.91V35.1647H189.645C189.928 35.1647 190.133 35.1073 190.262 34.9911C190.391 34.8736 190.455 34.7268 190.455 34.5493C190.455 34.3897 190.387 34.2505 190.253 34.1305C190.118 34.0105 189.884 33.9517 189.553 33.9517C189.198 33.9517 188.951 34.0092 188.813 34.1254C188.675 34.2429 188.591 34.3986 188.56 34.5953H187.529C187.56 34.1292 187.749 33.7576 188.095 33.4818C188.442 33.206 188.928 33.0681 189.553 33.0681C190.223 33.0681 190.712 33.1997 191.021 33.464C191.331 33.727 191.486 34.0705 191.486 34.4944C191.486 34.7268 191.428 34.9324 191.316 35.1098C191.202 35.2886 191.017 35.4227 190.759 35.5146C191.103 35.6002 191.34 35.7444 191.472 35.9475C191.603 36.1492 191.67 36.3829 191.67 36.6459C191.67 36.8553 191.626 37.0507 191.541 37.2345C191.455 37.4184 191.325 37.578 191.15 37.7134C190.975 37.8487 190.754 37.9534 190.487 38.03C190.22 38.1079 189.91 38.1449 189.553 38.1449ZM194.797 38.1449C194.46 38.1449 194.146 38.0913 193.855 37.9841C193.563 37.8768 193.311 37.7197 193.096 37.5103C192.88 37.3022 192.712 37.043 192.589 36.734C192.466 36.4237 192.405 36.0637 192.405 35.6525V35.4686C192.405 35.083 192.466 34.7408 192.589 34.4433C192.712 34.1458 192.88 33.8943 193.096 33.6887C193.311 33.4831 193.563 33.3286 193.855 33.2239C194.146 33.1205 194.46 33.0681 194.797 33.0681C195.134 33.0681 195.45 33.1205 195.741 33.2239C196.032 33.3286 196.285 33.4831 196.499 33.6887C196.714 33.8943 196.882 34.1458 197.005 34.4433C197.128 34.7408 197.189 35.083 197.189 35.4686V35.6525C197.189 36.0637 197.128 36.4237 197.005 36.734C196.882 37.043 196.714 37.3022 196.499 37.5103C196.285 37.7197 196.032 37.8768 195.741 37.9841C195.45 38.0913 195.134 38.1449 194.797 38.1449ZM194.797 37.2626C194.975 37.2626 195.146 37.232 195.308 37.1707C195.47 37.1094 195.614 37.0136 195.741 36.886C195.866 36.757 195.967 36.591 196.043 36.3893C196.12 36.1862 196.158 35.9411 196.158 35.6525V35.4686C196.158 35.2056 196.12 34.9783 196.043 34.7881C195.967 34.5978 195.866 34.442 195.741 34.3195C195.614 34.1969 195.47 34.1049 195.308 34.0437C195.146 33.9824 194.975 33.9517 194.797 33.9517C194.62 33.9517 194.45 33.9824 194.286 34.0437C194.124 34.1049 193.98 34.1969 193.855 34.3195C193.728 34.442 193.627 34.5978 193.551 34.7881C193.474 34.9783 193.436 35.2056 193.436 35.4686V35.6525C193.436 35.9411 193.474 36.1862 193.551 36.3893C193.627 36.591 193.728 36.757 193.855 36.886C193.98 37.0136 194.124 37.1094 194.286 37.1707C194.45 37.232 194.62 37.2626 194.797 37.2626ZM198.202 33.169H202.433V38.0441H201.421V34.0334H199.213V38.0441H198.202V33.169ZM205.146 38.1449C204.883 38.1449 204.648 38.1079 204.443 38.03C204.238 37.9534 204.065 37.8462 203.923 37.7083C203.782 37.5704 203.675 37.4095 203.601 37.2256C203.528 37.0417 203.491 36.84 203.491 36.6191C203.491 36.1339 203.636 35.7738 203.923 35.5376C204.211 35.3014 204.634 35.1839 205.192 35.1839H206.711V34.917C206.711 34.5493 206.629 34.2965 206.467 34.1586C206.305 34.0207 206.048 33.9517 205.699 33.9517C205.386 33.9517 205.156 34.0002 205.008 34.0986C204.861 34.1969 204.776 34.331 204.752 34.5033H203.767C203.779 34.2952 203.833 34.1024 203.928 33.9287C204.022 33.7538 204.155 33.6019 204.324 33.4729C204.492 33.3439 204.697 33.2443 204.936 33.1741C205.174 33.1039 205.444 33.0681 205.745 33.0681C206.045 33.0681 206.317 33.1026 206.559 33.169C206.801 33.2367 207.008 33.3427 207.179 33.4869C207.352 33.6312 207.485 33.8164 207.58 34.0437C207.675 34.2697 207.722 34.5429 207.722 34.8621V36.803C207.722 37.0596 207.726 37.2856 207.732 37.4784C207.739 37.6712 207.754 37.8602 207.778 38.0441H206.858C206.84 37.9036 206.826 37.7836 206.817 37.6853C206.808 37.587 206.803 37.4644 206.803 37.3175C206.686 37.5448 206.486 37.7389 206.2 37.9023C205.915 38.0645 205.564 38.1449 205.146 38.1449ZM205.423 37.2626C205.595 37.2626 205.759 37.2396 205.915 37.1937C206.071 37.1477 206.208 37.08 206.325 36.9907C206.441 36.9026 206.534 36.7915 206.605 36.6599C206.676 36.5284 206.711 36.3765 206.711 36.2041V35.9385H205.377C205.119 35.9385 204.913 35.9934 204.756 36.1032C204.6 36.2143 204.522 36.3765 204.522 36.591C204.522 36.794 204.593 36.9562 204.738 37.0788C204.882 37.2013 205.111 37.2626 205.423 37.2626ZM210.989 38.1449C210.657 38.1449 210.353 38.0951 210.073 37.9943C209.795 37.8921 209.552 37.7376 209.347 37.5295C209.141 37.3214 208.98 37.0596 208.864 36.7468C208.748 36.4352 208.689 36.07 208.689 35.6525V35.4686C208.689 35.0766 208.75 34.7306 208.873 34.4293C208.995 34.1292 209.163 33.8777 209.375 33.6759C209.585 33.4729 209.831 33.321 210.11 33.2201C210.389 33.1192 210.682 33.0681 210.989 33.0681C211.308 33.0681 211.592 33.1115 211.839 33.1971C212.088 33.2826 212.299 33.4014 212.474 33.5508C212.649 33.7015 212.788 33.8777 212.893 34.0794C212.998 34.2824 213.068 34.4995 213.105 34.7332H212.074C212.013 34.5059 211.902 34.3195 211.742 34.1713C211.584 34.0245 211.332 33.9517 210.989 33.9517C210.816 33.9517 210.654 33.9798 210.501 34.0386C210.348 34.0973 210.212 34.1879 210.096 34.3105C209.98 34.4331 209.888 34.5902 209.82 34.7842C209.753 34.977 209.719 35.2056 209.719 35.4686V35.6525C209.719 35.9411 209.753 36.1875 209.82 36.3931C209.888 36.5987 209.98 36.7659 210.096 36.8949C210.212 37.0239 210.348 37.1171 210.501 37.1745C210.654 37.2333 210.816 37.2626 210.989 37.2626C211.558 37.2626 211.921 37.0021 212.074 36.4812H213.105C213.055 36.7378 212.971 36.9702 212.852 37.1745C212.732 37.3801 212.58 37.555 212.396 37.6993C212.212 37.8436 212 37.9534 211.761 38.03C211.523 38.1079 211.265 38.1449 210.989 38.1449ZM214.07 33.169H215.082V35.129H217.382V33.169H218.394V38.0441H217.382V35.9934H215.082V38.0441H214.07V33.169ZM221.798 38.1449C221.461 38.1449 221.147 38.0913 220.855 37.9841C220.564 37.8768 220.31 37.7197 220.095 37.5103C219.881 37.3022 219.712 37.043 219.59 36.734C219.467 36.4237 219.406 36.0637 219.406 35.6525V35.4686C219.406 35.083 219.467 34.7408 219.59 34.4433C219.712 34.1458 219.881 33.8943 220.095 33.6887C220.31 33.4831 220.564 33.3286 220.855 33.2239C221.147 33.1205 221.461 33.0681 221.798 33.0681C222.135 33.0681 222.449 33.1205 222.74 33.2239C223.033 33.3286 223.286 33.4831 223.5 33.6887C223.715 33.8943 223.883 34.1458 224.006 34.4433C224.128 34.7408 224.19 35.083 224.19 35.4686V35.6525C224.19 36.0637 224.128 36.4237 224.006 36.734C223.883 37.043 223.715 37.3022 223.5 37.5103C223.286 37.7197 223.033 37.8768 222.74 37.9841C222.449 38.0913 222.135 38.1449 221.798 38.1449ZM221.798 37.2626C221.975 37.2626 222.146 37.232 222.309 37.1707C222.471 37.1094 222.615 37.0136 222.74 36.886C222.867 36.757 222.968 36.591 223.044 36.3893C223.121 36.1862 223.159 35.9411 223.159 35.6525V35.4686C223.159 35.2056 223.121 34.9783 223.044 34.7881C222.968 34.5978 222.867 34.442 222.74 34.3195C222.615 34.1969 222.471 34.1049 222.309 34.0437C222.146 33.9824 221.975 33.9517 221.798 33.9517C221.62 33.9517 221.45 33.9824 221.287 34.0437C221.125 34.1049 220.981 34.1969 220.855 34.3195C220.729 34.442 220.628 34.5978 220.551 34.7881C220.475 34.9783 220.436 35.2056 220.436 35.4686V35.6525C220.436 35.9411 220.475 36.1862 220.551 36.3893C220.628 36.591 220.729 36.757 220.855 36.886C220.981 37.0136 221.125 37.1094 221.287 37.1707C221.45 37.232 221.62 37.2626 221.798 37.2626ZM227.225 38.1449C226.895 38.1449 226.589 38.0951 226.31 37.9943C226.031 37.8921 225.789 37.7376 225.583 37.5295C225.379 37.3214 225.218 37.0596 225.1 36.7468C224.984 36.4352 224.925 36.07 224.925 35.6525V35.4686C224.925 35.0766 224.987 34.7306 225.109 34.4293C225.232 34.1292 225.399 33.8777 225.611 33.6759C225.823 33.4729 226.068 33.321 226.347 33.2201C226.626 33.1192 226.919 33.0681 227.225 33.0681C227.545 33.0681 227.828 33.1115 228.077 33.1971C228.325 33.2826 228.537 33.4014 228.712 33.5508C228.887 33.7015 229.026 33.8777 229.129 34.0794C229.234 34.2824 229.304 34.4995 229.341 34.7332H228.311C228.25 34.5059 228.14 34.3195 227.98 34.1713C227.82 34.0245 227.569 33.9517 227.225 33.9517C227.054 33.9517 226.892 33.9798 226.739 34.0386C226.584 34.0973 226.45 34.1879 226.333 34.3105C226.216 34.4331 226.124 34.5902 226.057 34.7842C225.99 34.977 225.956 35.2056 225.956 35.4686V35.6525C225.956 35.9411 225.99 36.1875 226.057 36.3931C226.124 36.5987 226.216 36.7659 226.333 36.8949C226.45 37.0239 226.584 37.1171 226.739 37.1745C226.892 37.2333 227.054 37.2626 227.225 37.2626C227.796 37.2626 228.158 37.0021 228.311 36.4812H229.341C229.293 36.7378 229.209 36.9702 229.089 37.1745C228.968 37.3801 228.818 37.555 228.633 37.6993C228.449 37.8436 228.238 37.9534 227.998 38.03C227.759 38.1079 227.501 38.1449 227.225 38.1449ZM231.457 34.0334H229.847V33.169H234.079V34.0334H232.469V38.0441H231.457V34.0334ZM234.907 33.169H235.92V36.6191L238.265 33.169H239.231V38.0441H238.219V34.5953L235.874 38.0441H234.907V33.169ZM242.819 33.169H243.831V36.6191L246.177 33.169H247.142V38.0441H246.131V34.5953L243.785 38.0441H242.819V33.169ZM250.271 37.1796H250.823C250.884 37.0877 250.94 36.9498 250.993 36.7659C251.045 36.5821 251.09 36.3714 251.125 36.1352C251.162 35.9002 251.191 35.6448 251.208 35.3729C251.228 35.0996 251.237 34.8251 251.237 34.5493V33.169H254.87V37.1796H255.515V39.1945H254.576V38.0441H251.208V39.1945H250.271V37.1796ZM253.858 37.1796V34.0334H252.211V34.7332C252.211 35.2056 252.184 35.6576 252.129 36.0892C252.073 36.522 251.981 36.886 251.852 37.1796H253.858ZM258.458 38.1449C258.121 38.1449 257.806 38.0913 257.515 37.9841C257.223 37.8768 256.97 37.7197 256.756 37.5103C256.541 37.3022 256.373 37.043 256.25 36.734C256.128 36.4237 256.066 36.0637 256.066 35.6525V35.4686C256.066 35.083 256.128 34.7408 256.25 34.4433C256.373 34.1458 256.541 33.8943 256.756 33.6887C256.97 33.4831 257.223 33.3286 257.515 33.2239C257.806 33.1205 258.121 33.0681 258.458 33.0681C258.795 33.0681 259.11 33.1205 259.401 33.2239C259.692 33.3286 259.945 33.4831 260.159 33.6887C260.375 33.8943 260.544 34.1458 260.666 34.4433C260.789 34.7408 260.85 35.083 260.85 35.4686V35.6525C260.85 36.0637 260.789 36.4237 260.666 36.734C260.544 37.043 260.375 37.3022 260.159 37.5103C259.945 37.7197 259.692 37.8768 259.401 37.9841C259.11 38.0913 258.795 38.1449 258.458 38.1449ZM258.458 37.2626C258.636 37.2626 258.806 37.232 258.969 37.1707C259.131 37.1094 259.276 37.0136 259.401 36.886C259.527 36.757 259.628 36.591 259.705 36.3893C259.781 36.1862 259.82 35.9411 259.82 35.6525V35.4686C259.82 35.2056 259.781 34.9783 259.705 34.7881C259.628 34.5978 259.527 34.442 259.401 34.3195C259.276 34.1969 259.131 34.1049 258.969 34.0437C258.806 33.9824 258.636 33.9517 258.458 33.9517C258.281 33.9517 258.11 33.9824 257.947 34.0437C257.785 34.1049 257.641 34.1969 257.515 34.3195C257.389 34.442 257.288 34.5978 257.212 34.7881C257.135 34.9783 257.097 35.2056 257.097 35.4686V35.6525C257.097 35.9411 257.135 36.1862 257.212 36.3893C257.288 36.591 257.389 36.757 257.515 36.886C257.641 37.0136 257.785 37.1094 257.947 37.1707C258.11 37.232 258.281 37.2626 258.458 37.2626ZM263.886 38.1449C263.555 38.1449 263.25 38.0951 262.97 37.9943C262.692 37.8921 262.449 37.7376 262.243 37.5295C262.038 37.3214 261.877 37.0596 261.761 36.7468C261.645 36.4352 261.586 36.07 261.586 35.6525V35.4686C261.586 35.0766 261.647 34.7306 261.77 34.4293C261.892 34.1292 262.06 33.8777 262.272 33.6759C262.482 33.4729 262.727 33.321 263.007 33.2201C263.287 33.1192 263.579 33.0681 263.886 33.0681C264.205 33.0681 264.489 33.1115 264.736 33.1971C264.985 33.2826 265.196 33.4014 265.371 33.5508C265.546 33.7015 265.685 33.8777 265.79 34.0794C265.895 34.2824 265.965 34.4995 266.002 34.7332H264.971C264.91 34.5059 264.799 34.3195 264.64 34.1713C264.481 34.0245 264.229 33.9517 263.886 33.9517C263.713 33.9517 263.551 33.9798 263.398 34.0386C263.245 34.0973 263.109 34.1879 262.993 34.3105C262.877 34.4331 262.785 34.5902 262.717 34.7842C262.65 34.977 262.616 35.2056 262.616 35.4686V35.6525C262.616 35.9411 262.65 36.1875 262.717 36.3931C262.785 36.5987 262.877 36.7659 262.993 36.8949C263.109 37.0239 263.245 37.1171 263.398 37.1745C263.551 37.2333 263.713 37.2626 263.886 37.2626C264.457 37.2626 264.818 37.0021 264.971 36.4812H266.002C265.952 36.7378 265.868 36.9702 265.749 37.1745C265.629 37.3801 265.477 37.555 265.293 37.6993C265.109 37.8436 264.897 37.9534 264.658 38.03C264.42 38.1079 264.162 38.1449 263.886 38.1449ZM266.967 33.169H268.108L269.663 36.0202L271.217 33.169H272.303V38.0441H271.291V34.6872L270.003 37.0328H269.267L267.98 34.6872V38.0441H266.967V33.169ZM275.707 38.1449C275.37 38.1449 275.055 38.0913 274.764 37.9841C274.473 37.8768 274.22 37.7197 274.005 37.5103C273.791 37.3022 273.622 37.043 273.499 36.734C273.377 36.4237 273.316 36.0637 273.316 35.6525V35.4686C273.316 35.083 273.377 34.7408 273.499 34.4433C273.622 34.1458 273.791 33.8943 274.005 33.6887C274.22 33.4831 274.473 33.3286 274.764 33.2239C275.055 33.1205 275.37 33.0681 275.707 33.0681C276.045 33.0681 276.359 33.1205 276.65 33.2239C276.941 33.3286 277.194 33.4831 277.408 33.6887C277.624 33.8943 277.792 34.1458 277.915 34.4433C278.038 34.7408 278.099 35.083 278.099 35.4686V35.6525C278.099 36.0637 278.038 36.4237 277.915 36.734C277.792 37.043 277.624 37.3022 277.408 37.5103C277.194 37.7197 276.941 37.8768 276.65 37.9841C276.359 38.0913 276.045 38.1449 275.707 38.1449ZM275.707 37.2626C275.885 37.2626 276.055 37.232 276.218 37.1707C276.38 37.1094 276.525 37.0136 276.65 36.886C276.776 36.757 276.877 36.591 276.954 36.3893C277.03 36.1862 277.069 35.9411 277.069 35.6525V35.4686C277.069 35.2056 277.03 34.9783 276.954 34.7881C276.877 34.5978 276.776 34.442 276.65 34.3195C276.525 34.1969 276.38 34.1049 276.218 34.0437C276.055 33.9824 275.885 33.9517 275.707 33.9517C275.53 33.9517 275.359 33.9824 275.197 34.0437C275.034 34.1049 274.89 34.1969 274.764 34.3195C274.639 34.442 274.538 34.5978 274.461 34.7881C274.384 34.9783 274.346 35.2056 274.346 35.4686V35.6525C274.346 35.9411 274.384 36.1862 274.461 36.3893C274.538 36.591 274.639 36.757 274.764 36.886C274.89 37.0136 275.034 37.1094 275.197 37.1707C275.359 37.232 275.53 37.2626 275.707 37.2626ZM280.168 34.0334H278.559V33.169H282.791V34.0334H281.181V38.0441H280.168V34.0334ZM283.619 33.169H284.557V33.9875C284.704 33.7053 284.924 33.4818 285.215 33.3171C285.506 33.1511 285.836 33.0681 286.204 33.0681C286.842 33.0681 287.344 33.2673 287.712 33.6657C288.081 34.0641 288.265 34.6655 288.265 35.4686V35.6525C288.265 36.07 288.215 36.4352 288.118 36.7468C288.02 37.0596 287.879 37.3188 287.699 37.5244C287.518 37.73 287.302 37.8845 287.05 37.9892C286.799 38.0939 286.516 38.1449 286.204 38.1449C285.854 38.1449 285.536 38.0683 285.247 37.9151C284.958 37.7619 284.753 37.5474 284.63 37.2716V39.884H283.619V33.169ZM285.965 37.2626C286.345 37.2626 286.652 37.1311 286.884 36.8668C287.118 36.6038 287.234 36.199 287.234 35.6525V35.4686C287.234 34.9541 287.121 34.5723 286.893 34.3233C286.667 34.0756 286.357 33.9517 285.965 33.9517C285.792 33.9517 285.628 33.9785 285.468 34.0334C285.308 34.0896 285.165 34.1701 285.04 34.2773C284.914 34.3846 284.814 34.5199 284.741 34.6821C284.667 34.8455 284.63 35.0307 284.63 35.2388V35.8823C284.63 36.116 284.667 36.3177 284.741 36.4901C284.814 36.6612 284.912 36.8055 285.035 36.9217C285.158 37.0392 285.299 37.1247 285.459 37.1796C285.617 37.2345 285.787 37.2626 285.965 37.2626ZM290.703 38.1449C290.438 38.1449 290.203 38.1079 289.999 38.03C289.793 37.9534 289.62 37.8462 289.479 37.7083C289.337 37.5704 289.23 37.4095 289.157 37.2256C289.083 37.0417 289.046 36.84 289.046 36.6191C289.046 36.1339 289.191 35.7738 289.479 35.5376C289.767 35.3014 290.191 35.1839 290.749 35.1839H292.266V34.917C292.266 34.5493 292.185 34.2965 292.022 34.1586C291.86 34.0207 291.604 33.9517 291.254 33.9517C290.941 33.9517 290.712 34.0002 290.565 34.0986C290.417 34.1969 290.331 34.331 290.307 34.5033H289.322C289.335 34.2952 289.389 34.1024 289.483 33.9287C289.579 33.7538 289.71 33.6019 289.879 33.4729C290.048 33.3439 290.252 33.2443 290.491 33.1741C290.729 33.1039 291 33.0681 291.3 33.0681C291.6 33.0681 291.872 33.1026 292.114 33.169C292.356 33.2367 292.563 33.3427 292.736 33.4869C292.907 33.6312 293.041 33.8164 293.135 34.0437C293.23 34.2697 293.278 34.5429 293.278 34.8621V36.803C293.278 37.0596 293.281 37.2856 293.287 37.4784C293.294 37.6712 293.309 37.8602 293.333 38.0441H292.414C292.395 37.9036 292.381 37.7836 292.372 37.6853C292.363 37.587 292.358 37.4644 292.358 37.3175C292.242 37.5448 292.041 37.7389 291.756 37.9023C291.47 38.0645 291.119 38.1449 290.703 38.1449ZM290.978 37.2626C291.15 37.2626 291.314 37.2396 291.47 37.1937C291.627 37.1477 291.764 37.08 291.88 36.9907C291.996 36.9026 292.09 36.7915 292.16 36.6599C292.231 36.5284 292.266 36.3765 292.266 36.2041V35.9385H290.933C290.675 35.9385 290.468 35.9934 290.312 36.1032C290.155 36.2143 290.077 36.3765 290.077 36.591C290.077 36.794 290.148 36.9562 290.293 37.0788C290.437 37.2013 290.666 37.2626 290.978 37.2626ZM148.294 12.6767C148.582 12.6767 148.824 12.6537 149.021 12.6077C149.216 12.5618 149.373 12.4941 149.49 12.4047C149.606 12.3153 149.689 12.203 149.739 12.0638C149.787 11.9259 149.811 11.765 149.811 11.5811C149.811 11.3973 149.787 11.2376 149.739 11.1036C149.689 10.9682 149.606 10.8546 149.49 10.7627C149.373 10.6707 149.216 10.6018 149.021 10.5558C148.824 10.5098 148.582 10.4869 148.294 10.4869H147.144V12.6767H148.294ZM153.952 16.0706C153.626 16.0706 153.32 16.0195 153.031 15.9186C152.744 15.8177 152.491 15.6632 152.272 15.4589C152.055 15.2534 151.882 14.9942 151.753 14.6813C151.624 14.3685 151.56 14.0008 151.56 13.5781V13.393C151.56 12.9882 151.621 12.6358 151.744 12.3357C151.866 12.0357 152.034 11.7854 152.246 11.5862C152.456 11.387 152.7 11.2376 152.976 11.1393C153.252 11.0423 153.547 10.9925 153.86 10.9925C154.602 10.9925 155.17 11.1917 155.566 11.5913C155.962 11.9897 156.16 12.5592 156.16 13.3011V13.8169H152.59C152.595 14.0684 152.638 14.2817 152.714 14.4553C152.791 14.6303 152.892 14.772 153.018 14.8793C153.143 14.9865 153.288 15.0644 153.45 15.1129C153.612 15.1627 153.779 15.187 153.952 15.187C154.3 15.187 154.557 15.1321 154.719 15.021C154.883 14.9112 154.994 14.7669 155.055 14.5894H156.068C155.969 15.0733 155.728 15.4411 155.345 15.6926C154.962 15.9442 154.497 16.0706 153.952 16.0706ZM153.906 11.8761C153.733 11.8761 153.57 11.8978 153.413 11.9399C153.257 11.9833 153.119 12.0523 152.999 12.1468C152.88 12.2425 152.783 12.3651 152.709 12.5145C152.636 12.6652 152.595 12.8478 152.59 13.0623H155.147C155.141 12.835 155.106 12.646 155.041 12.4915C154.977 12.3383 154.89 12.2157 154.779 12.1238C154.669 12.0319 154.539 11.968 154.388 11.931C154.238 11.894 154.077 11.8761 153.906 11.8761ZM159.195 16.0706C158.863 16.0706 158.559 16.0195 158.28 15.9186C158.001 15.8177 157.759 15.662 157.553 15.4538C157.347 15.2457 157.186 14.9852 157.07 14.6724C156.954 14.3596 156.895 13.9944 156.895 13.5781V13.393C156.895 13.001 156.957 12.655 157.079 12.3536C157.202 12.0536 157.369 11.802 157.581 11.6003C157.792 11.3973 158.037 11.2453 158.317 11.1444C158.595 11.0436 158.889 10.9925 159.195 10.9925C159.515 10.9925 159.798 11.0359 160.046 11.1215C160.295 11.207 160.506 11.3258 160.68 11.4751C160.855 11.6258 160.995 11.802 161.099 12.005C161.204 12.2068 161.274 12.4251 161.311 12.6575H160.281C160.219 12.4302 160.108 12.2438 159.949 12.097C159.79 11.9489 159.539 11.8761 159.195 11.8761C159.023 11.8761 158.861 11.9054 158.707 11.9629C158.554 12.0216 158.419 12.1123 158.303 12.2349C158.186 12.3575 158.094 12.5145 158.027 12.7086C157.959 12.9014 157.926 13.13 157.926 13.393V13.5781C157.926 13.8654 157.959 14.1119 158.027 14.3174C158.094 14.523 158.186 14.6903 158.303 14.8192C158.419 14.9482 158.554 15.0414 158.707 15.1002C158.861 15.1576 159.023 15.187 159.195 15.187C159.765 15.187 160.128 14.9265 160.281 14.4055H161.311C161.262 14.6622 161.177 14.8946 161.058 15.1002C160.938 15.3057 160.786 15.4794 160.603 15.6237C160.419 15.7679 160.207 15.879 159.968 15.9556C159.729 16.0323 159.471 16.0706 159.195 16.0706ZM162.277 11.0934H166.509V15.9684H165.496V11.9591H163.29V15.9684H162.277V11.0934ZM168.579 17.9092C168.487 17.9092 168.395 17.9003 168.302 17.8824V16.9988C168.395 17.018 168.487 17.0269 168.579 17.0269C168.683 17.0269 168.771 17.0103 168.841 16.9759C168.911 16.9427 168.976 16.8839 169.034 16.8009C169.092 16.7179 169.15 16.6094 169.209 16.4753C169.267 16.34 169.333 16.1714 169.407 15.9684L167.336 11.0934H168.441L169.931 14.8652L171.274 11.0934H172.304L170.418 15.9684C170.284 16.3119 170.158 16.6068 170.041 16.852C169.925 17.0972 169.797 17.2976 169.659 17.4547C169.522 17.6105 169.367 17.7254 169.195 17.7994C169.023 17.8735 168.818 17.9092 168.579 17.9092ZM175.248 16.0706C174.917 16.0706 174.608 16.0093 174.319 15.8867C174.031 15.7641 173.783 15.5841 173.574 15.3479C173.365 15.1116 173.202 14.8205 173.082 14.4745C172.962 14.1285 172.902 13.7314 172.902 13.2832V13.0993C172.902 12.5477 172.943 12.0574 173.022 11.6271C173.102 11.1981 173.238 10.8316 173.432 10.5277C173.625 10.2251 173.883 9.98888 174.204 9.82033C174.526 9.65179 174.926 9.55474 175.405 9.53048C175.791 9.51133 176.141 9.49473 176.453 9.47941C176.766 9.46409 177.024 9.40407 177.226 9.30065V10.2289C177.128 10.2851 176.948 10.3285 176.683 10.363C176.42 10.3962 176.04 10.4192 175.543 10.4319C175.254 10.4383 175.004 10.4715 174.793 10.5328C174.581 10.5941 174.404 10.6924 174.259 10.8278C174.115 10.9618 174.001 11.1381 173.918 11.3564C173.837 11.5735 173.783 11.839 173.758 12.1519C173.899 11.8633 174.121 11.6284 174.425 11.4483C174.728 11.267 175.095 11.1764 175.524 11.1764C175.825 11.1764 176.102 11.2274 176.356 11.3283C176.612 11.4292 176.83 11.5773 177.014 11.7701C177.198 11.9629 177.341 12.1991 177.442 12.4788C177.544 12.7571 177.594 13.0712 177.594 13.4211V13.633C177.594 14.0123 177.534 14.3545 177.415 14.6584C177.295 14.9623 177.132 15.2176 176.922 15.4257C176.714 15.6352 176.467 15.7935 176.181 15.9046C175.897 16.0144 175.585 16.0706 175.248 16.0706ZM175.248 15.187C175.648 15.187 175.966 15.0555 176.204 14.7911C176.444 14.5281 176.563 14.1412 176.563 13.633V13.4211C176.563 12.9921 176.443 12.6575 176.201 12.4187C175.958 12.1787 175.641 12.0599 175.248 12.0599C174.856 12.0599 174.539 12.1774 174.296 12.4136C174.054 12.6499 173.932 12.9857 173.932 13.4211V13.633C173.932 13.8782 173.967 14.0965 174.035 14.2906C174.101 14.4834 174.196 14.6456 174.314 14.7771C174.434 14.9099 174.574 15.0108 174.733 15.081C174.893 15.1512 175.064 15.187 175.248 15.187ZM178.423 16.0706C178.373 16.0706 178.319 16.068 178.262 16.0655C178.203 16.0629 178.149 16.0552 178.101 16.0425V15.0861C178.131 15.0925 178.177 15.095 178.239 15.095C178.368 15.095 178.478 15.0567 178.569 14.9801C178.661 14.9035 178.737 14.7682 178.794 14.5754C178.853 14.3826 178.898 14.1234 178.928 13.7978C178.959 13.4734 178.974 13.0623 178.974 12.5656V11.0934H182.654V15.9684H181.642V11.9591H179.949V12.7494C179.949 13.4058 179.917 13.9471 179.853 14.3736C179.788 14.7988 179.692 15.1385 179.563 15.39C179.434 15.6403 179.274 15.8177 179.084 15.9186C178.894 16.0195 178.674 16.0706 178.423 16.0706ZM183.942 11.0934H184.953V14.5434L187.299 11.0934H188.266V15.9684H187.253V12.5196L184.908 15.9684H183.942V11.0934ZM189.553 11.0934H190.566V13.0712H191.118L192.829 11.0934H193.969L191.899 13.4211L194.061 15.9684H192.829L191.118 13.8999H190.566V15.9684H189.553V11.0934ZM196.224 16.0706C195.959 16.0706 195.725 16.0323 195.52 15.9556C195.314 15.879 195.141 15.7705 195 15.6326C194.858 15.4947 194.751 15.3338 194.678 15.1499C194.604 14.9661 194.567 14.7643 194.567 14.5434C194.567 14.0595 194.711 13.6982 195 13.4619C195.287 13.227 195.711 13.1082 196.269 13.1082H197.787V12.8414C197.787 12.4736 197.706 12.2208 197.543 12.0829C197.381 11.945 197.125 11.8761 196.775 11.8761C196.462 11.8761 196.232 11.9246 196.086 12.0229C195.937 12.1212 195.852 12.2566 195.828 12.4277H194.843C194.856 12.2196 194.909 12.028 195.004 11.8531C195.1 11.6782 195.231 11.5262 195.4 11.3973C195.568 11.2683 195.773 11.1687 196.012 11.0985C196.25 11.0282 196.521 10.9925 196.821 10.9925C197.121 10.9925 197.393 11.027 197.636 11.0934C197.877 11.161 198.084 11.267 198.257 11.4113C198.428 11.5556 198.562 11.7407 198.656 11.968C198.752 12.1953 198.799 12.4673 198.799 12.7865V14.7273C198.799 14.9852 198.802 15.21 198.808 15.4028C198.815 15.5968 198.83 15.7845 198.854 15.9684H197.935C197.916 15.828 197.902 15.7079 197.893 15.6096C197.884 15.5126 197.879 15.39 197.879 15.2419C197.762 15.4692 197.562 15.6632 197.277 15.8267C196.991 15.9888 196.64 16.0706 196.224 16.0706ZM196.499 15.187C196.67 15.187 196.835 15.164 196.991 15.118C197.148 15.0721 197.285 15.0044 197.401 14.9163C197.517 14.8269 197.61 14.7171 197.682 14.5843C197.752 14.4528 197.787 14.3008 197.787 14.1297V13.8629H196.453C196.195 13.8629 195.989 13.9178 195.833 14.0276C195.676 14.1387 195.598 14.3008 195.598 14.5153C195.598 14.7184 195.669 14.8805 195.814 15.0031C195.958 15.1257 196.186 15.187 196.499 15.187ZM200.041 11.0934H201.053V13.0533H203.353V11.0934H204.365V15.9684H203.353V13.9178H201.053V15.9684H200.041V11.0934ZM207.676 16.0706C207.345 16.0706 207.04 16.0195 206.762 15.9186C206.482 15.8177 206.239 15.662 206.035 15.4538C205.83 15.2457 205.669 14.9852 205.551 14.6724C205.435 14.3596 205.376 13.9944 205.376 13.5781V13.393C205.376 13.001 205.439 12.655 205.561 12.3536C205.684 12.0536 205.851 11.802 206.062 11.6003C206.274 11.3973 206.519 11.2453 206.798 11.1444C207.077 11.0436 207.37 10.9925 207.676 10.9925C207.995 10.9925 208.279 11.0359 208.528 11.1215C208.776 11.207 208.988 11.3258 209.163 11.4751C209.338 11.6258 209.477 11.802 209.582 12.005C209.685 12.2068 209.755 12.4251 209.792 12.6575H208.762C208.7 12.4302 208.591 12.2438 208.431 12.097C208.271 11.9489 208.02 11.8761 207.676 11.8761C207.505 11.8761 207.343 11.9054 207.19 11.9629C207.036 12.0216 206.901 12.1123 206.785 12.2349C206.667 12.3575 206.575 12.5145 206.509 12.7086C206.441 12.9014 206.407 13.13 206.407 13.393V13.5781C206.407 13.8654 206.441 14.1119 206.509 14.3174C206.575 14.523 206.667 14.6903 206.785 14.8192C206.901 14.9482 207.036 15.0414 207.19 15.1002C207.343 15.1576 207.505 15.187 207.676 15.187C208.247 15.187 208.608 14.9265 208.762 14.4055H209.792C209.744 14.6622 209.659 14.8946 209.539 15.1002C209.419 15.3057 209.269 15.4794 209.083 15.6237C208.9 15.7679 208.689 15.879 208.449 15.9556C208.21 16.0323 207.952 16.0706 207.676 16.0706ZM210.759 11.0934H211.77V13.0712H212.322L214.033 11.0934H215.174L213.105 13.4211L215.266 15.9684H214.033L212.322 13.8999H211.77V15.9684H210.759V11.0934ZM216.094 11.0934H217.106V14.5434L219.452 11.0934H220.417V15.9684H219.406V12.5196L217.06 15.9684H216.094V11.0934ZM221.706 11.0934H222.717V14.5434L225.063 11.0934H226.03V15.9684H225.017V12.5196L222.671 15.9684H221.706V11.0934ZM223.868 10.5418C223.358 10.5418 222.985 10.4307 222.751 10.2059C222.514 9.98249 222.395 9.66455 222.395 9.25468H223.334C223.334 9.47558 223.379 9.63519 223.467 9.73223C223.556 9.83055 223.69 9.88034 223.868 9.88034C224.045 9.88034 224.18 9.83055 224.268 9.73223C224.357 9.63519 224.402 9.47558 224.402 9.25468H225.339C225.339 9.66455 225.22 9.98249 224.98 10.2059C224.741 10.4307 224.371 10.5418 223.868 10.5418ZM233.554 15.9684H229.617V11.0934H230.629V15.104H232.745V11.0934H233.757V15.104H234.493V17.1189H233.554V15.9684ZM237.437 16.0706C237.112 16.0706 236.806 16.0195 236.517 15.9186C236.229 15.8177 235.976 15.6632 235.757 15.4589C235.54 15.2534 235.367 14.9942 235.238 14.6813C235.11 14.3685 235.045 14.0008 235.045 13.5781V13.393C235.045 12.9882 235.106 12.6358 235.229 12.3357C235.351 12.0357 235.519 11.7854 235.731 11.5862C235.942 11.387 236.186 11.2376 236.462 11.1393C236.738 11.0423 237.032 10.9925 237.345 10.9925C238.087 10.9925 238.656 11.1917 239.051 11.5913C239.447 11.9897 239.645 12.5592 239.645 13.3011V13.8169H236.075C236.082 14.0684 236.123 14.2817 236.199 14.4553C236.276 14.6303 236.378 14.772 236.503 14.8793C236.63 14.9865 236.773 15.0644 236.936 15.1129C237.098 15.1627 237.266 15.187 237.437 15.187C237.787 15.187 238.042 15.1321 238.205 15.021C238.368 14.9112 238.48 14.7669 238.541 14.5894H239.553C239.454 15.0733 239.214 15.4411 238.831 15.6926C238.447 15.9442 237.983 16.0706 237.437 16.0706ZM237.391 11.8761C237.22 11.8761 237.055 11.8978 236.899 11.9399C236.742 11.9833 236.604 12.0523 236.485 12.1468C236.365 12.2425 236.268 12.3651 236.195 12.5145C236.121 12.6652 236.082 12.8478 236.075 13.0623H238.633C238.627 12.835 238.591 12.646 238.527 12.4915C238.462 12.3383 238.375 12.2157 238.265 12.1238C238.154 12.0319 238.024 11.968 237.873 11.931C237.724 11.894 237.563 11.8761 237.391 11.8761ZM240.656 11.0934H241.669V13.0533H243.969V11.0934H244.98V15.9684H243.969V13.9178H241.669V15.9684H240.656V11.0934ZM247.418 11.9591H245.809V11.0934H250.04V11.9591H248.431V15.9684H247.418V11.9591ZM250.867 11.0934H251.806V11.9131C251.953 11.6309 252.173 11.4062 252.464 11.2415C252.755 11.0755 253.086 10.9925 253.453 10.9925C254.091 10.9925 254.594 11.1917 254.962 11.5913C255.329 11.9897 255.513 12.5898 255.513 13.393V13.5781C255.513 13.9944 255.465 14.3596 255.367 14.6724C255.268 14.9852 255.129 15.2432 254.948 15.4487C254.768 15.6543 254.55 15.8101 254.299 15.9135C254.047 16.0182 253.766 16.0706 253.453 16.0706C253.104 16.0706 252.784 15.994 252.497 15.8407C252.208 15.6862 252.003 15.4717 251.88 15.1959V17.8084H250.867V11.0934ZM253.213 15.187C253.594 15.187 253.9 15.0555 254.134 14.7911C254.367 14.5281 254.483 14.1234 254.483 13.5781V13.393C254.483 12.8784 254.37 12.4966 254.143 12.2489C253.916 11.9999 253.607 11.8761 253.213 11.8761C253.042 11.8761 252.876 11.9029 252.717 11.9591C252.558 12.014 252.415 12.0957 252.289 12.203C252.164 12.3102 252.064 12.4443 251.99 12.6077C251.917 12.7699 251.88 12.955 251.88 13.1632V13.808C251.88 14.0404 251.917 14.2434 251.99 14.4145C252.064 14.5856 252.162 14.7299 252.285 14.8473C252.408 14.9635 252.548 15.0491 252.708 15.104C252.867 15.1602 253.036 15.187 253.213 15.187ZM145.856 22.1318H150.087V27.0069H149.076V22.9963H146.868V27.0069H145.856V22.1318ZM153.492 27.1078C153.155 27.1078 152.839 27.0541 152.548 26.9469C152.257 26.8396 152.004 26.6813 151.79 26.4732C151.575 26.265 151.406 26.0058 151.284 25.6955C151.161 25.3865 151.1 25.0265 151.1 24.6153V24.4315C151.1 24.0446 151.161 23.7024 151.284 23.4061C151.406 23.1086 151.575 22.8571 151.79 22.6515C152.004 22.4459 152.257 22.2914 152.548 22.1867C152.839 22.0833 153.155 22.031 153.492 22.031C153.829 22.031 154.143 22.0833 154.434 22.1867C154.726 22.2914 154.978 22.4459 155.193 22.6515C155.408 22.8571 155.576 23.1086 155.7 23.4061C155.823 23.7024 155.884 24.0446 155.884 24.4315V24.6153C155.884 25.0265 155.823 25.3865 155.7 25.6955C155.576 26.0058 155.408 26.265 155.193 26.4732C154.978 26.6813 154.726 26.8396 154.434 26.9469C154.143 27.0541 153.829 27.1078 153.492 27.1078ZM153.492 26.2254C153.669 26.2254 153.839 26.1935 154.001 26.1322C154.165 26.0709 154.309 25.9765 154.434 25.8475C154.56 25.7185 154.662 25.5538 154.738 25.3508C154.815 25.149 154.853 24.9039 154.853 24.6153V24.4315C154.853 24.1671 154.815 23.9411 154.738 23.7509C154.662 23.5606 154.56 23.4036 154.434 23.281C154.309 23.1584 154.165 23.0665 154.001 23.0052C153.839 22.9439 153.669 22.9133 153.492 22.9133C153.313 22.9133 153.143 22.9439 152.981 23.0052C152.819 23.0665 152.675 23.1584 152.548 23.281C152.423 23.4036 152.322 23.5606 152.246 23.7509C152.169 23.9411 152.131 24.1671 152.131 24.4315V24.6153C152.131 24.9039 152.169 25.149 152.246 25.3508C152.322 25.5538 152.423 25.7185 152.548 25.8475C152.675 25.9765 152.819 26.0709 152.981 26.1322C153.143 26.1935 153.313 26.2254 153.492 26.2254ZM156.39 26.1424H156.941C157.003 26.0505 157.06 25.9126 157.111 25.7275C157.163 25.5436 157.208 25.3342 157.245 25.098C157.282 24.8618 157.309 24.6077 157.328 24.3344C157.346 24.0612 157.355 23.7879 157.355 23.5108V22.1318H160.99V26.1424H161.633V28.1561H160.695V27.0069H157.328V28.1561H156.39V26.1424ZM159.977 26.1424V22.9963H158.331V23.696C158.331 24.1671 158.303 24.6204 158.248 25.052C158.193 25.4849 158.101 25.8475 157.972 26.1424H159.977ZM162.507 22.1318H165.911V22.9963H163.519V27.0069H162.507V22.1318ZM168.763 27.1078C168.426 27.1078 168.11 27.0541 167.819 26.9469C167.528 26.8396 167.275 26.6813 167.061 26.4732C166.846 26.265 166.678 26.0058 166.555 25.6955C166.432 25.3865 166.371 25.0265 166.371 24.6153V24.4315C166.371 24.0446 166.432 23.7024 166.555 23.4061C166.678 23.1086 166.846 22.8571 167.061 22.6515C167.275 22.4459 167.528 22.2914 167.819 22.1867C168.11 22.0833 168.426 22.031 168.763 22.031C169.1 22.031 169.414 22.0833 169.705 22.1867C169.997 22.2914 170.251 22.4459 170.465 22.6515C170.68 22.8571 170.848 23.1086 170.971 23.4061C171.094 23.7024 171.155 24.0446 171.155 24.4315V24.6153C171.155 25.0265 171.094 25.3865 170.971 25.6955C170.848 26.0058 170.68 26.265 170.465 26.4732C170.251 26.6813 169.997 26.8396 169.705 26.9469C169.414 27.0541 169.1 27.1078 168.763 27.1078ZM168.763 26.2254C168.94 26.2254 169.11 26.1935 169.274 26.1322C169.436 26.0709 169.58 25.9765 169.705 25.8475C169.832 25.7185 169.933 25.5538 170.009 25.3508C170.086 25.149 170.124 24.9039 170.124 24.6153V24.4315C170.124 24.1671 170.086 23.9411 170.009 23.7509C169.933 23.5606 169.832 23.4036 169.705 23.281C169.58 23.1584 169.436 23.0665 169.274 23.0052C169.11 22.9439 168.94 22.9133 168.763 22.9133C168.585 22.9133 168.414 22.9439 168.252 23.0052C168.09 23.0665 167.946 23.1584 167.819 23.281C167.694 23.4036 167.593 23.5606 167.517 23.7509C167.44 23.9411 167.402 24.1671 167.402 24.4315V24.6153C167.402 24.9039 167.44 25.149 167.517 25.3508C167.593 25.5538 167.694 25.7185 167.819 25.8475C167.946 25.9765 168.09 26.0709 168.252 26.1322C168.414 26.1935 168.585 26.2254 168.763 26.2254ZM173.225 22.9963H171.615V22.1318H175.847V22.9963H174.236V27.0069H173.225V22.9963ZM178.698 27.1078C178.361 27.1078 178.047 27.0541 177.756 26.9469C177.464 26.8396 177.211 26.6813 176.996 26.4732C176.782 26.265 176.613 26.0058 176.49 25.6955C176.368 25.3865 176.307 25.0265 176.307 24.6153V24.4315C176.307 24.0446 176.368 23.7024 176.49 23.4061C176.613 23.1086 176.782 22.8571 176.996 22.6515C177.211 22.4459 177.464 22.2914 177.756 22.1867C178.047 22.0833 178.361 22.031 178.698 22.031C179.036 22.031 179.35 22.0833 179.641 22.1867C179.932 22.2914 180.186 22.4459 180.401 22.6515C180.615 22.8571 180.784 23.1086 180.906 23.4061C181.029 23.7024 181.09 24.0446 181.09 24.4315V24.6153C181.09 25.0265 181.029 25.3865 180.906 25.6955C180.784 26.0058 180.615 26.265 180.401 26.4732C180.186 26.6813 179.932 26.8396 179.641 26.9469C179.35 27.0541 179.036 27.1078 178.698 27.1078ZM178.698 26.2254C178.876 26.2254 179.046 26.1935 179.209 26.1322C179.371 26.0709 179.516 25.9765 179.641 25.8475C179.767 25.7185 179.868 25.5538 179.945 25.3508C180.021 25.149 180.06 24.9039 180.06 24.6153V24.4315C180.06 24.1671 180.021 23.9411 179.945 23.7509C179.868 23.5606 179.767 23.4036 179.641 23.281C179.516 23.1584 179.371 23.0665 179.209 23.0052C179.046 22.9439 178.876 22.9133 178.698 22.9133C178.521 22.9133 178.35 22.9439 178.188 23.0052C178.025 23.0665 177.881 23.1584 177.756 23.281C177.63 23.4036 177.529 23.5606 177.452 23.7509C177.375 23.9411 177.337 24.1671 177.337 24.4315V24.6153C177.337 24.9039 177.375 25.149 177.452 25.3508C177.529 25.5538 177.63 25.7185 177.756 25.8475C177.881 25.9765 178.025 26.0709 178.188 26.1322C178.35 26.1935 178.521 26.2254 178.698 26.2254ZM182.102 22.1318H184.402C185.015 22.1318 185.46 22.2557 185.736 22.5047C186.012 22.7524 186.15 23.0703 186.15 23.4559C186.15 23.6704 186.085 23.8773 185.957 24.0765C185.828 24.2757 185.647 24.4097 185.414 24.4774C185.715 24.5515 185.943 24.6907 186.099 24.8962C186.256 25.1018 186.334 25.3419 186.334 25.6177C186.334 26.0403 186.192 26.3787 185.911 26.6289C185.629 26.8805 185.187 27.0069 184.586 27.0069H182.102V22.1318ZM184.448 26.1424C184.78 26.1424 185.007 26.0888 185.134 25.9816C185.259 25.8743 185.323 25.7224 185.323 25.5257C185.323 25.3291 185.259 25.181 185.134 25.0801C185.007 24.9779 184.78 24.9281 184.448 24.9281H183.115V26.1424H184.448ZM184.31 24.1365C184.616 24.1365 184.831 24.0867 184.953 23.9845C185.076 23.8837 185.137 23.7445 185.137 23.567C185.137 23.3883 185.076 23.2491 184.953 23.1482C184.831 23.0473 184.616 22.9963 184.31 22.9963H183.115V24.1365H184.31ZM187.345 22.1318H188.358V24.1097H188.91L190.621 22.1318H191.761L189.691 24.4583L191.853 27.0069H190.621L188.91 24.9371H188.358V27.0069H187.345V22.1318ZM192.681 22.1318H193.694V25.5806L196.04 22.1318H197.005V27.0069H195.994V23.5581L193.648 27.0069H192.681V22.1318ZM200.594 22.1318H201.605V25.5806L203.951 22.1318H204.916V27.0069H203.905V23.5581L201.559 27.0069H200.594V22.1318ZM208.505 22.1318H209.516V24.1097H210.068L211.779 22.1318H212.92L210.851 24.4583L213.013 27.0069H211.779L210.068 24.9371H209.516V27.0069H208.505V22.1318ZM213.84 22.1318H216.14C216.753 22.1318 217.198 22.2557 217.474 22.5047C217.75 22.7524 217.887 23.0703 217.887 23.4559C217.887 23.6704 217.824 23.8773 217.695 24.0765C217.566 24.2757 217.386 24.4097 217.152 24.4774C217.452 24.5515 217.681 24.6907 217.838 24.8962C217.993 25.1018 218.073 25.3419 218.073 25.6177C218.073 26.0403 217.931 26.3787 217.649 26.6289C217.366 26.8805 216.925 27.0069 216.324 27.0069H213.84V22.1318ZM216.186 26.1424C216.517 26.1424 216.746 26.0888 216.871 25.9816C216.997 25.8743 217.06 25.7224 217.06 25.5257C217.06 25.3291 216.997 25.181 216.871 25.0801C216.746 24.9779 216.517 24.9281 216.186 24.9281H214.852V26.1424H216.186ZM216.049 24.1365C216.355 24.1365 216.57 24.0867 216.692 23.9845C216.815 23.8837 216.876 23.7445 216.876 23.567C216.876 23.3883 216.815 23.2491 216.692 23.1482C216.57 23.0473 216.355 22.9963 216.049 22.9963H214.852V24.1365H216.049ZM220.509 27.1078C220.246 27.1078 220.011 27.0694 219.806 26.9928C219.6 26.9162 219.428 26.809 219.286 26.6711C219.145 26.5332 219.038 26.3723 218.964 26.1884C218.891 26.0045 218.854 25.8015 218.854 25.5806C218.854 25.0967 218.999 24.7366 219.286 24.5004C219.574 24.2642 219.997 24.1454 220.555 24.1454H222.074V23.8798C222.074 23.5108 221.992 23.258 221.83 23.1201C221.668 22.9822 221.411 22.9133 221.062 22.9133C220.749 22.9133 220.519 22.9631 220.371 23.0601C220.224 23.1584 220.139 23.2938 220.115 23.4649H219.13C219.142 23.2567 219.196 23.0652 219.291 22.8903C219.385 22.7154 219.518 22.5634 219.687 22.4357C219.855 22.3068 220.058 22.2072 220.299 22.1357C220.537 22.0654 220.807 22.031 221.108 22.031C221.408 22.031 221.68 22.0642 221.922 22.1318C222.164 22.1995 222.371 22.3055 222.542 22.4485C222.715 22.5928 222.848 22.7779 222.943 23.0052C223.038 23.2325 223.085 23.5057 223.085 23.8237V25.7645C223.085 26.0224 223.089 26.2484 223.095 26.4412C223.1 26.634 223.117 26.823 223.141 27.0069H222.221C222.203 26.8651 222.189 26.7464 222.18 26.6481C222.171 26.5498 222.166 26.4272 222.166 26.2803C222.049 26.5063 221.849 26.7017 221.563 26.8639C221.278 27.026 220.927 27.1078 220.509 27.1078ZM220.786 26.2254C220.958 26.2254 221.121 26.2025 221.278 26.1552C221.434 26.1092 221.571 26.0428 221.688 25.9535C221.804 25.8641 221.897 25.7543 221.968 25.6228C222.039 25.49 222.074 25.3393 222.074 25.1669V24.9001H220.74C220.482 24.9001 220.276 24.955 220.118 25.0661C219.963 25.1759 219.885 25.3393 219.885 25.5538C219.885 25.7556 219.956 25.9177 220.101 26.0403C220.245 26.1642 220.474 26.2254 220.786 26.2254ZM224.236 27.1078C224.186 27.1078 224.134 27.1065 224.075 27.1026C224.016 27.1001 223.962 27.0924 223.914 27.0797V26.1233C223.945 26.1297 223.991 26.1322 224.052 26.1322C224.181 26.1322 224.291 26.0952 224.383 26.0173C224.475 25.9407 224.55 25.8066 224.609 25.6125C224.666 25.4197 224.711 25.1605 224.741 24.8362C224.772 24.5106 224.787 24.0995 224.787 23.604V22.1318H228.468V27.0069H227.455V22.9963H225.763V23.7879C225.763 24.4429 225.73 24.9843 225.666 25.4108C225.602 25.8373 225.505 26.1756 225.376 26.4272C225.247 26.6787 225.088 26.8549 224.899 26.9558C224.708 27.0567 224.487 27.1078 224.236 27.1078ZM229.755 22.1318H230.768V25.5806L233.113 22.1318H234.079V27.0069H233.067V23.5581L230.722 27.0069H229.755V22.1318ZM237.667 27.1078C236.821 27.1078 236.18 26.8932 235.745 26.4642C235.309 26.0352 235.091 25.4185 235.091 24.6153V24.4315C235.091 23.6641 235.309 23.0729 235.745 22.6566C236.18 22.2391 236.821 22.031 237.667 22.031V20.5677H238.679V22.031C239.52 22.031 240.158 22.2391 240.597 22.6566C241.035 23.0729 241.255 23.6641 241.255 24.4315V24.6153C241.255 25.4185 241.035 26.0352 240.597 26.4642C240.158 26.8932 239.52 27.1078 238.679 27.1078V28.8468H237.667V27.1078ZM240.224 24.4315C240.224 23.922 240.101 23.5415 239.852 23.2912C239.604 23.0397 239.207 22.9133 238.66 22.9133V26.2254C239.207 26.2254 239.604 26.0914 239.852 25.8245C240.101 25.5576 240.224 25.1542 240.224 24.6153V24.4315ZM236.121 24.6153C236.121 25.1542 236.248 25.5576 236.498 25.8245C236.75 26.0914 237.145 26.2254 237.686 26.2254V22.9133C237.139 22.9133 236.742 23.0397 236.494 23.2912C236.245 23.5415 236.121 23.9194 236.121 24.4225V24.6153ZM242.266 22.1318H243.279V25.5806L245.625 22.1318H246.591V27.0069H245.579V23.5581L243.233 27.0069H242.266V22.1318ZM247.878 22.1318H248.891V24.1097H249.442L251.154 22.1318H252.294L250.224 24.4583L252.386 27.0069H251.154L249.442 24.9371H248.891V27.0069H247.878V22.1318ZM254.548 27.1078C254.285 27.1078 254.05 27.0694 253.844 26.9928C253.639 26.9162 253.465 26.809 253.325 26.6711C253.184 26.5332 253.075 26.3723 253.003 26.1884C252.929 26.0045 252.892 25.8015 252.892 25.5806C252.892 25.0967 253.036 24.7366 253.325 24.5004C253.613 24.2642 254.036 24.1454 254.594 24.1454H256.112V23.8798C256.112 23.5108 256.031 23.258 255.868 23.1201C255.705 22.9822 255.45 22.9133 255.1 22.9133C254.787 22.9133 254.557 22.9631 254.41 23.0601C254.263 23.1584 254.178 23.2938 254.152 23.4649H253.167C253.18 23.2567 253.234 23.0652 253.33 22.8903C253.424 22.7154 253.556 22.5634 253.724 22.4357C253.893 22.3068 254.097 22.2072 254.336 22.1357C254.576 22.0654 254.845 22.031 255.146 22.031C255.447 22.031 255.718 22.0642 255.96 22.1318C256.203 22.1995 256.41 22.3055 256.581 22.4485C256.753 22.5928 256.886 22.7779 256.981 23.0052C257.076 23.2325 257.124 23.5057 257.124 23.8237V25.7645C257.124 26.0224 257.126 26.2484 257.133 26.4412C257.139 26.634 257.154 26.823 257.179 27.0069H256.259C256.24 26.8651 256.227 26.7464 256.217 26.6481C256.208 26.5498 256.204 26.4272 256.204 26.2803C256.087 26.5063 255.886 26.7017 255.601 26.8639C255.317 27.026 254.966 27.1078 254.548 27.1078ZM254.824 26.2254C254.996 26.2254 255.16 26.2025 255.317 26.1552C255.473 26.1092 255.609 26.0428 255.725 25.9535C255.842 25.8641 255.936 25.7543 256.006 25.6228C256.077 25.49 256.112 25.3393 256.112 25.1669V24.9001H254.778C254.52 24.9001 254.313 24.955 254.157 25.0661C254 25.1759 253.922 25.3393 253.922 25.5538C253.922 25.7556 253.995 25.9177 254.138 26.0403C254.282 26.1642 254.511 26.2254 254.824 26.2254ZM262.303 27.0069H258.366V22.1318H259.378V26.1424H261.494V22.1318H262.505V26.1424H263.242V28.1561H262.303V27.0069ZM264.116 22.1318H265.127V25.5806L267.473 22.1318H268.438V27.0069H267.427V23.5581L265.081 27.0069H264.116V22.1318ZM269.727 22.1318H270.738V25.5806L273.084 22.1318H274.051V27.0069H273.038V23.5581L270.692 27.0069H269.727V22.1318Z" fill="#030D17"/>
<path fill-rule="evenodd" clip-rule="evenodd" d="M113.351 0.00127686H126.846C130.73 3.52541 133.169 8.61243 133.169 14.2676C133.169 19.9229 130.73 25.0099 126.846 28.534L113.351 28.5353C117.683 25.2818 120.486 20.1016 120.486 14.2676C120.486 8.43367 117.683 3.25344 113.351 0.00127686ZM32.5407 0.00127686C36.3144 2.25749 38.8404 6.27194 38.8404 11.0972C38.8404 15.9225 36.0717 20.3225 32.003 22.497L40.4265 38.0441H26.951L19.0332 22.2123C22.8248 19.9612 25.3649 15.819 25.3649 11.0972C25.3649 6.37537 22.8389 2.25749 19.0664 0.00127686H32.5407ZM0 0.00127686H12.6824V38.0441H0V0.00127686ZM107.803 0.00127686V38.0441H95.1202V0.00127686H107.803ZM81.6447 0C85.5755 2.9521 88.5613 7.09296 90.0682 11.8901H77.3308C75.7026 6.964 72.4321 2.78483 68.1692 0.00127686L81.6447 0ZM77.7919 24.5706H90.5062C89.1985 30.0382 86.0021 34.7728 81.6473 38.0441H68.1718C72.8841 34.9643 76.382 30.1824 77.7919 24.5706ZM54.6937 19.0227C54.6937 26.9852 58.7931 33.99 64.9958 38.0441H51.5203C45.7467 33.7053 42.0113 26.8 42.0113 19.0227C42.0113 11.2453 45.7467 4.33877 51.5215 0.00127686H64.997C58.7931 4.05531 54.6937 11.0602 54.6937 19.0227Z" fill="#030D17"/>
</g>
<defs>
<clipPath id="clip0_809_1481">
<rect width="293.333" height="40" fill="white"/>
</clipPath>
</defs>
</svg>
