<svg width="120" height="40" viewBox="0 0 120 40" fill="none" xmlns="http://www.w3.org/2000/svg">
<g clip-path="url(#clip0_481_1198)">
<path fill-rule="evenodd" clip-rule="evenodd" d="M7.99585 6.99896V20.9969H27.9958V6.99896H7.99585ZM7.99585 6.98858V0H25.9917C26.6771 0 27.3416 0.0726895 27.9958 0.1973C31.5784 0.924195 34.4548 3.56179 35.5348 6.99896C35.8359 7.94392 35.9917 8.95119 35.9917 10V16.0021C35.9917 17.7882 35.5971 19.4808 34.9014 20.9969C33.6656 23.6968 31.4434 25.8567 28.7124 27.0301C28.4735 27.134 28.2347 27.2274 27.9958 27.3105C27.4039 27.5182 26.7913 27.6843 26.1578 27.7985V28.3178C28.6604 28.972 30.7788 30.5607 32.108 32.6999C32.1391 32.7518 32.1729 32.8063 32.2066 32.8608C32.2404 32.9153 32.2741 32.9699 32.3053 33.0218L36.4901 39.9896H27.1547L19.9585 27.9855H7.99585V39.9896H0V6.98858H7.99585ZM71.9938 33.001V26.0021H79.9896V33.001H71.9938ZM47.9958 33.001H71.9938V40H49.9896C49.3043 40 48.6397 39.9273 47.9855 39.8027C44.4029 39.0758 41.5265 36.4382 40.4465 33.001C40.1454 32.0561 39.9896 31.0488 39.9896 30V6.99896H47.9855H47.9958V33.001ZM47.9958 6.99896V0H70C70.6854 0 71.3499 0.0726903 72.0042 0.197301H71.9938C75.5763 0.924196 78.4528 3.56179 79.5327 6.99896C79.8338 7.94393 79.9896 8.9512 79.9896 10V13.9979H71.9938V6.99896H47.9958ZM91.9938 0H109.99C110.675 0 111.34 0.0726903 111.994 0.197301C115.576 0.924196 118.453 3.56179 119.533 6.99896C119.834 7.94393 119.99 8.9512 119.99 10V19.5016C119.99 20.5504 119.834 21.5576 119.533 22.5026C119.128 23.8006 118.453 24.9948 117.591 26.0021C116.168 27.6636 114.216 28.8474 111.994 29.3043C111.35 29.4393 110.675 29.5016 109.99 29.5016H91.9938V40H83.9979V6.99896H91.9938V22.5026H111.994V6.99896H91.9938V0ZM119.117 34.8806C118.577 34.3302 117.819 33.9979 116.999 33.9979C116.179 33.9979 115.421 34.3406 114.881 34.8806C114.33 35.4206 113.998 36.1786 113.998 36.999C113.998 37.8193 114.341 38.5774 114.881 39.1173C115.421 39.6677 116.179 40 116.999 40C117.819 40 118.577 39.6573 119.117 39.1173C119.668 38.5774 120 37.8193 120 36.999C120 36.1786 119.657 35.4206 119.117 34.8806ZM117.165 35.514H115.846V38.4839L115.857 38.4735H116.334V37.1547H116.625C116.729 37.1547 116.802 37.1547 116.843 37.1651C116.906 37.1859 116.957 37.2066 117.02 37.2482C117.072 37.2897 117.144 37.352 117.217 37.4455C117.29 37.5493 117.383 37.6843 117.497 37.8609L117.892 38.4839H118.463L117.944 37.6739C117.85 37.5182 117.736 37.3832 117.622 37.2793C117.57 37.2378 117.487 37.1859 117.383 37.134C117.674 37.0924 117.882 36.999 118.017 36.8536C118.152 36.7082 118.224 36.5317 118.224 36.324C118.224 36.1578 118.183 36.0125 118.1 35.8775C118.017 35.7425 117.902 35.649 117.767 35.5971C117.632 35.5452 117.435 35.514 117.165 35.514ZM116.334 36.8224H117.03C117.207 36.8224 117.352 36.8017 117.456 36.7705C117.56 36.729 117.632 36.6771 117.684 36.594C117.736 36.5109 117.767 36.4278 117.767 36.324C117.767 36.1786 117.715 36.0644 117.612 35.9813C117.508 35.8879 117.352 35.8463 117.134 35.8463H116.334V36.8224ZM116.999 34.5483C117.674 34.5483 118.287 34.8183 118.733 35.2648C119.169 35.7113 119.45 36.324 119.45 36.999C119.45 37.6739 119.18 38.2866 118.733 38.7331C118.287 39.1693 117.674 39.4496 116.999 39.4496C116.324 39.4496 115.711 39.1796 115.265 38.7331C114.829 38.2866 114.548 37.6739 114.548 36.999C114.548 36.324 114.818 35.7113 115.265 35.2648C115.711 34.8287 116.324 34.5483 116.999 34.5483Z" fill="#030D17"/>
</g>
<defs>
<clipPath id="clip0_481_1198">
<rect width="120" height="40" fill="white"/>
</clipPath>
</defs>
</svg>
