<svg width="321" height="100" viewBox="0 0 321 100" fill="none" xmlns="http://www.w3.org/2000/svg">
<path fill-rule="evenodd" clip-rule="evenodd" d="M39.2413 69.044H29.044C27.2231 69.044 26.3733 68.3611 26.047 67.4658C25.7435 66.6388 25.9712 65.698 26.2443 65L33.2549 49.2564V47.6328H8.60394C7.50379 47.6328 6.47192 47.5341 5.46282 47.3293C4.45372 47.1244 3.46737 46.8057 2.45827 46.3657L1.67678 46.0318C1.57056 47.3369 1.51745 48.657 1.51745 49.9924C1.51745 63.3763 6.94233 75.5007 15.7132 84.2716C24.4841 93.0424 36.6085 98.4673 49.9924 98.4673C63.3763 98.4673 75.5007 93.0424 84.2716 84.2716C93.05 75.5083 98.4749 63.3839 98.4749 50C98.4749 37.4051 93.6722 25.9408 85.8042 17.3217V37.3976C85.8042 40.22 84.651 42.7769 82.7997 44.6358C80.9408 46.4947 78.3839 47.6403 75.5614 47.6403H62.3976V49.5372L69.4537 64.4992C69.7192 65.0683 69.8786 65.7435 69.8786 66.4188C69.8786 67.0409 69.7496 67.6707 69.4537 68.2321C69.1502 68.8164 68.6722 69.3095 67.9893 69.6282C67.4886 69.8634 66.8892 70 66.176 70H48.1639C47.5341 70 46.9878 69.8938 46.525 69.7041C46.1229 69.5372 45.7891 69.3171 45.5083 69.0516H39.2413V69.044ZM33.2397 46.8816H8.60394C7.54173 46.8816 6.56297 46.7906 5.61456 46.5933C4.65857 46.396 3.72534 46.0925 2.75417 45.6753L1.74507 45.2428C2.86039 33.7557 7.98937 23.437 15.7132 15.7208C24.4916 6.94992 36.6085 1.51745 50 1.51745C63.3839 1.51745 75.5083 6.94233 84.2792 15.7132C84.5371 15.9712 84.7951 16.2367 85.0455 16.5023V37.3976C85.0455 40.0076 83.9833 42.3824 82.261 44.0971C80.5463 45.8118 78.1714 46.8816 75.5614 46.8816H62.3976V31.6312C62.7921 31.5402 63.1107 31.3733 63.3535 31.1457C63.8391 30.7056 64.0136 30.1138 64.0136 29.4916C64.0136 28.9302 63.8771 28.3839 63.4825 27.959C63.0956 27.5417 62.5114 27.2762 61.6312 27.2762H52.7086C51.8285 27.2762 51.2443 27.5417 50.8573 27.959C50.4628 28.3915 50.3262 28.9302 50.3262 29.4916C50.3262 30.1138 50.5083 30.7132 50.9863 31.1457C51.2291 31.3657 51.5478 31.5326 51.9423 31.6312V46.8816H45.2124V39.2337C45.6525 39.1806 46.0394 38.9757 46.3202 38.6722C46.6388 38.3384 46.8285 37.8907 46.8285 37.4051C46.8285 36.9196 46.6388 36.4719 46.3202 36.1381C46.0243 35.827 45.6146 35.6146 45.1593 35.5766C45.1214 35.569 45.0834 35.569 45.0455 35.569C43.7649 35.569 42.4701 35.5573 41.171 35.5455H41.1706C38.5599 35.5219 35.9322 35.4981 33.3687 35.569C32.8756 35.5918 32.4431 35.8118 32.132 36.1381C31.8133 36.4719 31.6237 36.9196 31.6237 37.4051C31.6237 37.8907 31.8133 38.3384 32.132 38.6722C32.4203 38.9757 32.8073 39.1806 33.2397 39.2337V46.8816ZM45.22 47.6403H51.9499V49.5372L48.5508 56.745L45.22 49.264V47.6403ZM50 0C63.8088 0 76.305 5.59939 85.3566 14.6434C94.4082 23.6874 100 36.1912 100 50C100 63.8088 94.4006 76.305 85.3566 85.3566C76.3126 94.4006 63.8088 100 50 100C36.1912 100 23.695 94.4006 14.6434 85.3566C5.59939 76.3126 0 63.8088 0 50C0 36.1912 5.59939 23.695 14.6434 14.6434C23.6874 5.59939 36.1912 0 50 0ZM65.1441 65.6297C65.4021 65.6297 65.6449 65.7359 65.8118 65.9104C65.9863 66.085 66.0925 66.3202 66.0925 66.5781C66.0925 66.8361 65.9863 67.0789 65.8118 67.2458C65.6373 67.4203 65.4021 67.5265 65.1441 67.5265C64.8786 67.5265 64.6434 67.4203 64.4765 67.2458C64.3019 67.0713 64.1957 66.8361 64.1957 66.5781C64.1957 66.3202 64.3019 66.0774 64.4765 65.9104C64.6434 65.7359 64.8862 65.6297 65.1441 65.6297ZM65.2807 66.4491C65.3186 66.4871 65.3338 66.5326 65.3338 66.5857C65.3338 66.6388 65.3111 66.6843 65.2807 66.7223C65.2504 66.7526 65.1972 66.7754 65.1441 66.7754C65.091 66.7754 65.0455 66.7526 65.0076 66.7223C64.9696 66.6843 64.9545 66.6388 64.9545 66.5857C64.9545 66.5326 64.9772 66.4871 65.0076 66.4491C65.0379 66.4112 65.091 66.396 65.1441 66.396C65.1972 66.3884 65.2428 66.4112 65.2807 66.4491ZM57.1699 66.0622C57.4279 66.0622 57.6707 66.1684 57.8376 66.3429C58.0121 66.5174 58.1183 66.7526 58.1183 67.0106C58.1183 67.2761 58.0121 67.5114 57.8376 67.6783C57.6631 67.8528 57.4279 67.959 57.1699 67.959C56.912 67.959 56.6692 67.8528 56.5023 67.6783C56.3277 67.5038 56.2215 67.2686 56.2215 67.0106C56.2215 66.7526 56.3277 66.5098 56.5023 66.3429C56.6768 66.1684 56.912 66.0622 57.1699 66.0622ZM57.3065 66.874C57.3444 66.912 57.3596 66.9575 57.3596 67.0106C57.3596 67.0637 57.3368 67.1092 57.3065 67.1472C57.2686 67.1851 57.223 67.2003 57.1699 67.2003C57.1168 67.2003 57.0713 67.1775 57.0334 67.1472C56.9954 67.1092 56.9803 67.0637 56.9803 67.0106C56.9803 66.9575 57.003 66.912 57.0334 66.874C57.0713 66.8437 57.1168 66.8209 57.1699 66.8209C57.223 66.8209 57.2686 66.8437 57.3065 66.874ZM54.3627 64.6585C54.6206 64.6585 54.8634 64.7648 55.0303 64.9393C55.2048 65.1138 55.3111 65.349 55.3111 65.607C55.3111 65.8725 55.2048 66.1077 55.0303 66.2746C54.8558 66.4491 54.6206 66.5554 54.3627 66.5554C54.0971 66.5554 53.8619 66.4491 53.695 66.2746C53.5205 66.1001 53.4142 65.8649 53.4142 65.607C53.4142 65.349 53.5205 65.1062 53.695 64.9393C53.8619 64.7648 54.0971 64.6585 54.3627 64.6585ZM54.4992 65.4704C54.5372 65.5007 54.5523 65.5538 54.5523 65.607C54.5523 65.6601 54.5296 65.7056 54.4992 65.7435C54.4613 65.7815 54.4158 65.7966 54.3627 65.7966C54.3095 65.7966 54.264 65.7739 54.2261 65.7435C54.1957 65.7132 54.173 65.6601 54.173 65.607C54.173 65.5538 54.1957 65.5083 54.2261 65.4704C54.264 65.4324 54.3095 65.4173 54.3627 65.4173C54.4158 65.4173 54.4613 65.4324 54.4992 65.4704ZM54.6054 57.8452C54.8634 57.8452 55.1062 57.9514 55.2731 58.1259C55.4476 58.3004 55.5538 58.5356 55.5538 58.7936C55.5538 59.0516 55.4476 59.2944 55.2731 59.4613C55.0986 59.6358 54.8634 59.742 54.6054 59.742C54.3399 59.742 54.1047 59.6358 53.9378 59.4613C53.7633 59.2868 53.657 59.0516 53.657 58.7936C53.657 58.5356 53.7633 58.2928 53.9378 58.1259C54.1047 57.9514 54.3475 57.8452 54.6054 57.8452ZM54.742 58.657C54.7799 58.6874 54.7951 58.7405 54.7951 58.7936C54.7951 58.8467 54.7724 58.8922 54.742 58.9302C54.7041 58.9681 54.6586 58.9833 54.6054 58.9833C54.5523 58.9833 54.5068 58.9605 54.4689 58.9302C54.4309 58.8998 54.4158 58.8467 54.4158 58.7936C54.4158 58.7405 54.4385 58.695 54.4689 58.657C54.5068 58.6191 54.5523 58.6039 54.6054 58.6039C54.6586 58.6039 54.7041 58.6191 54.742 58.657ZM60.8194 55.7663C61.0774 55.7663 61.3202 55.8725 61.4871 56.047C61.6616 56.2215 61.7678 56.4567 61.7678 56.7147C61.7678 56.9727 61.6616 57.2155 61.4871 57.3824C61.3126 57.5569 61.0774 57.6631 60.8194 57.6631C60.5538 57.6631 60.3186 57.5569 60.1517 57.3824C59.9772 57.2079 59.871 56.9727 59.871 56.7147C59.871 56.4567 59.9772 56.2139 60.1517 56.047C60.3186 55.8725 60.5538 55.7663 60.8194 55.7663ZM60.956 56.5781C60.9939 56.6161 61.0091 56.6616 61.0091 56.7147C61.0091 56.7678 60.9863 56.8133 60.956 56.8513C60.918 56.8816 60.8725 56.9044 60.8194 56.9044C60.7663 56.9044 60.7208 56.8816 60.6828 56.8513C60.6449 56.8133 60.6297 56.7678 60.6297 56.7147C60.6297 56.6616 60.6525 56.6161 60.6828 56.5781C60.7208 56.5402 60.7663 56.525 60.8194 56.525C60.8725 56.525 60.918 56.5478 60.956 56.5781ZM57.5721 54.0516C57.83 54.0516 58.0728 54.1578 58.2397 54.3323C58.4142 54.5068 58.5205 54.742 58.5205 55C58.5205 55.2655 58.4142 55.5007 58.2397 55.6677C58.0652 55.8422 57.83 55.9484 57.5721 55.9484C57.3141 55.9484 57.0713 55.8422 56.9044 55.6677C56.7299 55.4932 56.6237 55.2579 56.6237 55C56.6237 54.742 56.7299 54.4992 56.9044 54.3323C57.0713 54.1578 57.3065 54.0516 57.5721 54.0516ZM57.701 54.871C57.7314 54.9089 57.7542 54.9545 57.7542 55.0076C57.7542 55.0607 57.7314 55.1062 57.701 55.1441C57.6631 55.1821 57.6176 55.1972 57.5645 55.1972C57.5114 55.1972 57.4658 55.1745 57.4279 55.1441C57.39 55.1062 57.3748 55.0607 57.3748 55.0076C57.3748 54.9545 57.3976 54.9089 57.4279 54.871C57.4658 54.8406 57.5114 54.8179 57.5645 54.8179C57.6176 54.8103 57.6707 54.8331 57.701 54.871ZM54.4537 54.6661C54.7117 54.6661 54.9545 54.7724 55.1214 54.9469C55.2959 55.1214 55.4021 55.3566 55.4021 55.6145C55.4021 55.8801 55.2959 56.1153 55.1214 56.2822C54.9469 56.4567 54.7117 56.563 54.4537 56.563C54.1881 56.563 53.9529 56.4567 53.786 56.2822C53.6115 56.1077 53.5053 55.8725 53.5053 55.6145C53.5053 55.3566 53.6115 55.1138 53.786 54.9469C53.9529 54.7724 54.1881 54.6661 54.4537 54.6661ZM54.5903 55.478C54.6282 55.5083 54.6434 55.5614 54.6434 55.6145C54.6434 55.6677 54.6206 55.7132 54.5903 55.7511C54.5599 55.7891 54.5068 55.8042 54.4537 55.8042C54.4006 55.8042 54.3551 55.7815 54.3171 55.7511C54.2792 55.7132 54.264 55.6677 54.264 55.6145C54.264 55.5614 54.2868 55.5159 54.3171 55.478C54.3475 55.44 54.4006 55.4249 54.4537 55.4249C54.5068 55.4249 54.5523 55.4476 54.5903 55.478ZM51.7982 57.868C52.1092 57.868 52.3976 57.9969 52.6024 58.2018C52.8073 58.4067 52.9362 58.695 52.9362 59.0061C52.9362 59.3171 52.8073 59.6054 52.6024 59.8103C52.3976 60.0152 52.1092 60.1441 51.7982 60.1441C51.4871 60.1441 51.1988 60.0152 50.9939 59.8103C50.7891 59.6054 50.6601 59.3171 50.6601 59.0061C50.6601 58.695 50.7891 58.4067 50.9939 58.2018C51.1988 57.9969 51.4795 57.868 51.7982 57.868ZM52.0637 58.7329C52.132 58.8012 52.1775 58.8998 52.1775 58.9985C52.1775 59.1047 52.132 59.1957 52.0637 59.264C51.9954 59.3323 51.8968 59.3778 51.7982 59.3778C51.6919 59.3778 51.6009 59.3323 51.5326 59.264C51.4643 59.1957 51.4188 59.0971 51.4188 58.9985C51.4188 58.8922 51.4643 58.8012 51.5326 58.7329C51.6009 58.6646 51.6995 58.6191 51.7982 58.6191C51.8968 58.6267 51.9954 58.6646 52.0637 58.7329ZM62.8224 59.8558C63.1335 59.8558 63.4218 59.9848 63.6267 60.1897C63.8315 60.3945 63.9605 60.6828 63.9605 60.9939C63.9605 61.305 63.8315 61.5933 63.6267 61.7982C63.4218 62.003 63.1335 62.132 62.8224 62.132C62.5114 62.132 62.223 62.003 62.0182 61.7982C61.8133 61.5933 61.6843 61.305 61.6843 60.9939C61.6843 60.6828 61.8133 60.3945 62.0182 60.1897C62.223 59.9772 62.5114 59.8558 62.8224 59.8558ZM63.0956 60.7208C63.1639 60.7891 63.2094 60.8877 63.2094 60.9863C63.2094 61.0925 63.1639 61.1836 63.0956 61.2519C63.0273 61.3202 62.9287 61.3657 62.83 61.3657C62.7238 61.3657 62.6328 61.3202 62.5645 61.2519C62.4962 61.1836 62.4507 61.085 62.4507 60.9863C62.4507 60.8801 62.4962 60.7891 62.5645 60.7208C62.6328 60.6525 62.7314 60.607 62.83 60.607C62.9287 60.6145 63.0273 60.6525 63.0956 60.7208ZM58.2094 63.4294C58.5205 63.4294 58.8088 63.5584 59.0136 63.7633C59.2185 63.9681 59.3475 64.2564 59.3475 64.5675C59.3475 64.8786 59.2185 65.1669 59.0136 65.3717C58.8088 65.5766 58.5205 65.7056 58.2094 65.7056C57.8983 65.7056 57.61 65.5766 57.4051 65.3717C57.2003 65.1669 57.0713 64.8786 57.0713 64.5675C57.0713 64.2564 57.2003 63.9681 57.4051 63.7633C57.61 63.5508 57.8983 63.4294 58.2094 63.4294ZM58.4825 64.2944C58.5508 64.3626 58.5963 64.4613 58.5963 64.5599C58.5963 64.6661 58.5508 64.7572 58.4825 64.8255C58.4142 64.8938 58.3156 64.9393 58.217 64.9393C58.1108 64.9393 58.0197 64.8938 57.9514 64.8255C57.8831 64.7572 57.8376 64.6586 57.8376 64.5599C57.8376 64.4537 57.8831 64.3626 57.9514 64.2944C58.0197 64.2261 58.1183 64.1806 58.217 64.1806C58.3156 64.1881 58.4142 64.2261 58.4825 64.2944ZM58.7026 49.8634C59.0136 49.8634 59.3019 49.9924 59.5068 50.1973C59.7117 50.4021 59.8406 50.6904 59.8406 51.0015C59.8406 51.3126 59.7117 51.6009 59.5068 51.8057C59.3019 52.0106 59.0136 52.1396 58.7026 52.1396C58.3915 52.1396 58.1032 52.0106 57.8983 51.8057C57.6935 51.6009 57.5645 51.3126 57.5645 51.0015C57.5645 50.6904 57.6935 50.4021 57.8983 50.1973C58.1032 49.9924 58.3839 49.8634 58.7026 49.8634ZM58.9681 50.7284C59.0364 50.7966 59.0819 50.8953 59.0819 50.9939C59.0819 51.1001 59.0364 51.1912 58.9681 51.2595C58.8998 51.3278 58.8012 51.3733 58.7026 51.3733C58.5963 51.3733 58.5053 51.3278 58.437 51.2595C58.3687 51.1912 58.3232 51.0925 58.3232 50.9939C58.3232 50.8877 58.3687 50.7966 58.437 50.7284C58.5053 50.6601 58.6039 50.6145 58.7026 50.6145C58.8012 50.6221 58.8998 50.6601 58.9681 50.7284ZM61.8133 62.8604C62.2306 62.8604 62.61 63.0273 62.8831 63.308C63.1563 63.5812 63.3308 63.9605 63.3308 64.3778C63.3308 64.7951 63.1639 65.1745 62.8831 65.4476C62.61 65.7208 62.2306 65.8953 61.8133 65.8953C61.396 65.8953 61.0167 65.7284 60.7435 65.4476C60.4704 65.1745 60.2959 64.7951 60.2959 64.3778C60.2959 63.9605 60.4628 63.5812 60.7435 63.308C61.0167 63.0349 61.396 62.8604 61.8133 62.8604ZM62.352 63.8467C62.4886 63.9833 62.5721 64.173 62.5721 64.3854C62.5721 64.5979 62.4886 64.7875 62.352 64.9241C62.2155 65.0607 62.0258 65.1441 61.8133 65.1441C61.6009 65.1441 61.4112 65.0607 61.2746 64.9241C61.1381 64.7875 61.0546 64.5979 61.0546 64.3854C61.0546 64.173 61.1381 63.9833 61.2746 63.8467C61.4112 63.7101 61.6009 63.6267 61.8133 63.6267C62.0258 63.6191 62.2155 63.7101 62.352 63.8467ZM54.8786 60.1745C55.2959 60.1745 55.6752 60.3414 55.9484 60.6221C56.2215 60.8953 56.396 61.2746 56.396 61.6919C56.396 62.1092 56.2291 62.4886 55.9484 62.7617C55.6752 63.0349 55.2959 63.2094 54.8786 63.2094C54.4613 63.2094 54.0819 63.0425 53.8088 62.7617C53.5356 62.4886 53.3611 62.1092 53.3611 61.6919C53.3611 61.2746 53.5281 60.8953 53.8088 60.6221C54.0819 60.349 54.4613 60.1745 54.8786 60.1745ZM55.4173 61.1532C55.5538 61.2898 55.6373 61.4795 55.6373 61.6919C55.6373 61.9044 55.5538 62.0941 55.4173 62.2306C55.2807 62.3672 55.091 62.4507 54.8786 62.4507C54.6661 62.4507 54.4765 62.3672 54.3399 62.2306C54.2033 62.0941 54.1199 61.9044 54.1199 61.6919C54.1199 61.4795 54.2033 61.2898 54.3399 61.1532C54.4765 61.0167 54.6661 60.9332 54.8786 60.9332C55.091 60.9332 55.2807 61.0167 55.4173 61.1532ZM58.824 58.0045C59.2412 58.0045 59.6206 58.1715 59.8938 58.4522C60.1669 58.7253 60.3414 59.1047 60.3414 59.522C60.3414 59.9393 60.1745 60.3186 59.8938 60.5918C59.6206 60.8649 59.2412 61.0318 58.824 61.0318C58.4067 61.0318 58.0273 60.8649 57.7542 60.5842C57.481 60.3111 57.3065 59.9317 57.3065 59.5144C57.3065 59.0971 57.4734 58.7177 57.7542 58.4446C58.0273 58.179 58.4067 58.0045 58.824 58.0045ZM59.3551 58.9833C59.4916 59.1199 59.5751 59.3095 59.5751 59.522C59.5751 59.7344 59.4916 59.9241 59.3551 60.0607C59.2185 60.1972 59.0288 60.2807 58.8164 60.2807C58.6039 60.2807 58.4142 60.1972 58.2777 60.0607C58.1411 59.9241 58.0576 59.7344 58.0576 59.522C58.0576 59.3095 58.1411 59.1199 58.2777 58.9833C58.4142 58.8467 58.6039 58.7633 58.8164 58.7633C59.0288 58.7633 59.2185 58.8467 59.3551 58.9833ZM41.5781 62.3975C41.9954 62.3975 42.3748 62.5645 42.6479 62.8452C42.9211 63.1183 43.0956 63.4977 43.0956 63.915C43.0956 64.3323 42.9287 64.7117 42.6479 64.9848C42.3748 65.2579 41.9954 65.4324 41.5781 65.4324C41.1608 65.4324 40.7815 65.2655 40.5083 64.9848C40.2352 64.7117 40.0607 64.3323 40.0607 63.915C40.0607 63.4977 40.2276 63.1183 40.5083 62.8452C40.7891 62.5721 41.1608 62.3975 41.5781 62.3975ZM42.1168 63.3763C42.2534 63.5129 42.3369 63.7026 42.3369 63.915C42.3369 64.1274 42.2534 64.3171 42.1168 64.4537C41.9803 64.5903 41.7906 64.6737 41.5781 64.6737C41.3657 64.6737 41.176 64.5903 41.0394 64.4537C40.9029 64.3171 40.8194 64.1274 40.8194 63.915C40.8194 63.7026 40.9029 63.5129 41.0394 63.3763C41.176 63.2397 41.3657 63.1563 41.5781 63.1563C41.7906 63.1563 41.9803 63.2397 42.1168 63.3763ZM39.0212 62.0561C39.2792 62.0561 39.522 62.1623 39.6889 62.3369C39.8634 62.5114 39.9696 62.7466 39.9696 63.0045C39.9696 63.2701 39.8634 63.5053 39.6889 63.6722C39.5144 63.8467 39.2792 63.9529 39.0212 63.9529C38.7633 63.9529 38.5205 63.8467 38.3535 63.6722C38.179 63.4977 38.0728 63.2625 38.0728 63.0045C38.0728 62.7466 38.179 62.5038 38.3535 62.3369C38.5281 62.1623 38.7633 62.0561 39.0212 62.0561ZM39.1578 62.8755C39.1957 62.9135 39.2109 62.959 39.2109 63.0121C39.2109 63.0652 39.1881 63.1108 39.1578 63.1487C39.1274 63.1866 39.0743 63.2018 39.0212 63.2018C38.9681 63.2018 38.9226 63.179 38.8847 63.1487C38.8467 63.1108 38.8315 63.0652 38.8315 63.0121C38.8315 62.959 38.8543 62.9135 38.8847 62.8755C38.915 62.8452 38.9681 62.8224 39.0212 62.8224C39.0743 62.8148 39.1274 62.8376 39.1578 62.8755ZM35.5994 63.1487C35.9105 63.1487 36.1988 63.2777 36.4036 63.4825C36.6085 63.6874 36.7375 63.9757 36.7375 64.2868C36.7375 64.5979 36.6085 64.8862 36.4036 65.091C36.1988 65.2959 35.9105 65.4249 35.5994 65.4249C35.2883 65.4249 35 65.2959 34.7951 65.091C34.5903 64.8862 34.4613 64.5979 34.4613 64.2868C34.4613 63.9757 34.5903 63.6874 34.7951 63.4825C35.0076 63.2777 35.2883 63.1487 35.5994 63.1487ZM35.8725 64.0212C35.9408 64.0895 35.9863 64.1881 35.9863 64.2868C35.9863 64.393 35.9408 64.484 35.8725 64.5523C35.8042 64.6206 35.7056 64.6661 35.607 64.6661C35.5007 64.6661 35.4097 64.6206 35.3414 64.5523C35.2731 64.484 35.2276 64.3854 35.2276 64.2868C35.2276 64.1806 35.2731 64.0895 35.3414 64.0212C35.4097 63.9529 35.5083 63.9074 35.607 63.9074C35.7056 63.9074 35.8042 63.9529 35.8725 64.0212ZM32.4886 61.1912C32.8528 61.1912 33.1866 61.3429 33.4294 61.5781C33.6722 61.8209 33.8164 62.1548 33.8164 62.5189C33.8164 62.8831 33.6646 63.217 33.4294 63.4598C33.1866 63.7026 32.8604 63.8467 32.4886 63.8467C32.1244 63.8467 31.7906 63.695 31.5478 63.4598C31.305 63.217 31.1608 62.8907 31.1608 62.5189C31.1608 62.1548 31.3126 61.8209 31.5478 61.5781L31.5705 61.5554C31.8133 61.3278 32.132 61.1912 32.4886 61.1912ZM32.8907 62.1168C32.9894 62.2155 33.0577 62.3596 33.0577 62.5189C33.0577 62.6783 32.997 62.8224 32.8907 62.9211C32.7845 63.0273 32.6479 63.088 32.4886 63.088C32.3293 63.088 32.1927 63.0273 32.0865 62.9211C31.9803 62.8148 31.9196 62.6783 31.9196 62.5189C31.9196 62.3596 31.9803 62.223 32.0865 62.1168L32.1017 62.1016C32.2003 62.0106 32.3369 61.9499 32.4886 61.9499C32.6479 61.9499 32.7845 62.0106 32.8907 62.1168ZM36.2139 58.217C36.6312 58.217 37.0106 58.3839 37.2837 58.6646C37.5569 58.9378 37.7314 59.3171 37.7314 59.7344C37.7314 60.1517 37.5645 60.5311 37.2837 60.8042C37.0106 61.0774 36.6312 61.2519 36.2139 61.2519C35.7966 61.2519 35.4173 61.085 35.1441 60.8042C34.871 60.5311 34.6965 60.1517 34.6965 59.7344C34.6965 59.3171 34.8634 58.9378 35.1441 58.6646C35.4173 58.3915 35.7966 58.217 36.2139 58.217ZM36.7526 59.2033C36.8892 59.3399 36.9727 59.5296 36.9727 59.742C36.9727 59.9545 36.8892 60.1441 36.7526 60.2807C36.6161 60.4173 36.4264 60.5007 36.2139 60.5007C36.0015 60.5007 35.8118 60.4173 35.6753 60.2807C35.5387 60.1441 35.4552 59.9545 35.4552 59.742C35.4552 59.5296 35.5387 59.3399 35.6753 59.2033C35.8118 59.0667 36.0015 58.9833 36.2139 58.9833C36.4264 58.9757 36.6161 59.0667 36.7526 59.2033ZM41.1001 57.4583C41.5174 57.4583 41.8968 57.6252 42.1699 57.9059C42.4431 58.179 42.6176 58.5584 42.6176 58.9757C42.6176 59.393 42.4507 59.7724 42.1699 60.0455C41.8968 60.3186 41.5174 60.4931 41.1001 60.4931C40.6828 60.4931 40.3035 60.3262 40.0303 60.0455C39.7572 59.7724 39.5827 59.393 39.5827 58.9757C39.5827 58.5584 39.7496 58.179 40.0303 57.9059C40.3035 57.6252 40.6828 57.4583 41.1001 57.4583ZM41.6388 58.437C41.7754 58.5736 41.8589 58.7633 41.8589 58.9757C41.8589 59.1881 41.7754 59.3778 41.6388 59.5144C41.5023 59.651 41.3126 59.7344 41.1001 59.7344C40.8877 59.7344 40.698 59.651 40.5614 59.5144C40.4249 59.3778 40.3414 59.1881 40.3414 58.9757C40.3414 58.7633 40.4249 58.5736 40.5614 58.437C40.698 58.3004 40.8877 58.217 41.1001 58.217C41.3126 58.217 41.5023 58.3004 41.6388 58.437ZM39.5144 53.6039C39.9317 53.6039 40.3111 53.7708 40.5842 54.0516C40.8573 54.3247 41.0318 54.7041 41.0318 55.1214C41.0318 55.5387 40.8649 55.918 40.5842 56.1912C40.3111 56.4643 39.9317 56.6388 39.5144 56.6388C39.0971 56.6388 38.7177 56.4719 38.4446 56.1912C38.1715 55.918 37.9969 55.5387 37.9969 55.1214C37.9969 54.7041 38.1639 54.3247 38.4446 54.0516C38.7177 53.7784 39.0971 53.6039 39.5144 53.6039ZM40.0531 54.5903C40.1897 54.7268 40.2731 54.9165 40.2731 55.129C40.2731 55.3414 40.1897 55.5311 40.0531 55.6677C39.9165 55.8042 39.7268 55.8877 39.5144 55.8877C39.302 55.8877 39.1123 55.8042 38.9757 55.6677C38.8391 55.5311 38.7557 55.3414 38.7557 55.129C38.7557 54.9165 38.8391 54.7268 38.9757 54.5903C39.1123 54.4537 39.302 54.3702 39.5144 54.3702C39.7268 54.3627 39.9165 54.4537 40.0531 54.5903ZM43.9454 59.7344C44.2033 59.7344 44.4461 59.8406 44.613 60.0151C44.7875 60.1897 44.8938 60.4249 44.8938 60.6828C44.8938 60.9484 44.7875 61.1836 44.613 61.3505C44.4385 61.525 44.2033 61.6312 43.9454 61.6312C43.6798 61.6312 43.4446 61.525 43.2777 61.3505C43.1032 61.176 42.9969 60.9408 42.9969 60.6828C42.9969 60.4249 43.1032 60.1821 43.2777 60.0151C43.4446 59.8406 43.6798 59.7344 43.9454 59.7344ZM44.0743 60.5538C44.1047 60.5918 44.1274 60.6373 44.1274 60.6904C44.1274 60.7435 44.1047 60.7891 44.0743 60.827C44.0364 60.8649 43.9909 60.8801 43.9378 60.8801C43.8847 60.8801 43.8391 60.8573 43.8012 60.827C43.7633 60.7966 43.7481 60.7435 43.7481 60.6904C43.7481 60.6373 43.7708 60.5918 43.8012 60.5538C43.8391 60.5235 43.8847 60.5007 43.9378 60.5007C43.9985 60.4931 44.044 60.5159 44.0743 60.5538ZM49.3627 58.566L53.3687 50.0759C53.4294 49.9696 53.4674 49.8406 53.4674 49.7041V30.9484C53.4674 30.5311 53.1259 30.1897 52.7086 30.1897C52.3444 30.1897 52.1244 30.1214 52.0106 30.0152C51.8968 29.9089 51.8513 29.7117 51.8513 29.4841C51.8513 29.264 51.8816 29.0743 51.9803 28.9681C52.0865 28.8543 52.3065 28.7784 52.7162 28.7784H61.6464C62.0485 28.7784 62.2762 28.8543 62.3824 28.9681C62.4734 29.0668 62.5114 29.264 62.5114 29.4841C62.5114 29.7117 62.4658 29.9089 62.352 30.0152C62.2306 30.1214 62.0106 30.1897 61.654 30.1897C61.2367 30.1897 60.8953 30.5311 60.8953 30.9484V49.6965C60.8953 49.8027 60.918 49.9165 60.9711 50.0227L68.1032 65.1365C68.2777 65.5083 68.3763 65.956 68.3763 66.4112C68.3763 66.8057 68.3004 67.1927 68.1259 67.5189C67.9666 67.8224 67.7162 68.0804 67.3596 68.2473C67.0561 68.3915 66.6768 68.4749 66.1988 68.4749H51.6692C52.0485 68.2018 52.2837 67.8604 52.4279 67.4658C52.7314 66.6388 52.5038 65.698 52.2306 65L49.3627 58.566ZM29.044 67.5265C28.0197 67.5265 27.5948 67.2761 27.4734 66.9499C27.3293 66.563 27.481 65.9939 27.6555 65.5614L34.7117 49.7268C34.7572 49.6282 34.78 49.522 34.78 49.4158V38.4901C34.78 38.0728 34.4385 37.7314 34.0212 37.7314H33.437C33.3611 37.7238 33.3004 37.6859 33.2473 37.6328C33.1942 37.5797 33.1639 37.4962 33.1639 37.4127C33.1639 37.3217 33.1942 37.2458 33.2473 37.1927C33.3004 37.1396 33.3611 37.1017 33.437 37.0941H45.0531C45.129 37.1017 45.1897 37.1396 45.2428 37.1927C45.2959 37.2458 45.3262 37.3293 45.3262 37.4127C45.3262 37.5038 45.2959 37.5797 45.2428 37.6328C45.1897 37.6859 45.129 37.7238 45.0531 37.7314H44.4689C44.0516 37.7314 43.7101 38.0728 43.7101 38.4901V49.4158C43.7101 49.5448 43.7405 49.6737 43.8012 49.7799L50.827 65.5538C51.0015 65.9939 51.1532 66.5554 51.0091 66.9423C50.8877 67.2686 50.4628 67.5189 49.4385 67.5189H29.044V67.5265ZM177.231 35.2732V50.5236C177.352 53.7254 179.863 56.3278 183.209 56.3278C186.555 56.3278 189.029 53.7254 189.15 50.5236V35.2732H192.64V50.5236C192.443 55.5311 188.369 59.6662 183.194 59.6662C178.02 59.6662 173.945 55.5311 173.748 50.5236V35.2732H177.231ZM230.652 50.6222L226.624 41.7299L222.595 50.6222H230.652ZM203.467 35.2732V55.9409H212.891V59.431H199.977V35.2732H203.467ZM242.086 33.6267L261.502 53.3005V35.2732H264.992V61.1381L245.577 41.4644V59.431H242.086V33.6267ZM226.624 34.0289L238.133 59.431H234.643L232.071 53.7557H221.168L218.596 59.431H215.106L226.624 34.0289ZM279.689 38.7633V59.4386H276.199V38.7633H269.173V35.2732H286.684V38.7633H279.689ZM297.177 34.9469C300.038 34.9469 301.434 35.0607 304.127 35.645L302.921 39.2337C300.554 38.7481 299.476 38.566 297.17 38.566C295.235 38.566 294.15 39.2186 293.566 40.2732C292.974 41.3278 292.974 42.6328 293.566 43.6874C294.158 44.7421 295.243 45.3946 296.419 45.3946H298.771C301.183 45.4022 303.422 46.7375 304.628 48.9075C305.842 51.085 305.842 53.7633 304.628 55.9409C303.46 58.0425 301.328 59.3627 298.998 59.4462H291.517V55.827H298.915C300.023 55.7663 301.039 55.129 301.593 54.1275C302.185 53.0729 302.185 51.7679 301.593 50.7132C301.001 49.6586 299.916 49.0061 298.74 49.0061H296.388C293.968 48.9985 291.737 47.6632 290.531 45.4932C289.977 44.4993 289.674 43.3991 289.628 42.2914V41.6692C289.674 40.5615 289.977 39.4613 290.531 38.4674C291.745 36.2823 293.991 34.9469 297.177 34.9469ZM144.507 34.8179L153.429 52.17H154.074L162.997 34.8179L168.892 59.431H165.402L161.957 45.038H161.229L153.756 59.5751L146.282 45.038H145.554L142.109 59.431H138.611L144.507 34.8179ZM131.593 38.7633V55.9484H134.12V59.4386H125.584V55.9484H128.111V38.7633H125.584V35.2732H134.12V38.7633H131.593ZM111.1 45.387H113.452C115.865 45.3946 118.103 46.7299 119.31 48.8999C120.523 51.0774 120.523 53.7557 119.31 55.9333C118.141 58.0349 116.009 59.3551 113.68 59.4386H106.199V55.8195H113.596C114.704 55.7588 115.721 55.1214 116.275 54.1199C116.866 53.0653 116.866 51.7603 116.275 50.7057C115.683 49.651 114.598 48.9985 113.422 48.9985H111.07C108.649 48.9909 106.419 47.6556 105.212 45.4856C104.659 44.4917 104.355 43.3915 104.31 42.2838V41.6616C104.355 40.5539 104.659 39.4538 105.212 38.4598C106.426 36.2823 108.672 34.9469 111.851 34.9469C114.712 34.9469 116.108 35.0607 118.801 35.645L117.595 39.2337C115.228 38.7481 114.15 38.566 111.844 38.566C109.909 38.566 108.824 39.2186 108.24 40.2732C107.648 41.3278 107.648 42.6328 108.24 43.6874C108.832 44.7345 109.924 45.387 111.1 45.387ZM111.654 77.8755H113.133V66.9953H111.654V71.8512H105.797V66.9953H104.317V77.8755H105.797V72.9286H111.654V77.8755ZM267.746 70.182V77.8755V77.8906H269.097V72.1547C269.34 71.8436 269.598 71.6008 269.886 71.4187C270.167 71.2366 270.478 71.1456 270.812 71.1456C271.29 71.1456 271.646 71.2973 271.897 71.6008C272.147 71.9043 272.268 72.3671 272.268 72.9817V77.883H273.619V72.9817C273.619 72.6782 273.665 72.4051 273.756 72.1774C273.839 71.9422 273.96 71.7526 274.112 71.6008C274.264 71.4491 274.446 71.3353 274.643 71.2594C274.841 71.1759 275.053 71.138 275.273 71.138C275.774 71.138 276.153 71.2973 276.419 71.6084C276.684 71.9195 276.813 72.3823 276.813 72.9817V77.883H278.164V72.9817C278.164 72.5113 278.103 72.1016 277.989 71.7374C277.875 71.3732 277.709 71.0697 277.489 70.8193C277.268 70.5765 277.003 70.3868 276.684 70.2579C276.366 70.1289 276.001 70.0606 275.599 70.0606C275.349 70.0606 275.099 70.0909 274.856 70.1516C274.605 70.2123 274.378 70.311 274.158 70.44C273.945 70.5689 273.748 70.7359 273.573 70.9407C273.399 71.138 273.255 71.3808 273.149 71.6615C273.012 71.1683 272.777 70.7814 272.458 70.4931C272.132 70.2048 271.715 70.0606 271.191 70.0606C270.728 70.0606 270.319 70.1744 269.97 70.3944C269.613 70.6145 269.294 70.9028 269.014 71.2518L268.915 70.4627C268.862 70.273 268.74 70.182 268.551 70.182H267.746ZM281.548 75.0909V70.182H280.197V75.0909C280.197 75.5234 280.258 75.9255 280.364 76.2821C280.47 76.6387 280.63 76.9498 280.85 77.2002C281.07 77.4506 281.343 77.6479 281.661 77.7844C281.98 77.9286 282.352 77.9969 282.769 77.9969C283.308 77.9969 283.778 77.883 284.196 77.6554C284.613 77.4354 284.985 77.1395 285.319 76.7677L285.425 77.5947C285.478 77.7844 285.599 77.8755 285.789 77.8755H286.593V70.182H285.243V75.8573C284.947 76.1911 284.628 76.4491 284.279 76.6387C283.93 76.8284 283.558 76.9195 283.164 76.9195C282.625 76.9195 282.215 76.7601 281.95 76.4415C281.684 76.1228 281.548 75.6752 281.548 75.0909ZM290.493 77.8755V66.6919H289.143V77.8755H290.493ZM298.103 77.8755H298.702V72.9589C298.702 72.5265 298.642 72.1319 298.528 71.7753C298.414 71.4187 298.24 71.1076 298.012 70.8573C297.784 70.6069 297.504 70.4096 297.17 70.2654C296.836 70.1213 296.457 70.053 296.024 70.053C295.425 70.053 294.886 70.1516 294.393 70.3565C293.9 70.5614 293.445 70.8724 293.02 71.2821L293.262 71.707C293.308 71.7753 293.361 71.836 293.429 71.8815C293.498 71.9271 293.573 71.9498 293.665 71.9498C293.786 71.9498 293.9 71.9043 294.021 71.8208C294.143 71.7374 294.279 71.6463 294.446 71.5401C294.613 71.4339 294.803 71.3428 295.03 71.2594C295.25 71.1759 295.531 71.138 295.857 71.138C296.358 71.138 296.737 71.2897 296.995 71.6008C297.246 71.9043 297.375 72.3595 297.375 72.9589V73.5659C296.502 73.5659 295.766 73.6418 295.167 73.7783C294.567 73.9225 294.082 74.097 293.71 74.317C293.338 74.5371 293.065 74.7875 292.898 75.0682C292.731 75.3489 292.648 75.6448 292.648 75.9483C292.648 76.2973 292.709 76.6008 292.822 76.8588C292.936 77.1167 293.088 77.3292 293.278 77.4961C293.475 77.663 293.702 77.792 293.96 77.8755C294.218 77.9589 294.499 78.0044 294.795 78.0044C295.091 78.0044 295.357 77.9817 295.599 77.9286C295.835 77.8755 296.062 77.7996 296.275 77.701C296.487 77.6023 296.692 77.4809 296.882 77.3368C297.071 77.1926 297.268 77.0257 297.473 76.8436L297.625 77.5568C297.648 77.6858 297.701 77.7768 297.784 77.8148C297.868 77.8527 297.974 77.8755 298.103 77.8755ZM295.85 76.9726C295.652 77.0181 295.432 77.0409 295.197 77.0409C295.015 77.0409 294.856 77.0181 294.704 76.9802C294.552 76.9346 294.423 76.8664 294.309 76.7753C294.196 76.6767 294.112 76.5553 294.044 76.4111C293.976 76.267 293.945 76.0925 293.945 75.8876C293.945 75.6752 294.014 75.4855 294.135 75.311C294.256 75.1365 294.454 74.9923 294.727 74.8633C295 74.7343 295.357 74.6281 295.789 74.5522C296.221 74.4688 296.753 74.4308 297.375 74.4308V76.0242C297.223 76.1835 297.071 76.3277 296.912 76.4491C296.753 76.578 296.586 76.6843 296.411 76.7677C296.237 76.8588 296.047 76.9271 295.85 76.9726ZM300.926 70.182V77.8755H302.276V72.2078C302.572 71.8815 302.891 71.616 303.24 71.4263C303.581 71.2366 303.953 71.138 304.355 71.138C304.901 71.138 305.311 71.3049 305.577 71.6236C305.842 71.9498 305.971 72.3975 305.971 72.9817V77.883H307.322V72.9817C307.322 72.5492 307.268 72.1471 307.155 71.7905C307.048 71.4263 306.882 71.1228 306.669 70.8648C306.457 70.6069 306.184 70.4096 305.865 70.273C305.539 70.1289 305.167 70.0606 304.75 70.0606C304.211 70.0606 303.733 70.1744 303.323 70.402C302.906 70.6296 302.534 70.9255 302.2 71.2973L302.094 70.4627C302.041 70.273 301.919 70.182 301.73 70.182H300.926ZM310.47 77.4885C310.797 77.8299 311.259 77.9969 311.866 77.9969C312.215 77.9969 312.557 77.9362 312.883 77.8223C313.209 77.6934 313.49 77.5265 313.725 77.314L313.331 76.6615C313.278 76.578 313.209 76.5325 313.141 76.5325C313.103 76.5325 313.058 76.5477 313.004 76.5856C312.951 76.6236 312.883 76.6691 312.807 76.7146C312.731 76.7601 312.648 76.7981 312.542 76.836C312.435 76.8739 312.314 76.8967 312.17 76.8967C311.919 76.8967 311.722 76.8208 311.563 76.6615C311.404 76.5022 311.328 76.267 311.328 75.9407V71.3201H313.528V70.3413H311.328V67.6934H310.645C310.561 67.6934 310.485 67.7161 310.432 67.7617C310.379 67.8148 310.341 67.8755 310.334 67.9513L310.023 70.3261L308.763 70.4855V71.0242C308.763 71.1228 308.794 71.1987 308.847 71.2442C308.9 71.2973 308.968 71.3201 309.052 71.3201H309.977V76.0242C309.977 76.6615 310.144 77.1471 310.47 77.4885ZM319.492 71.6236C319.621 71.6236 319.712 71.5705 319.772 71.4566L320.076 70.9635C319.787 70.6827 319.438 70.4627 319.036 70.3034C318.634 70.1441 318.179 70.0606 317.671 70.0606C317.238 70.0606 316.851 70.1213 316.51 70.2427C316.168 70.3641 315.888 70.531 315.652 70.7359C315.417 70.9407 315.243 71.1759 315.121 71.4491C315 71.7222 314.939 72.0029 314.939 72.2988C314.939 72.6327 315 72.9134 315.114 73.141C315.228 73.3762 315.372 73.5659 315.561 73.7252C315.751 73.877 315.963 74.006 316.206 74.1122C316.449 74.2184 316.692 74.3095 316.942 74.3929C317.193 74.4688 317.435 74.5447 317.678 74.6205C317.913 74.6888 318.126 74.7799 318.316 74.8785C318.505 74.9771 318.657 75.0985 318.771 75.2351C318.885 75.3717 318.938 75.5462 318.938 75.7586C318.938 75.9255 318.907 76.0925 318.847 76.2442C318.778 76.396 318.68 76.5325 318.551 76.6463C318.422 76.7601 318.255 76.8512 318.058 76.9195C317.86 76.9878 317.633 77.0257 317.367 77.0257C317.064 77.0257 316.806 76.9878 316.601 76.9195C316.396 76.8512 316.221 76.7677 316.077 76.6843C315.933 76.6008 315.804 76.5173 315.706 76.4491C315.607 76.3808 315.508 76.3428 315.417 76.3428C315.326 76.3428 315.25 76.358 315.197 76.396C315.144 76.4339 315.091 76.4794 315.053 76.5477L314.734 77.0788C315.038 77.3444 315.41 77.5644 315.842 77.7389C316.275 77.9134 316.76 77.9969 317.299 77.9969C317.769 77.9969 318.187 77.9362 318.543 77.8072C318.9 77.6782 319.203 77.5037 319.454 77.2837C319.704 77.0636 319.886 76.8057 320.015 76.5022C320.144 76.2063 320.205 75.88 320.205 75.5234C320.205 75.2123 320.152 74.9468 320.038 74.7268C319.924 74.5067 319.772 74.3246 319.583 74.1729C319.393 74.0211 319.18 73.8922 318.945 73.7935C318.71 73.6873 318.467 73.5963 318.217 73.5128C318.063 73.4616 317.91 73.4132 317.759 73.366C317.665 73.3362 317.572 73.3069 317.481 73.2776C317.246 73.2093 317.033 73.1258 316.844 73.0272C316.661 72.9286 316.51 72.8148 316.396 72.6858C316.282 72.5568 316.221 72.3899 316.221 72.1926C316.221 72.0333 316.259 71.8891 316.328 71.7525C316.396 71.6236 316.495 71.5022 316.624 71.4035C316.753 71.2973 316.904 71.2214 317.086 71.1607C317.268 71.1076 317.473 71.0773 317.701 71.0773C317.966 71.0773 318.194 71.1001 318.384 71.1607C318.581 71.2214 318.748 71.2821 318.885 71.3504C318.974 71.3953 319.054 71.4402 319.127 71.4808C319.164 71.502 319.2 71.5219 319.234 71.5401C319.332 71.5932 319.416 71.6236 319.492 71.6236ZM117.253 77.8755V70.182H115.903V77.8755H117.253ZM117.481 68.1334C117.534 68.0196 117.557 67.8982 117.557 67.7692C117.557 67.6403 117.526 67.5113 117.481 67.3899C117.428 67.2685 117.36 67.1699 117.269 67.0788C117.177 66.9953 117.071 66.9271 116.957 66.8739C116.844 66.8208 116.715 66.7981 116.586 66.7981C116.457 66.7981 116.335 66.8208 116.221 66.8739C116.108 66.9195 116.009 66.9878 115.918 67.0788C115.827 67.1699 115.759 67.2685 115.706 67.3899C115.652 67.5113 115.63 67.6403 115.63 67.7692C115.63 67.8982 115.652 68.0196 115.706 68.1334C115.759 68.2472 115.827 68.3459 115.918 68.4369C116.009 68.528 116.108 68.5963 116.221 68.6494C116.335 68.7025 116.457 68.7252 116.586 68.7252C116.715 68.7252 116.844 68.7025 116.957 68.6494C117.079 68.5963 117.177 68.528 117.269 68.4369C117.36 68.3459 117.428 68.2472 117.481 68.1334ZM123.338 70.1668C123.042 70.0985 122.731 70.0606 122.398 70.0606C121.973 70.0606 121.586 70.1213 121.229 70.2275C120.872 70.3489 120.561 70.5158 120.303 70.7283C120.045 70.9407 119.848 71.2063 119.704 71.5098C119.56 71.8208 119.484 72.1547 119.484 72.534C119.484 73.0044 119.598 73.4142 119.81 73.7708C120.023 74.1274 120.319 74.4081 120.698 74.6205C120.539 74.704 120.394 74.795 120.273 74.9013C120.152 75.0075 120.053 75.1213 119.97 75.2351C119.886 75.3489 119.818 75.4703 119.78 75.5841C119.742 75.6979 119.719 75.8193 119.719 75.9255C119.719 76.2063 119.788 76.4339 119.916 76.6008C120.045 76.7677 120.212 76.9043 120.432 77.0029C120.015 77.1623 119.689 77.3747 119.446 77.6403C119.203 77.9058 119.082 78.2245 119.082 78.6038C119.082 78.877 119.158 79.1349 119.294 79.3777C119.431 79.6281 119.636 79.8406 119.916 80.0302C120.197 80.2199 120.546 80.3641 120.971 80.4779C121.388 80.5917 121.882 80.6448 122.443 80.6448C123.005 80.6448 123.505 80.5689 123.953 80.4248C124.401 80.2806 124.772 80.0834 125.083 79.8406C125.394 79.5978 125.63 79.317 125.797 79.006C125.956 78.6949 126.039 78.3762 126.039 78.0424C126.039 77.6782 125.964 77.3899 125.819 77.1623C125.675 76.9346 125.478 76.7601 125.235 76.6312C124.992 76.5022 124.719 76.4111 124.408 76.3504C124.105 76.2973 123.786 76.267 123.467 76.267H122.519C122.208 76.267 121.935 76.2518 121.692 76.2063C121.449 76.1683 121.252 76.1 121.108 76.0014C120.964 75.9104 120.888 75.7662 120.888 75.5765C120.888 75.4627 120.933 75.3489 121.017 75.2275C121.1 75.1061 121.221 74.9999 121.381 74.8937C121.699 74.9771 122.041 75.0227 122.398 75.0227C122.822 75.0227 123.209 74.962 123.558 74.8482C123.907 74.7343 124.211 74.5674 124.469 74.3474C124.727 74.1274 124.924 73.8618 125.068 73.5583C125.212 73.2472 125.281 72.9058 125.281 72.534C125.281 72.1319 125.197 71.7601 125.023 71.4339L125.895 71.3125C126.108 71.267 126.214 71.1607 126.214 70.9938V70.4931H124.127C123.892 70.3489 123.627 70.2427 123.338 70.1668ZM124.636 77.8072C124.742 77.921 124.795 78.0803 124.795 78.2776C124.795 78.4824 124.742 78.6645 124.636 78.8542C124.53 79.0211 124.378 79.1729 124.181 79.2943C123.976 79.4233 123.733 79.5143 123.445 79.5826C123.156 79.6509 122.83 79.6812 122.466 79.6812C122.094 79.6812 121.768 79.6433 121.495 79.5826C121.214 79.5219 120.986 79.4309 120.804 79.3246C120.622 79.2184 120.493 79.0894 120.402 78.9377C120.311 78.7859 120.266 78.6266 120.266 78.4521C120.266 78.179 120.357 77.9437 120.539 77.7465C120.713 77.5492 120.948 77.3823 121.237 77.2457C121.487 77.314 121.745 77.3444 122.018 77.3444H122.822C123.088 77.3444 123.338 77.3595 123.574 77.3899C123.809 77.4202 124.021 77.4733 124.203 77.534C124.385 77.5947 124.53 77.6858 124.636 77.8072ZM123.126 74.0136C122.913 74.0894 122.671 74.1274 122.398 74.1274C122.132 74.1274 121.889 74.0894 121.684 74.0136C121.479 73.9377 121.305 73.8315 121.161 73.6949C121.024 73.5507 120.918 73.3914 120.842 73.2017C120.766 73.012 120.728 72.7996 120.728 72.572C120.728 72.1016 120.872 71.7298 121.161 71.4491C121.442 71.1683 121.859 71.0318 122.398 71.0318C122.944 71.0318 123.361 71.1683 123.649 71.4491C123.93 71.7298 124.074 72.1016 124.074 72.572C124.074 72.7996 124.036 73.012 123.968 73.2017C123.9 73.3914 123.794 73.5583 123.649 73.6949C123.513 73.8315 123.338 73.9377 123.126 74.0136ZM127.739 66.6919V77.8679H129.089V72.2002C129.385 71.8739 129.704 71.6084 130.053 71.4187C130.394 71.229 130.766 71.1304 131.168 71.1304C131.715 71.1304 132.124 71.2973 132.39 71.616C132.655 71.9422 132.784 72.3899 132.784 72.9741V77.8755H134.135V72.9741C134.135 72.5416 134.082 72.1395 133.968 71.7829C133.862 71.4187 133.695 71.1152 133.482 70.8573C133.27 70.5993 132.997 70.402 132.678 70.2654C132.352 70.1213 131.98 70.053 131.563 70.053C131.039 70.053 130.584 70.1592 130.182 70.3717C129.78 70.5841 129.416 70.8648 129.089 71.2139V66.6919H127.739ZM141.517 77.8755V73.8087V73.8011H143.262C143.915 73.8011 144.492 73.7101 145 73.5431C145.508 73.3762 145.933 73.141 146.275 72.8375C146.616 72.534 146.874 72.1699 147.048 71.7525C147.223 71.3353 147.314 70.8724 147.314 70.3641C147.314 69.8557 147.238 69.3929 147.071 68.9756C146.904 68.5659 146.654 68.2093 146.32 67.9134C145.986 67.6251 145.569 67.3975 145.061 67.2381C144.552 67.0788 143.953 66.9953 143.262 66.9953H140.053V77.8755H141.517ZM143.262 72.6403H141.517V68.1638H143.262C144.127 68.1638 144.78 68.3611 145.205 68.748C145.63 69.1349 145.842 69.6812 145.842 70.3717C145.842 70.7055 145.789 71.009 145.675 71.2897C145.561 71.5629 145.402 71.8057 145.182 72.0029C144.97 72.2078 144.696 72.3595 144.378 72.4733C144.052 72.5872 143.68 72.6403 143.262 72.6403ZM149.143 70.182V77.8755H150.493V73.05C150.706 72.5037 150.971 72.094 151.29 71.8057C151.601 71.5249 151.995 71.3808 152.466 71.3808C152.731 71.3808 152.936 71.4035 153.08 71.4491C153.225 71.5022 153.338 71.5249 153.407 71.5249C153.528 71.5249 153.604 71.4642 153.642 71.3353L153.816 70.3261C153.672 70.2427 153.513 70.1744 153.338 70.1213C153.164 70.0682 152.974 70.0454 152.762 70.0454C152.246 70.0454 151.791 70.2048 151.404 70.5234C151.017 70.8421 150.69 71.2821 150.425 71.8512L150.334 70.5765C150.311 70.4324 150.273 70.3337 150.22 70.273C150.167 70.2123 150.061 70.182 149.916 70.182H149.143ZM159.75 70.2958C159.363 70.1365 158.938 70.0606 158.475 70.0606C157.913 70.0606 157.413 70.1592 156.973 70.3337C156.525 70.531 156.153 70.7966 155.842 71.138C155.539 71.4794 155.303 71.8891 155.137 72.3519C154.97 72.8148 154.886 73.3155 154.886 73.8542C154.886 74.5143 154.977 75.1061 155.159 75.6145C155.341 76.1304 155.599 76.5553 155.926 76.9043C156.252 77.2533 156.639 77.5113 157.086 77.6934C157.534 77.8755 158.02 77.9665 158.551 77.9665C158.831 77.9665 159.112 77.9437 159.393 77.8982C159.681 77.8527 159.954 77.7768 160.22 77.6858C160.486 77.5947 160.728 77.4733 160.964 77.3216C161.199 77.1699 161.396 76.9953 161.563 76.7981L161.184 76.3049C161.123 76.2214 161.039 76.1759 160.926 76.1759C160.842 76.1759 160.743 76.2139 160.622 76.2973C160.501 76.3732 160.349 76.4566 160.174 76.5477C160 76.6387 159.787 76.7298 159.545 76.8057C159.294 76.8891 159.006 76.9271 158.665 76.9271C158.3 76.9271 157.974 76.8664 157.678 76.745C157.382 76.6236 157.132 76.4491 156.92 76.2063C156.707 75.9635 156.54 75.6676 156.419 75.3034C156.297 74.9468 156.229 74.5219 156.221 74.0363H161.335C161.464 74.0363 161.548 73.9984 161.593 73.9301C161.639 73.8618 161.662 73.7177 161.662 73.5052C161.662 72.9589 161.586 72.4658 161.426 72.0409C161.267 71.616 161.039 71.2518 160.759 70.9635C160.478 70.6752 160.137 70.4475 159.75 70.2958ZM156.965 71.6236C157.337 71.2518 157.853 71.0621 158.505 71.0621C158.809 71.0621 159.089 71.1152 159.332 71.2139C159.567 71.3201 159.772 71.4642 159.939 71.6539C160.106 71.8436 160.235 72.0712 160.319 72.3292C160.402 72.5872 160.448 72.8755 160.448 73.1865H156.267C156.358 72.5189 156.593 71.9953 156.965 71.6236ZM168.68 71.6767C168.718 71.6463 168.763 71.6008 168.801 71.5477L169.158 71.0545C168.839 70.7359 168.475 70.4931 168.058 70.3186C167.64 70.1441 167.17 70.053 166.631 70.053C166.047 70.053 165.531 70.1516 165.083 70.3489C164.636 70.5462 164.256 70.8269 163.953 71.1759C163.649 71.5325 163.414 71.9498 163.255 72.4354C163.096 72.921 163.012 73.4521 163.012 74.0211C163.012 74.6509 163.103 75.2048 163.278 75.6979C163.452 76.1911 163.687 76.6084 163.991 76.9422C164.294 77.2837 164.659 77.5416 165.068 77.7161C165.478 77.8906 165.926 77.9817 166.404 77.9817C166.957 77.9817 167.489 77.883 167.989 77.6934C168.49 77.5037 168.907 77.2002 169.241 76.7905L168.862 76.2973C168.809 76.2139 168.718 76.1683 168.604 76.1683C168.513 76.1683 168.422 76.2063 168.331 76.2821C168.24 76.3656 168.126 76.4491 167.982 76.5477C167.838 76.6387 167.663 76.7298 167.451 76.8057C167.238 76.8891 166.965 76.9271 166.639 76.9271C166.297 76.9271 165.986 76.8588 165.713 76.7298C165.432 76.6008 165.197 76.4111 165.008 76.1683C164.818 75.9255 164.666 75.622 164.56 75.2579C164.454 74.9013 164.401 74.484 164.401 74.0211C164.401 73.5735 164.454 73.1714 164.552 72.8148C164.651 72.4582 164.795 72.1471 164.992 71.8967C165.182 71.6463 165.425 71.4566 165.713 71.3201C166.001 71.1835 166.335 71.1152 166.707 71.1152C166.995 71.1152 167.231 71.1532 167.428 71.2139C167.618 71.2746 167.784 71.3428 167.921 71.4187C168.058 71.4946 168.171 71.5705 168.262 71.6312C168.346 71.6919 168.429 71.7222 168.505 71.7222C168.581 71.7222 168.642 71.707 168.68 71.6767ZM172.322 77.8755V70.182H170.971V77.8755H172.322ZM172.549 68.1334C172.602 68.0196 172.625 67.8982 172.625 67.7692C172.625 67.6403 172.602 67.5113 172.549 67.3899C172.496 67.2685 172.428 67.1699 172.337 67.0788C172.246 66.9953 172.14 66.9271 172.026 66.8739C171.912 66.8208 171.783 66.7981 171.654 66.7981C171.525 66.7981 171.404 66.8208 171.29 66.8739C171.176 66.9195 171.077 66.9878 170.986 67.0788C170.895 67.1699 170.827 67.2685 170.774 67.3899C170.721 67.5113 170.698 67.6403 170.698 67.7692C170.698 67.8982 170.721 68.0196 170.774 68.1334C170.827 68.2472 170.895 68.3459 170.986 68.4369C171.077 68.528 171.176 68.5963 171.29 68.6494C171.404 68.7025 171.525 68.7252 171.654 68.7252C171.783 68.7252 171.912 68.7025 172.026 68.6494C172.147 68.5963 172.246 68.528 172.337 68.4369C172.428 68.3459 172.496 68.2472 172.549 68.1334ZM178.998 71.6236C179.127 71.6236 179.218 71.5705 179.279 71.4566L179.583 70.9635C179.294 70.6827 178.945 70.4627 178.543 70.3034C178.141 70.1441 177.686 70.0606 177.177 70.0606C176.745 70.0606 176.358 70.1213 176.017 70.2427C175.675 70.3641 175.394 70.531 175.159 70.7359C174.924 70.9407 174.75 71.1759 174.628 71.4491C174.507 71.7222 174.446 72.0029 174.446 72.2988C174.446 72.6327 174.507 72.9134 174.621 73.141C174.734 73.3762 174.879 73.5659 175.068 73.7252C175.258 73.877 175.47 74.006 175.713 74.1122C175.956 74.2184 176.199 74.3095 176.449 74.3929C176.555 74.4249 176.66 74.4583 176.765 74.4913C176.908 74.5365 177.049 74.5811 177.185 74.6205C177.42 74.6888 177.633 74.7799 177.822 74.8785C178.012 74.9771 178.164 75.0985 178.278 75.2351C178.391 75.3717 178.445 75.5462 178.445 75.7586C178.445 75.9255 178.414 76.0925 178.354 76.2442C178.285 76.396 178.187 76.5325 178.058 76.6463C177.929 76.7601 177.762 76.8512 177.564 76.9195C177.367 76.9878 177.14 77.0257 176.874 77.0257C176.57 77.0257 176.313 76.9878 176.108 76.9195C175.903 76.8512 175.728 76.7677 175.584 76.6843C175.44 76.6008 175.311 76.5173 175.212 76.4491C175.114 76.3808 175.015 76.3428 174.924 76.3428C174.833 76.3428 174.757 76.358 174.704 76.396C174.651 76.4339 174.598 76.4794 174.56 76.5477L174.241 77.0788C174.545 77.3444 174.916 77.5644 175.349 77.7389C175.781 77.9134 176.267 77.9969 176.806 77.9969C177.276 77.9969 177.693 77.9362 178.05 77.8072C178.407 77.6782 178.71 77.5037 178.96 77.2837C179.211 77.0636 179.393 76.8057 179.522 76.5022C179.651 76.2063 179.712 75.88 179.712 75.5234C179.712 75.2123 179.658 74.9468 179.545 74.7268C179.431 74.5067 179.279 74.3246 179.089 74.1729C178.9 74.0211 178.687 73.8922 178.452 73.7935C178.217 73.6873 177.974 73.5963 177.724 73.5128C177.57 73.4616 177.417 73.4133 177.266 73.366C177.172 73.3362 177.079 73.3069 176.988 73.2776C176.753 73.2093 176.54 73.1258 176.35 73.0272C176.168 72.9286 176.017 72.8148 175.903 72.6858C175.789 72.5568 175.728 72.3899 175.728 72.1926C175.728 72.0333 175.766 71.8891 175.835 71.7525C175.903 71.6236 176.001 71.5022 176.13 71.4035C176.259 71.2973 176.411 71.2214 176.593 71.1607C176.775 71.1076 176.98 71.0773 177.208 71.0773C177.473 71.0773 177.701 71.1001 177.891 71.1607C178.088 71.2214 178.255 71.2821 178.391 71.3504C178.481 71.3953 178.561 71.4402 178.634 71.4808C178.671 71.502 178.707 71.5219 178.74 71.5401C178.839 71.5932 178.923 71.6236 178.998 71.6236ZM183.141 77.8755V70.182H181.791V77.8755H183.141ZM183.369 68.1334C183.422 68.0196 183.445 67.8982 183.445 67.7692C183.445 67.6403 183.422 67.5113 183.369 67.3899C183.316 67.2685 183.247 67.1699 183.156 67.0788C183.065 66.9953 182.959 66.9271 182.845 66.8739C182.731 66.8208 182.602 66.7981 182.473 66.7981C182.344 66.7981 182.223 66.8208 182.109 66.8739C181.995 66.9195 181.897 66.9878 181.806 67.0788C181.715 67.1699 181.646 67.2685 181.593 67.3899C181.54 67.5113 181.517 67.6403 181.517 67.7692C181.517 67.8982 181.54 68.0196 181.593 68.1334C181.646 68.2472 181.715 68.3459 181.806 68.4369C181.897 68.528 181.995 68.5963 182.109 68.6494C182.223 68.7025 182.344 68.7252 182.473 68.7252C182.602 68.7252 182.731 68.7025 182.845 68.6494C182.967 68.5963 183.065 68.528 183.156 68.4369C183.247 68.3459 183.316 68.2472 183.369 68.1334ZM190.334 70.3489C189.879 70.1592 189.37 70.0682 188.809 70.0682C188.247 70.0682 187.747 70.1592 187.291 70.3489C186.836 70.5386 186.449 70.8041 186.13 71.1456C185.812 71.487 185.569 71.9043 185.394 72.3899C185.22 72.8831 185.137 73.4293 185.137 74.0287C185.137 74.6357 185.22 75.182 185.394 75.6676C185.569 76.1532 185.812 76.5705 186.13 76.9119C186.449 77.2533 186.836 77.5189 187.291 77.701C187.739 77.8906 188.247 77.9817 188.809 77.9817C189.37 77.9817 189.879 77.883 190.334 77.701C190.789 77.5189 191.168 77.2533 191.487 76.9119C191.806 76.5705 192.048 76.1532 192.215 75.6676C192.382 75.182 192.466 74.6357 192.466 74.0287C192.466 73.4217 192.382 72.8755 192.215 72.3899C192.048 71.9043 191.806 71.487 191.487 71.1456C191.168 70.8041 190.789 70.5386 190.334 70.3489ZM190.508 76.1607C190.136 76.6691 189.567 76.9271 188.809 76.9271C188.429 76.9271 188.096 76.8588 187.807 76.7374C187.526 76.6008 187.291 76.4111 187.102 76.1683C186.912 75.918 186.768 75.6145 186.677 75.2579C186.578 74.9013 186.533 74.4915 186.533 74.0363C186.533 73.5811 186.586 73.1714 186.677 72.8072C186.768 72.443 186.912 72.1395 187.102 71.8891C187.291 71.6387 187.526 71.4491 187.807 71.3201C188.088 71.1911 188.422 71.1228 188.809 71.1228C189.567 71.1228 190.136 71.3808 190.508 71.8891C190.88 72.3975 191.07 73.1107 191.07 74.0287C191.07 74.9392 190.88 75.6524 190.508 76.1607ZM194.317 70.182V77.8755H195.668V72.2078C195.964 71.8815 196.282 71.616 196.631 71.4263C196.973 71.2366 197.344 71.138 197.747 71.138C198.293 71.138 198.702 71.3049 198.968 71.6236C199.234 71.9498 199.363 72.3975 199.363 72.9817V77.883H200.713V72.9817C200.713 72.5492 200.66 72.1471 200.546 71.7905C200.44 71.4263 200.273 71.1228 200.061 70.8648C199.848 70.6069 199.575 70.4096 199.256 70.273C198.93 70.1289 198.558 70.0606 198.141 70.0606C197.602 70.0606 197.124 70.1744 196.715 70.402C196.297 70.6296 195.926 70.9255 195.592 71.2973L195.486 70.4627C195.432 70.273 195.311 70.182 195.121 70.182H194.317ZM213.885 68.2245V66.9802H205.372V68.2245H208.9V77.8679H210.372V68.2245H213.885ZM215.394 66.6919V77.8679H216.745V72.2002C217.041 71.8739 217.36 71.6084 217.709 71.4187C218.05 71.229 218.422 71.1304 218.824 71.1304C219.37 71.1304 219.78 71.2973 220.045 71.616C220.311 71.9422 220.44 72.3899 220.44 72.9741V77.8755H221.791V72.9741C221.791 72.5416 221.737 72.1395 221.624 71.7829C221.517 71.4187 221.35 71.1152 221.138 70.8573C220.926 70.5993 220.652 70.402 220.334 70.2654C220.007 70.1213 219.636 70.053 219.218 70.053C218.695 70.053 218.24 70.1592 217.838 70.3717C217.435 70.5841 217.071 70.8648 216.745 71.2139V66.6919H215.394ZM224.006 70.182V77.8755H225.357V73.05C225.569 72.5037 225.835 72.094 226.153 71.8057C226.464 71.5249 226.859 71.3808 227.329 71.3808C227.595 71.3808 227.8 71.4035 227.944 71.4491C228.088 71.5022 228.202 71.5249 228.27 71.5249C228.391 71.5249 228.467 71.4642 228.505 71.3353L228.68 70.3261C228.536 70.2427 228.376 70.1744 228.202 70.1213C228.027 70.0682 227.838 70.0454 227.625 70.0454C227.109 70.0454 226.654 70.2048 226.267 70.5234C225.88 70.8421 225.554 71.2821 225.288 71.8512L225.197 70.5765C225.174 70.4324 225.136 70.3337 225.083 70.273C225.03 70.2123 224.924 70.182 224.78 70.182H224.006ZM234.613 70.2958C234.226 70.1365 233.801 70.0606 233.338 70.0606C232.784 70.0606 232.284 70.1592 231.836 70.3337C231.388 70.531 231.017 70.7966 230.706 71.138C230.402 71.4794 230.167 71.8891 230 72.3519C229.833 72.8148 229.75 73.3155 229.75 73.8542C229.75 74.5143 229.841 75.1061 230.023 75.6145C230.205 76.1304 230.463 76.5553 230.789 76.9043C231.115 77.2533 231.502 77.5113 231.95 77.6934C232.397 77.8755 232.883 77.9665 233.414 77.9665C233.695 77.9665 233.976 77.9437 234.256 77.8982C234.545 77.8527 234.818 77.7768 235.083 77.6858C235.349 77.5947 235.592 77.4733 235.827 77.3216C236.062 77.1699 236.259 76.9953 236.426 76.7981L236.047 76.3049C235.986 76.2214 235.903 76.1759 235.789 76.1759C235.706 76.1759 235.607 76.2139 235.485 76.2973C235.364 76.3732 235.212 76.4566 235.038 76.5477C234.863 76.6387 234.651 76.7298 234.408 76.8057C234.158 76.8891 233.869 76.9271 233.528 76.9271C233.164 76.9271 232.838 76.8664 232.542 76.745C232.246 76.6236 231.995 76.4491 231.783 76.2063C231.57 75.9635 231.404 75.6676 231.282 75.3034C231.161 74.9468 231.092 74.5219 231.085 74.0363H236.199C236.328 74.0363 236.411 73.9984 236.457 73.9301C236.502 73.8618 236.525 73.7177 236.525 73.5052C236.525 72.9589 236.449 72.4658 236.29 72.0409C236.13 71.616 235.903 71.2518 235.622 70.9635C235.341 70.6752 235 70.4475 234.613 70.2958ZM231.828 71.6236C232.2 71.2518 232.716 71.0621 233.369 71.0621C233.68 71.0621 233.953 71.1152 234.196 71.2139C234.431 71.3201 234.636 71.4642 234.803 71.6539C234.97 71.8436 235.099 72.0712 235.182 72.3292C235.265 72.5872 235.311 72.8755 235.311 73.1865H231.13C231.221 72.5189 231.457 71.9953 231.828 71.6236ZM243.467 77.8755H244.067V72.9589C244.067 72.5265 244.006 72.1319 243.892 71.7753C243.778 71.4187 243.604 71.1076 243.376 70.8573C243.149 70.6069 242.868 70.4096 242.534 70.2654C242.2 70.1213 241.821 70.053 241.388 70.053C240.789 70.053 240.25 70.1516 239.757 70.3565C239.264 70.5614 238.809 70.8724 238.384 71.2821L238.627 71.707C238.672 71.7753 238.725 71.836 238.794 71.8815C238.862 71.9271 238.938 71.9498 239.029 71.9498C239.15 71.9498 239.264 71.9043 239.385 71.8208C239.507 71.7374 239.643 71.6463 239.81 71.5401C239.977 71.4339 240.167 71.3428 240.394 71.2594C240.614 71.1759 240.895 71.138 241.221 71.138C241.722 71.138 242.102 71.2897 242.36 71.6008C242.61 71.9043 242.739 72.3595 242.739 72.9589V73.5659C241.866 73.5659 241.13 73.6418 240.531 73.7783C239.932 73.9225 239.446 74.097 239.074 74.317C238.702 74.5371 238.429 74.7875 238.262 75.0682C238.096 75.3489 238.012 75.6448 238.012 75.9483C238.012 76.2973 238.073 76.6008 238.187 76.8588C238.3 77.1167 238.452 77.3292 238.642 77.4961C238.839 77.663 239.067 77.792 239.325 77.8755C239.583 77.9589 239.863 78.0044 240.159 78.0044C240.455 78.0044 240.721 77.9817 240.963 77.9286C241.199 77.8755 241.426 77.7996 241.639 77.701C241.851 77.6023 242.056 77.4809 242.246 77.3368C242.435 77.1926 242.633 77.0257 242.838 76.8436L242.989 77.5568C243.012 77.6858 243.065 77.7768 243.149 77.8148C243.232 77.8527 243.338 77.8755 243.467 77.8755ZM241.214 76.9726C241.017 77.0181 240.797 77.0409 240.561 77.0409C240.387 77.0409 240.22 77.0181 240.068 76.9802C239.916 76.9346 239.787 76.8664 239.674 76.7753C239.56 76.6767 239.476 76.5553 239.408 76.4111C239.34 76.267 239.309 76.0925 239.309 75.8876C239.309 75.6752 239.378 75.4855 239.499 75.311C239.621 75.1365 239.818 74.9923 240.091 74.8633C240.364 74.7343 240.721 74.6281 241.153 74.5522C241.586 74.4688 242.117 74.4308 242.739 74.4308V76.0242C242.587 76.1835 242.435 76.3277 242.276 76.4491C242.117 76.578 241.95 76.6843 241.775 76.7677C241.601 76.8588 241.411 76.9271 241.214 76.9726ZM247.231 77.4885C247.557 77.8299 248.02 77.9969 248.627 77.9969C248.976 77.9969 249.309 77.9362 249.643 77.8223C249.97 77.6934 250.25 77.5265 250.486 77.314L250.091 76.6615C250.038 76.578 249.97 76.5325 249.901 76.5325C249.863 76.5325 249.818 76.5477 249.765 76.5856C249.712 76.6236 249.643 76.6691 249.567 76.7146C249.492 76.7601 249.408 76.7981 249.302 76.836C249.196 76.8739 249.074 76.8967 248.93 76.8967C248.68 76.8967 248.482 76.8208 248.323 76.6615C248.164 76.5022 248.088 76.267 248.088 75.9407V71.3201H250.288V70.3413H248.088V67.6934H247.405C247.322 67.6934 247.246 67.7161 247.193 67.7617C247.139 67.8148 247.102 67.8755 247.094 67.9513L246.783 70.3261L245.523 70.4855V71.0242C245.523 71.1228 245.554 71.1987 245.607 71.2442C245.66 71.2973 245.728 71.3201 245.812 71.3201H246.737V76.0242C246.737 76.6615 246.904 77.1471 247.231 77.4885ZM261.108 68.8694C261.161 68.8315 261.206 68.7784 261.252 68.7025L261.608 67.9969C261.237 67.6251 260.797 67.3444 260.296 67.1547C259.795 66.965 259.241 66.8664 258.634 66.8664C258.095 66.8664 257.617 66.9498 257.2 67.1167C256.783 67.2837 256.426 67.5037 256.146 67.7844C255.865 68.0651 255.652 68.3838 255.501 68.7404C255.349 69.097 255.273 69.4688 255.273 69.8557C255.273 70.3337 255.349 70.7359 255.501 71.0621C255.645 71.3884 255.842 71.6615 256.085 71.8815C256.328 72.1016 256.608 72.2761 256.919 72.4126C257.231 72.5492 257.549 72.663 257.875 72.7692C258.099 72.8421 258.32 72.9115 258.537 72.9797C258.636 73.0109 258.734 73.0418 258.831 73.0727C259.143 73.1714 259.416 73.2928 259.658 73.4369C259.901 73.5735 260.099 73.748 260.25 73.9604C260.394 74.1729 260.47 74.446 260.47 74.7723C260.47 75.0682 260.417 75.3413 260.319 75.5841C260.22 75.8269 260.076 76.0318 259.886 76.2063C259.696 76.3808 259.461 76.5173 259.188 76.616C258.915 76.7146 258.604 76.7601 258.255 76.7601C257.838 76.7601 257.481 76.707 257.193 76.5932C256.904 76.4794 256.654 76.3504 256.449 76.2139C256.244 76.0773 256.07 75.9559 255.933 75.8421C255.797 75.7283 255.675 75.6676 255.569 75.6676C255.501 75.6676 255.44 75.6903 255.379 75.7283C255.319 75.7662 255.265 75.8117 255.228 75.8724L254.803 76.5705C255.212 77.0105 255.713 77.3519 256.29 77.6099C256.866 77.8679 257.504 77.9969 258.209 77.9969C258.786 77.9969 259.302 77.9058 259.757 77.7313C260.212 77.5568 260.592 77.314 260.903 77.0029C261.214 76.6918 261.449 76.3277 261.608 75.9104C261.768 75.4931 261.851 75.053 261.851 74.575C261.851 74.1274 261.783 73.748 261.631 73.4369C261.479 73.1258 261.282 72.8679 261.039 72.6554C260.797 72.443 260.516 72.2609 260.205 72.1243C259.894 71.9878 259.575 71.8664 259.249 71.7525C259.033 71.6773 258.821 71.6054 258.612 71.5345C258.504 71.4983 258.398 71.4623 258.293 71.4263C257.982 71.3277 257.701 71.2063 257.458 71.0621C257.215 70.918 257.018 70.7434 256.866 70.5462C256.715 70.3489 256.639 70.0985 256.639 69.795C256.639 69.5522 256.684 69.3322 256.768 69.1274C256.859 68.9225 256.988 68.748 257.155 68.5963C257.322 68.4445 257.534 68.3231 257.784 68.2321C258.035 68.1486 258.331 68.1031 258.657 68.1031C259.006 68.1031 259.309 68.1486 259.552 68.2321C259.795 68.3155 260.008 68.4066 260.182 68.5128C260.357 68.619 260.501 68.7177 260.614 68.8011C260.728 68.8846 260.827 68.9301 260.91 68.9301C260.994 68.9301 261.055 68.9073 261.108 68.8694ZM265.19 77.8755V70.182H263.839V77.8755H265.19ZM265.417 68.1334C265.47 68.0196 265.493 67.8982 265.493 67.7692C265.493 67.6403 265.47 67.5113 265.417 67.3899C265.364 67.2685 265.296 67.1699 265.205 67.0788C265.114 66.9953 265.007 66.9271 264.894 66.8739C264.78 66.8208 264.651 66.7981 264.522 66.7981C264.393 66.7981 264.272 66.8208 264.158 66.8739C264.044 66.9195 263.945 66.9878 263.854 67.0788C263.763 67.1699 263.695 67.2685 263.642 67.3899C263.589 67.5113 263.566 67.6403 263.566 67.7692C263.566 67.8982 263.589 68.0196 263.642 68.1334C263.695 68.2472 263.763 68.3459 263.854 68.4369C263.945 68.528 264.044 68.5963 264.158 68.6494C264.272 68.7025 264.393 68.7252 264.522 68.7252C264.651 68.7252 264.78 68.7025 264.894 68.6494C265.015 68.5963 265.114 68.528 265.205 68.4369C265.296 68.3459 265.364 68.2472 265.417 68.1334Z" fill="#197FE5"/>
</svg>
