<svg width="267" height="100" viewBox="0 0 267 100" fill="none" xmlns="http://www.w3.org/2000/svg">
<path fill-rule="evenodd" clip-rule="evenodd" d="M49.9924 0C63.8012 0 76.2974 5.59939 85.349 14.6434C94.393 23.6874 99.9924 36.1912 99.9924 50C99.9924 63.8088 94.393 76.305 85.349 85.3566C76.305 94.4006 63.8012 100 49.9924 100C36.1836 100 23.6874 94.4006 14.6358 85.3566C5.59181 76.305 0 63.8088 0 50C0 36.1912 5.59939 23.695 14.6434 14.6434C23.6874 5.59181 36.1912 0 49.9924 0ZM86.1836 17.739V37.3976C86.1836 39.9393 85.2807 42.2838 83.7785 44.1123C82.3823 45.8211 80.4582 47.0847 78.2625 47.6645V64.0292C78.2625 65.9109 77.4962 67.618 76.2595 68.8547C75.0228 70.0914 73.3156 70.8578 71.434 70.8578H47.5493C45.6677 70.8578 43.9606 70.0914 42.7238 68.8547C41.4871 67.618 40.7208 65.9109 40.7208 64.0292V33.9458C40.7208 32.0641 41.4871 30.357 42.7238 29.1203C43.9606 27.8836 45.6677 27.1172 47.5493 27.1172H71.434C73.3156 27.1172 75.0228 27.8836 76.2595 29.1203C77.4962 30.357 78.2625 32.0641 78.2625 33.9458V46.0932C79.9791 45.5546 81.4837 44.5208 82.6024 43.1563C83.8923 41.5857 84.6662 39.5827 84.6662 37.3976V16.1153C84.6017 16.0508 84.5372 15.9844 84.4727 15.9181L84.4726 15.918L84.4718 15.9171C84.4076 15.8511 84.3434 15.785 84.2792 15.7208C75.5008 6.94992 63.3839 1.51745 49.9924 1.51745C36.6085 1.51745 24.4841 6.94234 15.7132 15.7132C8.08042 23.3536 2.98179 33.5205 1.79059 44.8483L2.90592 45.3263C3.85433 45.736 4.77238 46.0319 5.69044 46.2215C6.61609 46.4112 7.56449 46.5023 8.60395 46.5023H24.7724V42.2918C24.7724 40.9336 25.3263 39.7045 26.2216 38.8092H26.2292C27.1245 37.9139 28.3536 37.3601 29.7117 37.3601H35.4022C35.516 35.835 36.1836 34.4541 37.2155 33.4223L37.2231 33.4147C38.1184 32.527 39.2717 31.8972 40.5615 31.6772C40.3263 32.398 40.2049 33.1643 40.2049 33.9382V34.1203C39.6814 34.3176 39.2186 34.6286 38.8316 35.0156L38.824 35.0232C38.0956 35.7364 37.6556 36.7227 37.6556 37.8077V39.6362H29.7041C28.9758 39.6362 28.3081 39.9321 27.8301 40.4177C27.3521 40.8957 27.0486 41.5634 27.0486 42.2918V62.9974H40.1897V64.0293C40.1897 64.4541 40.2277 64.8714 40.2959 65.2736H24.7724V48.0197H8.60395C7.48103 48.0197 6.4264 47.9211 5.38695 47.7011C4.3475 47.4886 3.33839 47.1624 2.30653 46.7147L1.64643 46.434C1.56297 47.61 1.51745 48.8012 1.51745 49.9924C1.51745 63.3763 6.94234 75.5008 15.7132 84.2716C24.4841 93.0425 36.6085 98.4674 49.9924 98.4674C63.3763 98.4674 75.5008 93.0425 84.2716 84.2716C93.0425 75.5008 98.4674 63.3763 98.4674 49.9924C98.475 37.61 93.8316 26.305 86.1836 17.739ZM42.2383 62.9974H56.7072V42.2918C56.7072 41.5634 56.4113 40.8957 55.9257 40.4177C55.4477 39.9397 54.78 39.6362 54.0516 39.6362H46.1002V37.8077C46.1002 36.7227 45.6601 35.7364 44.9469 35.0232C44.2505 34.3268 43.2937 33.8836 42.2389 33.8631C42.2385 33.8906 42.2383 33.9182 42.2383 33.9458V62.9974ZM42.3874 65.2736H58.9833V42.2918C58.9833 40.9336 58.4295 39.7045 57.5342 38.8092C56.6389 37.9139 55.4097 37.3601 54.0516 37.3601H48.3612C48.255 35.8274 47.5797 34.4465 46.5554 33.4223V33.4147C45.5639 32.4232 44.2471 31.7629 42.7825 31.6168C43.0431 31.0893 43.3888 30.6101 43.8012 30.1977C44.7648 29.2341 46.0926 28.6347 47.5493 28.6347H71.434C72.8908 28.6347 74.2185 29.2265 75.1821 30.1977C76.1457 31.1612 76.7451 32.489 76.7451 33.9458V64.0292C76.7451 65.486 76.1457 66.8138 75.1821 67.7773C74.2185 68.7409 72.8908 69.3403 71.434 69.3403H47.5493C46.0926 69.3403 44.7648 68.7409 43.8012 67.7773C43.1207 67.0968 42.6218 66.2346 42.3874 65.2736ZM186.396 35.2588H199.31V38.749H189.886V45.532H199.31V49.0221H189.886V59.4242H186.396V35.2588ZM219.826 56.3059C224.78 56.3059 228.794 52.2922 228.794 47.3377C228.794 42.3833 224.78 38.3696 219.826 38.3696C214.871 38.3696 210.857 42.3833 210.857 47.3377C210.857 52.2922 214.871 56.3059 219.826 56.3059ZM244.689 35.2588L250.015 42.7399L255.341 35.2588H259.348L252.071 45.6306L261.904 59.447H257.663L250.015 48.5593L242.367 59.447H238.126L247.959 45.6306L240.683 35.2588H244.689ZM232.284 47.3377C232.284 54.2194 226.707 59.796 219.826 59.796C212.944 59.796 207.367 54.2194 207.367 47.3377C207.367 40.4561 212.944 34.8795 219.826 34.8795C226.707 34.8795 232.284 40.4561 232.284 47.3377ZM153.399 34.8036L162.322 52.1556H162.967L171.889 34.8036L177.785 59.4167H174.294L170.85 45.0236H170.121L162.648 59.5608L155.175 45.0236H154.446L151.002 59.4167H147.511L153.399 34.8036ZM136.548 38.749V55.9341H139.074V59.4242H130.539V55.9341H133.065V38.749H130.539V35.2588H139.074V38.749H136.548ZM112.253 45.3651H114.605C117.018 45.3726 119.256 46.708 120.463 48.878C121.677 51.0555 121.677 53.7338 120.463 55.9113C119.294 58.013 117.162 59.3332 114.833 59.4167H107.352V55.7975H114.75C115.857 55.7368 116.874 55.0995 117.428 54.098C118.02 53.0434 118.02 51.7384 117.428 50.6837C116.836 49.6291 115.751 48.9766 114.575 48.9766H112.223C109.81 48.969 107.572 47.6336 106.366 45.4637C105.812 44.4698 105.508 43.3696 105.463 42.2619V41.6397C105.508 40.532 105.812 39.4318 106.366 38.4379C107.58 36.2604 109.825 34.925 113.005 34.925C115.865 34.925 117.261 35.0388 119.954 35.623L118.748 39.2118C116.381 38.7262 115.303 38.5441 112.997 38.5441C111.062 38.5441 109.977 39.1966 109.393 40.2513C108.801 41.3059 108.801 42.6109 109.393 43.6655C109.992 44.7201 111.077 45.3726 112.253 45.3651ZM113.983 68.2092V66.9649H105.47V68.2092H108.999V77.8526H110.47V68.2092H113.983ZM258.202 70.3337C257.747 70.144 257.238 70.0529 256.677 70.0529C256.115 70.0529 255.607 70.144 255.159 70.3337C254.704 70.5234 254.317 70.7889 253.999 71.1303C253.68 71.4718 253.437 71.8891 253.263 72.3746C253.088 72.8678 253.005 73.4141 253.005 74.0135C253.005 74.6205 253.088 75.1667 253.263 75.6523C253.437 76.1379 253.68 76.5552 253.999 76.8966C254.317 77.2381 254.704 77.5036 255.159 77.6857C255.607 77.8754 256.115 77.9664 256.677 77.9664C257.238 77.9664 257.747 77.8678 258.202 77.6857C258.657 77.5036 259.036 77.2381 259.355 76.8966C259.674 76.5552 259.917 76.1379 260.084 75.6523C260.25 75.1667 260.334 74.6205 260.334 74.0135C260.334 73.4065 260.25 72.8602 260.084 72.3746C259.917 71.8891 259.674 71.4718 259.355 71.1303C259.036 70.7889 258.657 70.5234 258.202 70.3337ZM258.376 76.1455C258.005 76.6538 257.436 76.9118 256.677 76.9118C256.29 76.9118 255.956 76.8435 255.675 76.7221C255.395 76.5856 255.159 76.3959 254.97 76.1531C254.78 75.9027 254.636 75.5992 254.545 75.2426C254.446 74.886 254.401 74.4763 254.401 74.0211C254.401 73.5658 254.454 73.1561 254.545 72.7919C254.636 72.4277 254.78 72.1243 254.97 71.8739C255.159 71.6235 255.395 71.4338 255.675 71.3048C255.956 71.1758 256.29 71.1076 256.677 71.1076C257.436 71.1076 258.005 71.3655 258.376 71.8739C258.748 72.3822 258.938 73.0954 258.938 74.0135C258.938 74.924 258.748 75.6372 258.376 76.1455ZM262.952 70.1667H262.178V77.8602H263.528V73.0347C263.741 72.4884 264.006 72.0787 264.325 71.7904C264.636 71.5097 265.03 71.3655 265.501 71.3655C265.766 71.3655 265.971 71.3883 266.115 71.4338C266.26 71.4869 266.373 71.5097 266.442 71.5097C266.563 71.5097 266.639 71.449 266.677 71.32L266.851 70.3109C266.707 70.2274 266.548 70.1592 266.373 70.106C266.199 70.0529 266.009 70.0302 265.797 70.0302C265.281 70.0302 264.826 70.1895 264.439 70.5082C264.052 70.8268 263.725 71.2669 263.46 71.8359L263.369 70.5613C263.346 70.4171 263.308 70.3185 263.255 70.2578C263.202 70.1971 263.096 70.1667 262.952 70.1667ZM111.358 85.2654C111.032 85.1364 110.668 85.0681 110.266 85.0681C109.818 85.0681 109.408 85.1364 109.052 85.2881C108.687 85.4247 108.376 85.6144 108.126 85.8572C107.876 86.1 107.686 86.3807 107.549 86.707C107.413 87.0332 107.344 87.3746 107.344 87.7464C107.344 88.141 107.42 88.5203 107.565 88.8921C107.709 89.2563 107.936 89.6432 108.247 90.0302C107.906 90.1819 107.587 90.364 107.299 90.5765C107.011 90.7889 106.768 91.0317 106.555 91.2972C106.343 91.5628 106.184 91.8511 106.062 92.1698C105.941 92.4884 105.88 92.8223 105.88 93.1789C105.88 93.6493 105.971 94.0742 106.161 94.446C106.351 94.8177 106.601 95.1364 106.904 95.3944C107.208 95.6599 107.557 95.8572 107.944 95.9938C108.331 96.1303 108.733 96.1986 109.135 96.1986C109.879 96.1986 110.561 96.062 111.184 95.7965C111.798 95.5309 112.344 95.1667 112.822 94.7039L113.915 95.8041C114.029 95.9179 114.127 95.9862 114.219 96.0241C114.31 96.062 114.431 96.0772 114.575 96.0772H115.88L113.604 93.7859C113.938 93.2927 114.196 92.7616 114.37 92.2001C114.545 91.6387 114.643 91.062 114.651 90.4778H113.816C113.725 90.4778 113.657 90.5082 113.604 90.5613C113.551 90.6144 113.521 90.6903 113.513 90.7889C113.475 91.1683 113.399 91.54 113.285 91.9194C113.171 92.2988 113.012 92.6554 112.822 92.9968L109.697 89.8026C109.507 89.6053 109.34 89.4232 109.203 89.2487C109.067 89.0742 108.953 88.9073 108.87 88.7403C108.786 88.5734 108.725 88.4065 108.68 88.2472C108.634 88.0878 108.612 87.9133 108.612 87.7388C108.612 87.5112 108.657 87.2988 108.733 87.1015C108.809 86.9042 108.923 86.7373 109.067 86.5932C109.211 86.4414 109.378 86.3352 109.583 86.2517C109.788 86.1683 110.015 86.1303 110.266 86.1303C110.501 86.1303 110.706 86.1683 110.88 86.2441C111.055 86.32 111.206 86.4186 111.328 86.5325C111.449 86.6463 111.555 86.7752 111.631 86.9194C111.707 87.0636 111.76 87.2001 111.798 87.3291C111.829 87.4202 111.866 87.4809 111.927 87.5188C111.98 87.5567 112.041 87.5719 112.109 87.5719C112.132 87.5719 112.155 87.5719 112.178 87.5643L113.02 87.3974C113.005 87.0939 112.921 86.798 112.785 86.5173C112.648 86.2365 112.458 85.9862 112.215 85.7737C111.973 85.5613 111.684 85.3944 111.358 85.2654ZM107.436 93.9452C107.314 93.6948 107.253 93.4141 107.253 93.0878C107.253 92.6174 107.39 92.185 107.663 91.798C107.929 91.3959 108.331 91.062 108.87 90.7737L112.079 93.968C111.738 94.3018 111.335 94.5749 110.888 94.7798C110.44 94.9847 109.932 95.0833 109.363 95.0833C109.097 95.0833 108.839 95.0453 108.589 94.9543C108.338 94.8633 108.111 94.7343 107.914 94.5674C107.716 94.4004 107.557 94.1956 107.436 93.9452ZM126.184 87.0636C126.237 87.0256 126.282 86.9725 126.328 86.8966L126.684 86.191C126.313 85.8193 125.873 85.5385 125.372 85.3488C124.871 85.1592 124.317 85.0605 123.71 85.0605C123.171 85.0605 122.693 85.144 122.276 85.3109C121.859 85.4778 121.502 85.6979 121.222 85.9786C120.941 86.2593 120.728 86.578 120.577 86.9346C120.425 87.2912 120.349 87.663 120.349 88.0499C120.349 88.5279 120.432 88.93 120.577 89.2563C120.721 89.5825 120.918 89.8557 121.161 90.0757C121.404 90.2957 121.684 90.4702 121.995 90.6068C122.307 90.7434 122.625 90.8572 122.951 90.9634C123.175 91.0362 123.395 91.1055 123.612 91.1736C123.711 91.2049 123.81 91.2359 123.907 91.2669C124.219 91.3655 124.492 91.4869 124.734 91.6311C124.977 91.7677 125.175 91.9422 125.326 92.1546C125.47 92.3671 125.546 92.6402 125.546 92.9664C125.546 93.2624 125.493 93.5355 125.395 93.7783C125.296 94.0211 125.152 94.2259 124.962 94.4004C124.772 94.5749 124.537 94.7115 124.264 94.8101C123.991 94.9088 123.68 94.9543 123.331 94.9543C122.914 94.9543 122.557 94.9012 122.269 94.7874C121.98 94.6736 121.73 94.5446 121.525 94.408C121.32 94.2715 121.146 94.15 121.009 94.0362C120.873 93.9224 120.751 93.8617 120.645 93.8617C120.577 93.8617 120.516 93.8845 120.455 93.9224C120.395 93.9604 120.341 94.0059 120.304 94.0666L119.879 94.7646C120.288 95.2047 120.789 95.5461 121.366 95.8041C121.942 96.062 122.58 96.191 123.285 96.191C123.862 96.191 124.378 96.1 124.833 95.9255C125.288 95.751 125.668 95.5082 125.979 95.1971C126.29 94.886 126.525 94.5218 126.684 94.1045C126.844 93.6872 126.927 93.2472 126.927 92.7692C126.927 92.3215 126.859 91.9422 126.707 91.6311C126.555 91.32 126.358 91.062 126.115 90.8496C125.873 90.6372 125.592 90.4551 125.281 90.3185C124.97 90.1819 124.651 90.0605 124.325 89.9467C124.109 89.8714 123.896 89.7994 123.687 89.7285C123.58 89.6923 123.474 89.6564 123.369 89.6205C123.058 89.5218 122.777 89.4004 122.534 89.2563C122.291 89.1121 122.094 88.9376 121.942 88.7403C121.791 88.5431 121.715 88.2927 121.715 87.9892C121.715 87.7464 121.76 87.5264 121.844 87.3215C121.935 87.1167 122.064 86.9422 122.231 86.7904C122.398 86.6387 122.61 86.5173 122.86 86.4262C123.111 86.3428 123.407 86.2972 123.733 86.2972C124.082 86.2972 124.385 86.3428 124.628 86.4262C124.871 86.5097 125.083 86.6007 125.258 86.707C125.432 86.8132 125.577 86.9118 125.69 86.9953C125.804 87.0787 125.903 87.1243 125.986 87.1243C126.07 87.1243 126.131 87.1015 126.184 87.0636ZM130.266 96.0696V88.3762H128.915V96.0696H130.266ZM130.493 86.3276C130.546 86.2138 130.569 86.0924 130.569 85.9634C130.569 85.8268 130.546 85.7054 130.493 85.584C130.44 85.4627 130.372 85.364 130.281 85.273C130.19 85.1895 130.083 85.1212 129.97 85.0681C129.856 85.015 129.727 84.9922 129.598 84.9922C129.469 84.9922 129.348 85.015 129.234 85.0681C129.12 85.1136 129.021 85.1819 128.93 85.273C128.839 85.364 128.771 85.4627 128.718 85.584C128.665 85.7054 128.642 85.8344 128.642 85.9634C128.642 86.0924 128.665 86.2138 128.718 86.3276C128.771 86.4414 128.839 86.54 128.93 86.6311C129.021 86.7221 129.12 86.7904 129.234 86.8435C129.348 86.8966 129.469 86.9194 129.598 86.9194C129.727 86.9194 129.856 86.8966 129.97 86.8435C130.091 86.7904 130.19 86.7221 130.281 86.6311C130.372 86.54 130.44 86.4414 130.493 86.3276ZM132.83 88.3762V96.0696V96.0848H134.181V90.3488C134.423 90.0378 134.681 89.795 134.97 89.6129C135.25 89.4308 135.561 89.3397 135.895 89.3397C136.373 89.3397 136.73 89.4915 136.98 89.795C137.231 90.0985 137.352 90.5613 137.352 91.1758V96.0772H138.703V91.1758C138.703 90.8724 138.748 90.5992 138.839 90.3716C138.923 90.1364 139.044 89.9467 139.196 89.795C139.348 89.6432 139.53 89.5294 139.727 89.4535C139.924 89.3701 140.137 89.3321 140.357 89.3321C140.857 89.3321 141.237 89.4915 141.502 89.8026C141.768 90.1136 141.897 90.5765 141.897 91.1758V96.0772H143.247V91.1758C143.247 90.7054 143.187 90.2957 143.073 89.9315C142.959 89.5674 142.792 89.2639 142.572 89.0135C142.352 88.7707 142.087 88.581 141.768 88.452C141.449 88.323 141.085 88.2548 140.683 88.2548C140.432 88.2548 140.182 88.2851 139.939 88.3458C139.689 88.4065 139.461 88.5051 139.241 88.6341C139.029 88.7631 138.832 88.93 138.657 89.1349C138.483 89.3322 138.338 89.5749 138.232 89.8557C138.096 89.3625 137.86 88.9755 137.542 88.6872C137.215 88.3989 136.798 88.2548 136.275 88.2548C135.812 88.2548 135.402 88.3686 135.053 88.5886C134.697 88.8086 134.378 89.0969 134.097 89.446L133.999 88.6569C133.945 88.4672 133.824 88.3762 133.634 88.3762H132.83ZM146.631 93.2851V88.3762H145.281V93.2851C145.281 93.7176 145.341 94.1197 145.448 94.4763C145.554 94.8329 145.713 95.144 145.933 95.3944C146.153 95.6447 146.426 95.842 146.745 95.9786C147.064 96.1227 147.436 96.191 147.853 96.191C148.392 96.191 148.862 96.0772 149.279 95.8496C149.697 95.6296 150.068 95.3337 150.402 94.9619L150.508 95.7889C150.561 95.9786 150.683 96.0696 150.873 96.0696H151.677V88.3762H150.326V94.0514C150.03 94.3853 149.712 94.6432 149.363 94.8329C149.014 95.0226 148.642 95.1136 148.247 95.1136C147.709 95.1136 147.299 94.9543 147.033 94.6356C146.768 94.317 146.631 93.8693 146.631 93.2851ZM155.577 96.0696V84.886H154.226V96.0696H155.577ZM163.179 96.0696H163.778V91.1531C163.778 90.7206 163.718 90.3261 163.604 89.9695C163.49 89.6129 163.316 89.3018 163.088 89.0514C162.86 88.801 162.58 88.6038 162.246 88.4596C161.912 88.3155 161.533 88.2472 161.1 88.2472C160.501 88.2472 159.962 88.3458 159.469 88.5507C158.976 88.7555 158.521 89.0666 158.096 89.4763L158.338 89.9012C158.384 89.9695 158.437 90.0302 158.505 90.0757C158.574 90.1212 158.65 90.144 158.741 90.144C158.862 90.144 158.976 90.0985 159.097 90.015C159.219 89.9315 159.355 89.8405 159.522 89.7343C159.689 89.6281 159.879 89.537 160.106 89.4535C160.326 89.3701 160.607 89.3321 160.933 89.3321C161.434 89.3321 161.813 89.4839 162.071 89.795C162.322 90.0985 162.451 90.5537 162.451 91.1531V91.7601C161.578 91.7601 160.842 91.8359 160.243 91.9725C159.643 92.1167 159.158 92.2912 158.786 92.5112C158.414 92.7312 158.141 92.9816 157.974 93.2624C157.807 93.5431 157.724 93.839 157.724 94.1425C157.724 94.4915 157.785 94.795 157.898 95.0529C158.012 95.3109 158.164 95.5233 158.354 95.6903C158.551 95.8572 158.778 95.9862 159.036 96.0696C159.294 96.1531 159.575 96.1986 159.871 96.1986C160.167 96.1986 160.433 96.1758 160.675 96.1227C160.911 96.0696 161.138 95.9938 161.351 95.8951C161.563 95.7965 161.768 95.6751 161.958 95.5309C162.147 95.3868 162.344 95.2199 162.549 95.0378L162.701 95.751C162.724 95.88 162.777 95.971 162.86 96.0089C162.944 96.0469 163.05 96.0696 163.179 96.0696ZM160.926 95.1667C160.728 95.2123 160.508 95.235 160.273 95.235C160.099 95.235 159.932 95.2123 159.78 95.1743C159.628 95.1288 159.499 95.0605 159.385 94.9695C159.272 94.8708 159.188 94.7494 159.12 94.6053C159.052 94.4611 159.021 94.2866 159.021 94.0818C159.021 93.8693 159.09 93.6796 159.211 93.5051C159.332 93.3306 159.53 93.1865 159.803 93.0575C160.076 92.9285 160.433 92.8223 160.865 92.7464C161.297 92.6629 161.829 92.625 162.451 92.625V94.2183C162.299 94.3777 162.147 94.5218 161.988 94.6432C161.829 94.7722 161.662 94.8784 161.487 94.9619C161.313 95.0529 161.123 95.1212 160.926 95.1667ZM166.935 95.6827C167.261 96.0241 167.724 96.191 168.331 96.191C168.68 96.191 169.021 96.1303 169.348 96.0165C169.674 95.8875 169.955 95.7206 170.19 95.5082L169.795 94.8557C169.742 94.7722 169.674 94.7267 169.605 94.7267C169.568 94.7267 169.522 94.7419 169.469 94.7798C169.416 94.8177 169.348 94.8633 169.272 94.9088C169.196 94.9543 169.112 94.9922 169.006 95.0302C168.9 95.0681 168.778 95.0909 168.634 95.0909C168.384 95.0909 168.187 95.015 168.027 94.8557C167.868 94.6963 167.792 94.4611 167.792 94.1349V89.5142H169.992V88.5355H167.792V85.8875H167.109C167.026 85.8875 166.95 85.9103 166.897 85.9558C166.844 86.0089 166.806 86.0696 166.798 86.1455L166.487 88.5203L165.228 88.6796V89.2183C165.228 89.317 165.258 89.3929 165.311 89.4384C165.364 89.4915 165.433 89.5142 165.516 89.5142H166.442V94.2183C166.442 94.8557 166.609 95.3413 166.935 95.6827ZM176.472 88.5431C176.017 88.3534 175.508 88.2623 174.947 88.2623C174.385 88.2623 173.885 88.3534 173.429 88.5431C172.974 88.7328 172.587 88.9983 172.269 89.3397C171.95 89.6812 171.707 90.0985 171.533 90.584C171.358 91.0772 171.275 91.6235 171.275 92.2229C171.275 92.8299 171.358 93.3762 171.533 93.8617C171.707 94.3473 171.95 94.7646 172.269 95.106C172.587 95.4475 172.974 95.713 173.429 95.8951C173.877 96.0848 174.385 96.1758 174.947 96.1758C175.508 96.1758 176.017 96.0772 176.472 95.8951C176.927 95.713 177.307 95.4475 177.625 95.106C177.944 94.7646 178.187 94.3473 178.354 93.8617C178.521 93.3762 178.604 92.8299 178.604 92.2229C178.604 91.6159 178.521 91.0696 178.354 90.584C178.187 90.0985 177.944 89.6812 177.625 89.3397C177.307 88.9983 176.927 88.7328 176.472 88.5431ZM176.646 94.3549C176.275 94.8633 175.706 95.1212 174.947 95.1212C174.568 95.1212 174.234 95.0529 173.945 94.9315C173.665 94.795 173.429 94.6053 173.24 94.3625C173.05 94.1121 172.906 93.8086 172.815 93.452C172.716 93.0954 172.671 92.6857 172.671 92.2305C172.671 91.7752 172.724 91.3655 172.815 91.0013C172.906 90.6372 173.05 90.3337 173.24 90.0833C173.429 89.8329 173.665 89.6432 173.945 89.5142C174.226 89.3853 174.56 89.317 174.947 89.317C175.706 89.317 176.275 89.5749 176.646 90.0833C177.018 90.5916 177.208 91.3048 177.208 92.2229C177.208 93.1334 177.018 93.8466 176.646 94.3549ZM180.455 88.3762V96.0696H181.806V91.2441C182.018 90.6979 182.284 90.2881 182.602 89.9998C182.914 89.7191 183.308 89.5749 183.779 89.5749C184.044 89.5749 184.249 89.5977 184.393 89.6432C184.537 89.6963 184.651 89.7191 184.719 89.7191C184.841 89.7191 184.917 89.6584 184.955 89.5294L185.129 88.5203C184.985 88.4369 184.826 88.3686 184.651 88.3155C184.477 88.2623 184.287 88.2396 184.074 88.2396C183.558 88.2396 183.103 88.3989 182.716 88.7176C182.329 89.0362 182.003 89.4763 181.738 90.0453L181.646 88.7707C181.624 88.6265 181.586 88.5279 181.533 88.4672C181.48 88.4065 181.373 88.3762 181.229 88.3762H180.455ZM190.387 89.537V96.0696H191.745V89.5067H193.923V88.5203H191.7V87.8223C191.7 87.496 191.738 87.2229 191.813 87.0029C191.882 86.7752 191.988 86.6007 192.124 86.4642C192.261 86.3276 192.428 86.229 192.618 86.1683C192.807 86.1076 193.012 86.0772 193.247 86.0772H193.483C193.627 86.0772 193.741 86.0696 193.824 86.0469C193.907 86.0241 193.945 85.9634 193.953 85.8648L193.983 85.1895C193.687 85.0833 193.369 85.0302 193.027 85.0302C192.625 85.0302 192.261 85.0909 191.935 85.2123C191.616 85.3337 191.335 85.5082 191.108 85.7434C190.88 85.9786 190.698 86.2669 190.577 86.6083C190.448 86.9498 190.387 87.3367 190.387 87.7768V88.5203H189.173V89.0818C189.173 89.188 189.211 89.2639 189.279 89.317C189.348 89.3701 189.431 89.4156 189.537 89.4384L190.387 89.537ZM200.008 88.5431C199.552 88.3534 199.044 88.2623 198.483 88.2623C197.921 88.2623 197.413 88.3534 196.965 88.5431C196.51 88.7328 196.123 88.9983 195.804 89.3397C195.486 89.6812 195.243 90.0985 195.068 90.584C194.894 91.0772 194.81 91.6235 194.81 92.2229C194.81 92.8299 194.894 93.3762 195.068 93.8617C195.243 94.3473 195.486 94.7646 195.804 95.106C196.123 95.4475 196.51 95.713 196.965 95.8951C197.413 96.0848 197.921 96.1758 198.483 96.1758C199.044 96.1758 199.552 96.0772 200.008 95.8951C200.463 95.713 200.842 95.4475 201.161 95.106C201.48 94.7646 201.722 94.3473 201.889 93.8617C202.056 93.3762 202.14 92.8299 202.14 92.2229C202.14 91.6159 202.056 91.0696 201.889 90.584C201.722 90.0985 201.48 89.6812 201.161 89.3397C200.842 88.9983 200.463 88.7328 200.008 88.5431ZM200.182 94.3549C199.81 94.8633 199.241 95.1212 198.483 95.1212C198.096 95.1212 197.762 95.0529 197.481 94.9315C197.2 94.795 196.965 94.6053 196.775 94.3625C196.586 94.1121 196.442 93.8086 196.351 93.452C196.252 93.0954 196.206 92.6857 196.206 92.2305C196.206 91.7752 196.26 91.3655 196.351 91.0013C196.442 90.6372 196.586 90.3337 196.775 90.0833C196.965 89.8329 197.2 89.6432 197.481 89.5142C197.762 89.3853 198.096 89.317 198.483 89.317C199.241 89.317 199.81 89.5749 200.182 90.0833C200.554 90.5916 200.744 91.3048 200.744 92.2229C200.744 93.1334 200.554 93.8466 200.182 94.3549ZM203.983 88.3762V96.0696H205.334V91.2441C205.546 90.6979 205.812 90.2881 206.131 89.9998C206.442 89.7191 206.836 89.5749 207.307 89.5749C207.572 89.5749 207.777 89.5977 207.921 89.6432C208.065 89.6963 208.179 89.7191 208.247 89.7191C208.369 89.7191 208.445 89.6584 208.483 89.5294L208.657 88.5203C208.513 88.4369 208.354 88.3686 208.179 88.3155C208.005 88.2623 207.815 88.2396 207.602 88.2396C207.087 88.2396 206.631 88.3989 206.244 88.7176C205.857 89.0362 205.531 89.4763 205.266 90.0453L205.175 88.7707C205.152 88.6265 205.114 88.5279 205.061 88.4672C205.008 88.4065 204.901 88.3762 204.757 88.3762H203.983ZM212.762 85.1819L216.351 90.5613L212.61 96.062H213.976C214.082 96.062 214.165 96.0317 214.226 95.971C214.279 95.9179 214.332 95.8496 214.378 95.7813L217.216 91.5249C217.269 91.4262 217.314 91.3276 217.352 91.2214L220.266 95.7813C220.311 95.8496 220.364 95.9103 220.425 95.971C220.486 96.0317 220.569 96.062 220.683 96.062H222.14L218.414 90.493L222.018 85.1819H220.615C220.539 85.1819 220.478 85.1971 220.425 85.2426C220.372 85.2881 220.319 85.3488 220.273 85.4171L217.595 89.3928C217.527 89.5218 217.473 89.6356 217.436 89.7419L214.598 85.3868C214.56 85.3185 214.514 85.273 214.461 85.235C214.408 85.1971 214.332 85.1819 214.226 85.1819H212.762ZM226.472 90.9406H222.724V92.0939H226.472V90.9406ZM230.349 96.0772V91.54H231.464C231.669 91.54 231.821 91.5704 231.92 91.6235C232.018 91.6766 232.117 91.7601 232.2 91.8815L235.023 95.7737C235.152 95.9786 235.349 96.0848 235.615 96.0848H236.92L233.748 91.7601C233.604 91.5552 233.445 91.4035 233.263 91.2972C233.687 91.1986 234.059 91.062 234.393 90.8724C234.727 90.6827 235.008 90.4551 235.235 90.1895C235.463 89.924 235.637 89.6205 235.759 89.2866C235.88 88.9528 235.941 88.5962 235.941 88.2092C235.941 87.7464 235.865 87.3291 235.706 86.9573C235.554 86.5856 235.311 86.2669 234.985 86.0013C234.659 85.7434 234.241 85.5385 233.741 85.402C233.24 85.2578 232.648 85.1895 231.958 85.1895H228.885V96.0772H230.349ZM231.889 90.4551H230.349V86.3579H231.958C232.807 86.3579 233.445 86.5249 233.87 86.8511C234.294 87.1774 234.507 87.6705 234.507 88.3155C234.507 88.6341 234.454 88.9224 234.34 89.188C234.234 89.446 234.067 89.6736 233.847 89.8633C233.627 90.0529 233.354 90.1971 233.027 90.3033C232.701 90.402 232.322 90.4551 231.889 90.4551ZM243.513 96.0696H244.112V91.1531C244.112 90.7206 244.052 90.3261 243.938 89.9695C243.824 89.6129 243.65 89.3018 243.422 89.0514C243.194 88.801 242.914 88.6038 242.58 88.4596C242.246 88.3155 241.867 88.2472 241.434 88.2472C240.835 88.2472 240.296 88.3458 239.803 88.5507C239.31 88.7555 238.854 89.0666 238.43 89.4763L238.672 89.9012C238.718 89.9695 238.771 90.0302 238.839 90.0757C238.908 90.1212 238.983 90.144 239.074 90.144C239.196 90.144 239.31 90.0985 239.431 90.015C239.552 89.9315 239.689 89.8405 239.856 89.7343C240.023 89.6281 240.213 89.537 240.44 89.4535C240.66 89.3701 240.941 89.3321 241.267 89.3321C241.768 89.3321 242.147 89.4839 242.405 89.795C242.656 90.0985 242.785 90.5537 242.785 91.1531V91.7601C241.912 91.7601 241.176 91.8359 240.577 91.9725C239.977 92.1167 239.492 92.2912 239.12 92.5112C238.748 92.7312 238.475 92.9816 238.308 93.2624C238.141 93.5431 238.058 93.839 238.058 94.1425C238.058 94.4915 238.118 94.795 238.232 95.0529C238.346 95.3109 238.498 95.5233 238.687 95.6903C238.885 95.8572 239.112 95.9862 239.37 96.0696C239.628 96.1531 239.909 96.1986 240.205 96.1986C240.501 96.1986 240.766 96.1758 241.009 96.1227C241.244 96.0696 241.472 95.9938 241.684 95.8951C241.897 95.7965 242.102 95.6751 242.291 95.5309C242.481 95.3868 242.678 95.2199 242.883 95.0378L243.035 95.751C243.058 95.88 243.111 95.971 243.194 96.0089C243.278 96.0469 243.384 96.0696 243.513 96.0696ZM241.26 95.1667C241.062 95.2123 240.842 95.235 240.607 95.235C240.425 95.235 240.266 95.2123 240.114 95.1743C239.962 95.1288 239.833 95.0605 239.719 94.9695C239.606 94.8708 239.522 94.7494 239.454 94.6053C239.385 94.4611 239.355 94.2866 239.355 94.0818C239.355 93.8693 239.423 93.6796 239.545 93.5051C239.666 93.3306 239.863 93.1865 240.137 93.0575C240.41 92.9285 240.766 92.8223 241.199 92.7464C241.631 92.6629 242.162 92.625 242.785 92.625V94.2183C242.633 94.3777 242.481 94.5218 242.322 94.6432C242.162 94.7722 241.996 94.8784 241.821 94.9619C241.646 95.0529 241.457 95.1212 241.26 95.1667ZM248.179 98.5886C248.247 98.5279 248.301 98.4444 248.346 98.3458L252.633 88.3837H251.555C251.472 88.3837 251.396 88.4141 251.32 88.4672C251.244 88.5203 251.191 88.5886 251.161 88.6721L249.165 93.5658C249.139 93.631 249.116 93.6961 249.093 93.7613C249.077 93.81 249.06 93.8586 249.044 93.9073C249.006 94.0211 248.976 94.1425 248.938 94.2563C248.915 94.1349 248.885 94.0211 248.854 93.9073C248.845 93.8797 248.835 93.8516 248.825 93.8232C248.796 93.742 248.767 93.6577 248.733 93.5734L246.677 88.6721C246.646 88.5962 246.601 88.5355 246.533 88.4748C246.464 88.4141 246.373 88.3837 246.26 88.3837H245.091L248.263 95.6751L246.859 98.6796H247.86C248.005 98.6796 248.111 98.6493 248.179 98.5886ZM115.493 66.6766V77.8526H116.844V72.185C117.14 71.8587 117.458 71.5931 117.807 71.4035C118.149 71.2138 118.521 71.1152 118.923 71.1152C119.469 71.1152 119.879 71.2821 120.144 71.6007C120.41 71.927 120.539 72.3746 120.539 72.9589V77.8602H121.889V72.9589C121.889 72.5264 121.836 72.1243 121.722 71.7677C121.616 71.4035 121.449 71.1 121.237 70.842C121.024 70.584 120.751 70.3868 120.432 70.2502C120.106 70.106 119.734 70.0378 119.317 70.0378C118.794 70.0378 118.338 70.144 117.936 70.3564C117.534 70.5689 117.17 70.8496 116.844 71.1986V66.6766H115.493ZM124.105 70.1667V77.8602H125.455V73.0347C125.668 72.4884 125.933 72.0787 126.252 71.7904C126.563 71.5097 126.958 71.3655 127.428 71.3655C127.693 71.3655 127.898 71.3883 128.043 71.4338C128.187 71.4869 128.3 71.5097 128.369 71.5097C128.49 71.5097 128.566 71.449 128.604 71.32L128.778 70.3109C128.634 70.2274 128.475 70.1592 128.3 70.106C128.126 70.0529 127.936 70.0302 127.724 70.0302C127.208 70.0302 126.753 70.1895 126.366 70.5082C125.979 70.8268 125.653 71.2669 125.387 71.8359L125.296 70.5613C125.273 70.4171 125.235 70.3185 125.182 70.2578C125.129 70.1971 125.023 70.1667 124.879 70.1667H124.105ZM134.719 70.2806C134.332 70.1212 133.907 70.0453 133.445 70.0453C132.883 70.0453 132.382 70.144 131.942 70.3185C131.495 70.5158 131.123 70.7813 130.812 71.1227C130.508 71.4642 130.273 71.8739 130.106 72.3367C129.939 72.7995 129.856 73.3003 129.856 73.839C129.856 74.4991 129.947 75.0909 130.129 75.5992C130.311 76.1152 130.569 76.54 130.895 76.8891C131.222 77.2381 131.609 77.496 132.056 77.6781C132.504 77.8602 132.989 77.9513 133.521 77.9513C133.801 77.9513 134.082 77.9285 134.363 77.883C134.651 77.8375 134.924 77.7616 135.19 77.6705C135.455 77.5795 135.698 77.4581 135.933 77.3064C136.168 77.1546 136.366 76.9801 136.533 76.7828L136.153 76.2897C136.093 76.2062 136.009 76.1607 135.895 76.1607C135.812 76.1607 135.713 76.1986 135.592 76.2821C135.47 76.3579 135.319 76.4414 135.144 76.5325C134.97 76.6235 134.757 76.7145 134.514 76.7904C134.264 76.8739 133.976 76.9118 133.634 76.9118C133.27 76.9118 132.944 76.8511 132.648 76.7297C132.352 76.6083 132.102 76.4338 131.889 76.191C131.677 75.9482 131.51 75.6523 131.388 75.2881C131.267 74.9315 131.199 74.5067 131.191 74.0211H136.305C136.434 74.0211 136.517 73.9831 136.563 73.9148C136.609 73.8466 136.631 73.7024 136.631 73.49C136.631 72.9437 136.555 72.4505 136.396 72.0256C136.237 71.6007 136.009 71.2365 135.728 70.9482C135.448 70.6599 135.106 70.4323 134.719 70.2806ZM131.935 71.6083C132.307 71.2365 132.822 71.0469 133.475 71.0469C133.778 71.0469 134.059 71.0924 134.302 71.1986C134.537 71.3048 134.742 71.449 134.909 71.6387C135.076 71.8284 135.205 72.056 135.288 72.3139C135.372 72.5719 135.417 72.8602 135.417 73.1713H131.237C131.328 72.5036 131.563 71.9801 131.935 71.6083ZM143.574 77.8602H144.173V72.9437C144.173 72.5112 144.112 72.1167 143.999 71.7601C143.885 71.4035 143.71 71.0924 143.483 70.842C143.255 70.5916 142.974 70.3944 142.64 70.2502C142.307 70.106 141.927 70.0378 141.495 70.0378C140.895 70.0378 140.357 70.1364 139.863 70.3413C139.37 70.5461 138.915 70.8572 138.49 71.2669L138.733 71.6918C138.778 71.7601 138.832 71.8208 138.9 71.8663C138.968 71.9118 139.044 71.9346 139.135 71.9346C139.256 71.9346 139.37 71.8891 139.492 71.8056C139.613 71.7221 139.75 71.6311 139.917 71.5249C140.083 71.4186 140.273 71.3276 140.501 71.2441C140.721 71.1607 141.002 71.1227 141.328 71.1227C141.829 71.1227 142.208 71.2745 142.466 71.5856C142.716 71.8891 142.845 72.3443 142.845 72.9437V73.5507C141.973 73.5507 141.237 73.6265 140.637 73.7631C140.038 73.9073 139.552 74.0818 139.181 74.3018C138.809 74.5218 138.536 74.7722 138.369 75.0529C138.202 75.3337 138.118 75.6296 138.118 75.9331C138.118 76.2821 138.179 76.5856 138.293 76.8435C138.407 77.1015 138.558 77.3139 138.748 77.4809C138.945 77.6478 139.173 77.7768 139.431 77.8602C139.689 77.9437 139.97 77.9892 140.266 77.9892C140.561 77.9892 140.827 77.9664 141.07 77.9133C141.305 77.8602 141.533 77.7843 141.745 77.6857C141.958 77.5871 142.162 77.4657 142.352 77.3215C142.542 77.1774 142.739 77.0105 142.944 76.8284L143.096 77.5416C143.118 77.6705 143.171 77.7616 143.255 77.7995C143.338 77.8375 143.445 77.8602 143.574 77.8602ZM141.32 76.9573C141.123 77.0029 140.903 77.0256 140.668 77.0256C140.486 77.0256 140.326 77.0029 140.175 76.9649C140.023 76.9194 139.894 76.8511 139.78 76.7601C139.666 76.6614 139.583 76.54 139.514 76.3959C139.446 76.2517 139.416 76.0772 139.416 75.8724C139.416 75.6599 139.484 75.4702 139.605 75.2957C139.727 75.1212 139.924 74.9771 140.197 74.8481C140.47 74.7191 140.827 74.6129 141.26 74.537C141.692 74.4535 142.223 74.4156 142.845 74.4156V76.0089C142.694 76.1683 142.542 76.3124 142.382 76.4338C142.223 76.5628 142.056 76.669 141.882 76.7525C141.707 76.8435 141.517 76.9118 141.32 76.9573ZM147.329 77.4733C147.656 77.8147 148.118 77.9816 148.725 77.9816C149.074 77.9816 149.416 77.9209 149.742 77.8071C150.068 77.6781 150.349 77.5112 150.584 77.2988L150.19 76.6463C150.137 76.5628 150.068 76.5173 150 76.5173C149.962 76.5173 149.917 76.5324 149.863 76.5704C149.81 76.6083 149.742 76.6538 149.666 76.6994C149.59 76.7449 149.507 76.7828 149.401 76.8208C149.294 76.8587 149.173 76.8815 149.029 76.8815C148.778 76.8815 148.581 76.8056 148.422 76.6463C148.263 76.4869 148.187 76.2517 148.187 75.9255V71.3048H150.387V70.3261H148.187V67.6781H147.504C147.42 67.6781 147.344 67.7009 147.291 67.7464C147.238 67.7995 147.2 67.8602 147.193 67.9361L146.882 70.3109L145.622 70.4702V71.0089C145.622 71.1076 145.653 71.1834 145.706 71.229C145.759 71.2821 145.827 71.3048 145.911 71.3048H146.836V76.0089C146.836 76.6463 147.003 77.1318 147.329 77.4733ZM156.055 77.8602H157.527V66.9801H156.055V77.8602ZM160.402 70.1667V77.8602V77.8754H161.753V72.1394C161.995 71.8284 162.253 71.5856 162.542 71.4035C162.822 71.2214 163.134 71.1303 163.467 71.1303C163.945 71.1303 164.302 71.2821 164.552 71.5856C164.803 71.8891 164.924 72.3519 164.924 72.9664V77.8678H166.275V72.9664C166.275 72.6629 166.32 72.3898 166.411 72.1622C166.495 71.927 166.616 71.7373 166.768 71.5856C166.92 71.4338 167.102 71.32 167.299 71.2441C167.496 71.1607 167.709 71.1227 167.929 71.1227C168.429 71.1227 168.809 71.2821 169.074 71.5931C169.34 71.9042 169.469 72.3671 169.469 72.9664V77.8678H170.819V72.9664C170.819 72.496 170.759 72.0863 170.645 71.7221C170.531 71.3579 170.364 71.0545 170.144 70.8041C169.924 70.5613 169.659 70.3716 169.34 70.2426C169.021 70.1136 168.657 70.0453 168.255 70.0453C168.005 70.0453 167.754 70.0757 167.511 70.1364C167.261 70.1971 167.033 70.2957 166.813 70.4247C166.601 70.5537 166.404 70.7206 166.229 70.9255C166.055 71.1227 165.911 71.3655 165.804 71.6463C165.668 71.1531 165.433 70.7661 165.114 70.4778C164.788 70.1895 164.37 70.0453 163.847 70.0453C163.384 70.0453 162.974 70.1592 162.625 70.3792C162.269 70.5992 161.95 70.8875 161.669 71.2365L161.571 70.4475C161.517 70.2578 161.396 70.1667 161.206 70.1667H160.402ZM178.08 77.8602H178.68V72.9437C178.68 72.5112 178.619 72.1167 178.505 71.7601C178.392 71.4035 178.217 71.0924 177.989 70.842C177.762 70.5916 177.481 70.3944 177.147 70.2502C176.813 70.106 176.434 70.0378 176.002 70.0378C175.402 70.0378 174.863 70.1364 174.37 70.3413C173.877 70.5461 173.422 70.8572 172.997 71.2669L173.24 71.6918C173.285 71.7601 173.338 71.8208 173.407 71.8663C173.475 71.9118 173.551 71.9346 173.642 71.9346C173.763 71.9346 173.877 71.8891 173.999 71.8056C174.12 71.7221 174.256 71.6311 174.423 71.5249C174.59 71.4186 174.78 71.3276 175.008 71.2441C175.228 71.1607 175.508 71.1227 175.835 71.1227C176.335 71.1227 176.715 71.2745 176.973 71.5856C177.223 71.8891 177.352 72.3443 177.352 72.9437V73.5507C176.48 73.5507 175.744 73.6265 175.144 73.7631C174.545 73.9073 174.059 74.0818 173.687 74.3018C173.316 74.5218 173.043 74.7722 172.876 75.0529C172.709 75.3337 172.625 75.6296 172.625 75.9331C172.625 76.2821 172.686 76.5856 172.8 76.8435C172.914 77.1015 173.065 77.3139 173.255 77.4809C173.452 77.6478 173.68 77.7768 173.938 77.8602C174.196 77.9437 174.477 77.9892 174.772 77.9892C175.068 77.9892 175.334 77.9664 175.577 77.9133C175.812 77.8602 176.04 77.7843 176.252 77.6857C176.464 77.5871 176.669 77.4657 176.859 77.3215C177.049 77.1774 177.246 77.0105 177.451 76.8284L177.602 77.5416C177.625 77.6705 177.678 77.7616 177.762 77.7995C177.845 77.8375 177.951 77.8602 178.08 77.8602ZM175.827 76.9573C175.63 77.0029 175.41 77.0256 175.175 77.0256C175 77.0256 174.833 77.0029 174.681 76.9649C174.53 76.9194 174.401 76.8511 174.287 76.7601C174.173 76.6614 174.09 76.54 174.021 76.3959C173.953 76.2517 173.923 76.0772 173.923 75.8724C173.923 75.6599 173.991 75.4702 174.112 75.2957C174.234 75.1212 174.431 74.9771 174.704 74.8481C174.977 74.7191 175.334 74.6129 175.766 74.537C176.199 74.4535 176.73 74.4156 177.352 74.4156V76.0089C177.2 76.1683 177.049 76.3124 176.889 76.4338C176.73 76.5628 176.563 76.669 176.389 76.7525C176.214 76.8435 176.024 76.9118 175.827 76.9573ZM184.439 70.1516C184.143 70.0833 183.832 70.0453 183.498 70.0453C183.073 70.0453 182.678 70.0985 182.329 70.2123C181.973 70.3337 181.662 70.5006 181.404 70.713C181.146 70.9255 180.948 71.191 180.804 71.4945C180.66 71.8056 180.584 72.1394 180.584 72.5188C180.584 72.9892 180.698 73.3989 180.911 73.7555C181.123 74.1121 181.419 74.3928 181.798 74.6053C181.639 74.6888 181.495 74.7798 181.373 74.886C181.252 74.9922 181.153 75.106 181.07 75.2199C180.986 75.3337 180.918 75.4551 180.88 75.5689C180.842 75.6827 180.819 75.8041 180.819 75.9103C180.819 76.191 180.888 76.4186 181.017 76.5856C181.146 76.7525 181.313 76.8891 181.533 76.9877C181.115 77.147 180.789 77.3595 180.546 77.625C180.304 77.8906 180.182 78.2092 180.182 78.5886C180.182 78.8617 180.258 79.1197 180.395 79.3625C180.531 79.6129 180.736 79.8253 181.017 80.015C181.297 80.2047 181.646 80.3488 182.071 80.4627C182.489 80.5765 182.982 80.6296 183.543 80.6296C184.105 80.6296 184.605 80.5537 185.053 80.4095C185.501 80.2654 185.873 80.0681 186.184 79.8253C186.495 79.5825 186.73 79.3018 186.897 78.9907C187.056 78.6796 187.14 78.361 187.14 78.0271C187.14 77.663 187.064 77.3746 186.92 77.147C186.775 76.9194 186.578 76.7449 186.335 76.6159C186.093 76.4869 185.819 76.3959 185.508 76.3352C185.205 76.2821 184.886 76.2517 184.568 76.2517H183.619C183.308 76.2517 183.035 76.2365 182.792 76.191C182.549 76.1531 182.352 76.0848 182.208 75.9862C182.064 75.8951 181.988 75.751 181.988 75.5613C181.988 75.4475 182.033 75.3337 182.117 75.2123C182.2 75.0909 182.322 74.9847 182.481 74.8784C182.8 74.9619 183.141 75.0074 183.498 75.0074C183.923 75.0074 184.31 74.9467 184.659 74.8329C185.008 74.7191 185.311 74.5522 185.569 74.3321C185.827 74.1121 186.024 73.8466 186.168 73.5431C186.313 73.232 186.381 72.8906 186.381 72.5188C186.381 72.1167 186.297 71.7449 186.123 71.4186L186.995 71.2972C187.208 71.2517 187.314 71.1455 187.314 70.9786V70.4778H185.228C184.992 70.3337 184.727 70.2274 184.439 70.1516ZM185.736 77.7844C185.842 77.8982 185.895 78.0575 185.895 78.2548C185.895 78.4596 185.842 78.6493 185.736 78.8314C185.63 78.9983 185.478 79.1501 185.281 79.2715C185.076 79.4004 184.833 79.4915 184.545 79.5598C184.256 79.6281 183.93 79.6584 183.566 79.6584C183.194 79.6584 182.868 79.6205 182.595 79.5598C182.314 79.4991 182.087 79.408 181.904 79.3018C181.722 79.1956 181.593 79.0666 181.502 78.9148C181.411 78.7631 181.366 78.6038 181.366 78.4293C181.366 78.1561 181.457 77.9209 181.639 77.7237C181.813 77.5264 182.049 77.3595 182.337 77.2229C182.587 77.2912 182.845 77.3215 183.118 77.3215H183.923C184.188 77.3215 184.439 77.3367 184.674 77.3671C184.909 77.3974 185.121 77.4505 185.304 77.5112C185.486 77.5719 185.63 77.663 185.736 77.7844ZM184.226 73.9983C184.014 74.0742 183.771 74.1121 183.498 74.1121C183.225 74.1121 182.989 74.0742 182.785 73.9983C182.58 73.9224 182.405 73.8162 182.261 73.6796C182.124 73.5355 182.018 73.3762 181.942 73.1865C181.867 72.9968 181.829 72.7844 181.829 72.5567C181.829 72.0863 181.973 71.7145 182.261 71.4338C182.542 71.1531 182.959 71.0165 183.498 71.0165C184.044 71.0165 184.461 71.1531 184.75 71.4338C185.03 71.7145 185.175 72.0863 185.175 72.5567C185.175 72.7844 185.137 72.9968 185.068 73.1865C185 73.3762 184.894 73.5431 184.75 73.6796C184.613 73.8162 184.439 73.9224 184.226 73.9983ZM193.156 70.2806C192.769 70.1212 192.345 70.0453 191.882 70.0453C191.32 70.0453 190.819 70.144 190.379 70.3185C189.932 70.5158 189.56 70.7813 189.249 71.1227C188.945 71.4642 188.71 71.8739 188.543 72.3367C188.376 72.7995 188.293 73.3003 188.293 73.839C188.293 74.4991 188.384 75.0909 188.566 75.5992C188.748 76.1152 189.006 76.54 189.332 76.8891C189.659 77.2381 190.046 77.496 190.493 77.6781C190.941 77.8602 191.426 77.9513 191.958 77.9513C192.238 77.9513 192.519 77.9285 192.8 77.883C193.088 77.8375 193.361 77.7616 193.627 77.6705C193.892 77.5795 194.135 77.4581 194.37 77.3064C194.606 77.1546 194.803 76.9801 194.97 76.7828L194.59 76.2897C194.53 76.2062 194.446 76.1607 194.332 76.1607C194.249 76.1607 194.15 76.1986 194.029 76.2821C193.908 76.3579 193.756 76.4414 193.581 76.5325C193.407 76.6235 193.194 76.7145 192.951 76.7904C192.701 76.8739 192.413 76.9118 192.071 76.9118C191.707 76.9118 191.381 76.8511 191.085 76.7297C190.789 76.6083 190.539 76.4338 190.326 76.191C190.114 75.9482 189.947 75.6523 189.826 75.2881C189.704 74.9315 189.636 74.5067 189.628 74.0211H194.742C194.871 74.0211 194.955 73.9831 195 73.9148C195.046 73.8466 195.068 73.7024 195.068 73.49C195.068 72.9437 194.992 72.4505 194.833 72.0256C194.674 71.6007 194.446 71.2365 194.165 70.9482C193.885 70.6599 193.543 70.4323 193.156 70.2806ZM190.372 71.6083C190.744 71.2365 191.26 71.0469 191.912 71.0469C192.216 71.0469 192.496 71.0924 192.739 71.1986C192.974 71.3048 193.179 71.449 193.346 71.6387C193.513 71.8284 193.642 72.056 193.725 72.3139C193.809 72.5719 193.854 72.8602 193.854 73.1713H189.674C189.765 72.5036 190 71.9801 190.372 71.6083ZM202.132 77.8602V73.7935V73.7859H203.877C204.53 73.7859 205.106 73.6948 205.615 73.5279C206.123 73.361 206.548 73.1258 206.889 72.8223C207.231 72.5188 207.489 72.1546 207.663 71.7373C207.838 71.32 207.929 70.8572 207.929 70.3488C207.929 69.8405 207.853 69.3777 207.686 68.9604C207.519 68.5507 207.269 68.1941 206.935 67.8982C206.601 67.6098 206.184 67.3822 205.675 67.2229C205.167 67.0636 204.568 66.9801 203.877 66.9801H200.668V77.8602H202.132ZM203.877 72.625H202.132V68.1485H203.877C204.742 68.1485 205.395 68.3458 205.819 68.7328C206.244 69.1197 206.457 69.666 206.457 70.3564C206.457 70.6903 206.404 70.9938 206.29 71.2745C206.176 71.5476 206.017 71.7904 205.797 71.9877C205.584 72.1925 205.311 72.3443 204.992 72.4581C204.666 72.5719 204.294 72.625 203.877 72.625ZM209.75 70.1667V77.8602H211.1V73.0347C211.313 72.4884 211.578 72.0787 211.897 71.7904C212.208 71.5097 212.602 71.3655 213.073 71.3655C213.338 71.3655 213.543 71.3883 213.687 71.4338C213.832 71.4869 213.945 71.5097 214.014 71.5097C214.135 71.5097 214.211 71.449 214.249 71.32L214.423 70.3109C214.279 70.2274 214.12 70.1592 213.945 70.106C213.771 70.0529 213.581 70.0302 213.369 70.0302C212.853 70.0302 212.398 70.1895 212.011 70.5082C211.624 70.8268 211.297 71.2669 211.032 71.8359L210.941 70.5613C210.918 70.4171 210.88 70.3185 210.827 70.2578C210.774 70.1971 210.668 70.1667 210.524 70.1667H209.75ZM220.675 70.3337C220.22 70.144 219.712 70.0529 219.15 70.0529C218.589 70.0529 218.088 70.144 217.633 70.3337C217.178 70.5234 216.791 70.7889 216.472 71.1303C216.153 71.4718 215.911 71.8891 215.736 72.3746C215.562 72.8678 215.478 73.4141 215.478 74.0135C215.478 74.6205 215.562 75.1667 215.736 75.6523C215.911 76.1379 216.153 76.5552 216.472 76.8966C216.791 77.2381 217.178 77.5036 217.633 77.6857C218.08 77.8754 218.589 77.9664 219.15 77.9664C219.712 77.9664 220.22 77.8678 220.675 77.6857C221.131 77.5036 221.51 77.2381 221.829 76.8966C222.147 76.5552 222.39 76.1379 222.557 75.6523C222.724 75.1667 222.807 74.6205 222.807 74.0135C222.807 73.4065 222.724 72.8602 222.557 72.3746C222.39 71.8891 222.147 71.4718 221.829 71.1303C221.51 70.7889 221.131 70.5234 220.675 70.3337ZM220.85 76.1455C220.478 76.6538 219.909 76.9118 219.15 76.9118C218.771 76.9118 218.437 76.8435 218.149 76.7221C217.868 76.5856 217.633 76.3959 217.443 76.1531C217.253 75.9027 217.109 75.5992 217.018 75.2426C216.92 74.886 216.874 74.4763 216.874 74.0211C216.874 73.5658 216.927 73.1561 217.018 72.7919C217.109 72.4277 217.253 72.1243 217.443 71.8739C217.633 71.6235 217.868 71.4338 218.149 71.3048C218.429 71.1758 218.763 71.1076 219.15 71.1076C219.909 71.1076 220.478 71.3655 220.85 71.8739C221.222 72.3822 221.411 73.0954 221.411 74.0135C221.411 74.924 221.222 75.6372 220.85 76.1455ZM229.772 71.6614C229.81 71.6311 229.856 71.5856 229.894 71.5324L230.25 71.0393C229.932 70.7206 229.568 70.4778 229.15 70.3033C228.733 70.1288 228.263 70.0378 227.724 70.0378C227.14 70.0378 226.624 70.1364 226.176 70.3337C225.728 70.5309 225.349 70.8117 225.046 71.1607C224.742 71.5173 224.507 71.9346 224.348 72.4202C224.188 72.9057 224.105 73.4369 224.105 74.0059C224.105 74.6356 224.196 75.1895 224.37 75.6827C224.545 76.1758 224.78 76.5931 225.084 76.927C225.387 77.2684 225.751 77.5264 226.161 77.7009C226.571 77.8754 227.018 77.9664 227.496 77.9664C228.05 77.9664 228.581 77.8678 229.082 77.6781C229.583 77.4884 230 77.185 230.334 76.7752L229.955 76.2821C229.901 76.1986 229.81 76.1531 229.697 76.1531C229.606 76.1531 229.514 76.191 229.423 76.2669C229.332 76.3504 229.219 76.4338 229.074 76.5325C228.93 76.6235 228.756 76.7145 228.543 76.7904C228.331 76.8739 228.058 76.9118 227.731 76.9118C227.39 76.9118 227.079 76.8435 226.806 76.7145C226.525 76.5856 226.29 76.3959 226.1 76.1531C225.911 75.9103 225.759 75.6068 225.653 75.2426C225.546 74.886 225.493 74.4687 225.493 74.0059C225.493 73.5583 225.546 73.1561 225.645 72.7995C225.744 72.4429 225.888 72.1318 226.085 71.8815C226.275 71.6311 226.518 71.4414 226.806 71.3048C227.094 71.1683 227.428 71.1 227.8 71.1C228.088 71.1 228.323 71.1379 228.521 71.1986C228.71 71.2593 228.877 71.3276 229.014 71.4035C229.15 71.4793 229.264 71.5552 229.355 71.6159C229.439 71.6766 229.522 71.707 229.598 71.707C229.674 71.707 229.735 71.6918 229.772 71.6614ZM236.237 70.2806C235.85 70.1212 235.425 70.0453 234.962 70.0453C234.401 70.0453 233.9 70.144 233.46 70.3185C233.012 70.5158 232.64 70.7813 232.329 71.1227C232.026 71.4642 231.791 71.8739 231.624 72.3367C231.457 72.7995 231.373 73.3003 231.373 73.839C231.373 74.4991 231.464 75.0909 231.646 75.5992C231.829 76.1152 232.087 76.54 232.413 76.8891C232.739 77.2381 233.126 77.496 233.574 77.6781C234.021 77.8602 234.507 77.9513 235.038 77.9513C235.319 77.9513 235.599 77.9285 235.88 77.883C236.168 77.8375 236.442 77.7616 236.707 77.6705C236.973 77.5795 237.216 77.4581 237.451 77.3064C237.686 77.1546 237.883 76.9801 238.05 76.7828L237.671 76.2897C237.61 76.2062 237.527 76.1607 237.413 76.1607C237.329 76.1607 237.231 76.1986 237.109 76.2821C236.988 76.3579 236.836 76.4414 236.662 76.5325C236.487 76.6235 236.275 76.7145 236.032 76.7904C235.782 76.8739 235.493 76.9118 235.152 76.9118C234.788 76.9118 234.461 76.8511 234.165 76.7297C233.87 76.6083 233.619 76.4338 233.407 76.191C233.194 75.9482 233.027 75.6523 232.906 75.2881C232.785 74.9315 232.716 74.5067 232.709 74.0211H237.823C237.952 74.0211 238.035 73.9831 238.081 73.9148C238.126 73.8466 238.149 73.7024 238.149 73.49C238.149 72.9437 238.073 72.4505 237.914 72.0256C237.754 71.6007 237.527 71.2365 237.246 70.9482C236.965 70.6599 236.624 70.4323 236.237 70.2806ZM233.452 71.6083C233.824 71.2365 234.34 71.0469 234.992 71.0469C235.296 71.0469 235.577 71.0924 235.819 71.1986C236.055 71.3048 236.26 71.449 236.426 71.6387C236.593 71.8284 236.722 72.056 236.806 72.3139C236.889 72.5719 236.935 72.8602 236.935 73.1713H232.754C232.845 72.5036 233.08 71.9801 233.452 71.6083ZM244.165 71.6083C244.294 71.6083 244.385 71.5552 244.446 71.4414L244.75 70.9482C244.461 70.6675 244.112 70.4475 243.71 70.2881C243.308 70.1288 242.853 70.0453 242.345 70.0453C241.912 70.0453 241.525 70.106 241.184 70.2274C240.842 70.3488 240.562 70.5158 240.326 70.7206C240.091 70.9255 239.917 71.1607 239.795 71.4338C239.674 71.707 239.613 71.9877 239.613 72.2836C239.613 72.6174 239.674 72.8982 239.788 73.1258C239.901 73.361 240.046 73.5507 240.235 73.71C240.425 73.8617 240.637 73.9907 240.88 74.0969C241.123 74.2032 241.366 74.2942 241.616 74.3777C241.866 74.4534 242.108 74.5291 242.351 74.6048L242.352 74.6053C242.587 74.6736 242.8 74.7646 242.989 74.8633C243.179 74.9619 243.331 75.0833 243.445 75.2199C243.558 75.3564 243.612 75.5309 243.612 75.7434C243.612 75.9103 243.581 76.0772 243.521 76.229C243.452 76.3807 243.354 76.5173 243.225 76.6311C243.096 76.7449 242.929 76.8359 242.731 76.9042C242.534 76.9725 242.307 77.0104 242.041 77.0104C241.738 77.0104 241.48 76.9725 241.275 76.9042C241.07 76.8359 240.895 76.7525 240.751 76.669C240.607 76.5856 240.478 76.5021 240.379 76.4338C240.281 76.3655 240.182 76.3276 240.091 76.3276C240 76.3276 239.924 76.3428 239.871 76.3807C239.818 76.4186 239.765 76.4642 239.727 76.5325L239.408 77.0636C239.712 77.3291 240.084 77.5491 240.516 77.7237C240.948 77.8982 241.434 77.9816 241.973 77.9816C242.443 77.9816 242.86 77.9209 243.217 77.7919C243.574 77.6629 243.877 77.4884 244.128 77.2684C244.378 77.0484 244.56 76.7904 244.689 76.4869C244.818 76.191 244.879 75.8648 244.879 75.5082C244.879 75.1971 244.826 74.9315 244.712 74.7115C244.598 74.4915 244.446 74.3094 244.257 74.1576C244.067 74.0059 243.854 73.8769 243.619 73.7783C243.384 73.6721 243.141 73.581 242.891 73.4976C242.737 73.4463 242.583 73.3979 242.433 73.3506C242.339 73.3209 242.246 73.2916 242.155 73.2624C241.92 73.1941 241.707 73.1106 241.518 73.012C241.335 72.9133 241.184 72.7995 241.07 72.6705C240.956 72.5416 240.895 72.3746 240.895 72.1774C240.895 72.018 240.933 71.8739 241.002 71.7373C241.07 71.6083 241.169 71.4869 241.297 71.3883C241.426 71.2821 241.578 71.2062 241.76 71.1455C241.942 71.0924 242.147 71.062 242.375 71.062C242.64 71.062 242.868 71.0848 243.058 71.1455C243.255 71.2062 243.422 71.2669 243.559 71.3352C243.648 71.3801 243.728 71.425 243.801 71.4656C243.838 71.4867 243.874 71.5067 243.908 71.5249C244.006 71.578 244.09 71.6083 244.165 71.6083ZM250.926 71.6083C251.055 71.6083 251.146 71.5552 251.206 71.4414L251.51 70.9482C251.222 70.6675 250.873 70.4475 250.47 70.2881C250.068 70.1288 249.613 70.0453 249.105 70.0453C248.672 70.0453 248.285 70.106 247.944 70.2274C247.603 70.3488 247.322 70.5158 247.087 70.7206C246.851 70.9255 246.677 71.1607 246.555 71.4338C246.434 71.707 246.373 71.9877 246.373 72.2836C246.373 72.6174 246.434 72.8982 246.548 73.1258C246.662 73.361 246.806 73.5507 246.996 73.71C247.185 73.8617 247.398 73.9907 247.64 74.0969C247.883 74.2032 248.126 74.2942 248.376 74.3777C248.627 74.4535 248.87 74.5294 249.112 74.6053C249.348 74.6736 249.56 74.7646 249.75 74.8633C249.939 74.9619 250.091 75.0833 250.205 75.2199C250.319 75.3564 250.372 75.5309 250.372 75.7434C250.372 75.9103 250.341 76.0772 250.281 76.229C250.213 76.3807 250.114 76.5173 249.985 76.6311C249.856 76.7449 249.689 76.8359 249.492 76.9042C249.294 76.9725 249.067 77.0104 248.801 77.0104C248.498 77.0104 248.24 76.9725 248.035 76.9042C247.83 76.8359 247.656 76.7525 247.511 76.669C247.367 76.5856 247.238 76.5021 247.14 76.4338C247.041 76.3655 246.942 76.3276 246.851 76.3276C246.76 76.3276 246.684 76.3428 246.631 76.3807C246.578 76.4186 246.525 76.4642 246.487 76.5325L246.169 77.0636C246.472 77.3291 246.844 77.5491 247.276 77.7237C247.709 77.8982 248.194 77.9816 248.733 77.9816C249.203 77.9816 249.621 77.9209 249.977 77.7919C250.334 77.6629 250.637 77.4884 250.888 77.2684C251.138 77.0484 251.32 76.7904 251.449 76.4869C251.578 76.191 251.639 75.8648 251.639 75.5082C251.639 75.1971 251.586 74.9315 251.472 74.7115C251.358 74.4915 251.206 74.3094 251.017 74.1576C250.827 74.0059 250.615 73.8769 250.379 73.7783C250.144 73.6721 249.901 73.581 249.651 73.4976C249.497 73.4463 249.344 73.3979 249.193 73.3507C249.099 73.3209 249.006 73.2916 248.915 73.2624C248.68 73.1941 248.467 73.1106 248.278 73.012C248.096 72.9133 247.944 72.7995 247.83 72.6705C247.716 72.5416 247.656 72.3746 247.656 72.1774C247.656 72.018 247.694 71.8739 247.762 71.7373C247.83 71.6083 247.929 71.4869 248.058 71.3883C248.187 71.2821 248.338 71.2062 248.521 71.1455C248.703 71.0924 248.908 71.062 249.135 71.062C249.401 71.062 249.628 71.0848 249.818 71.1455C250.015 71.2062 250.182 71.2669 250.319 71.3352C250.409 71.3801 250.489 71.425 250.561 71.4656C250.598 71.4867 250.634 71.5067 250.668 71.5249C250.766 71.578 250.85 71.6083 250.926 71.6083Z" fill="#197FE5"/>
</svg>
